<?xml version="1.0" encoding="utf-8"?>
<!-- Generator: Adobe Illustrator 19.2.1, SVG Export Plug-In . SVG Version: 6.00 Build 0)  -->
<svg version="1.2" baseProfile="tiny" xmlns="http://www.w3.org/2000/svg" xmlns:xlink="http://www.w3.org/1999/xlink" x="0px"
	 y="0px" width="2000px" height="600px" viewBox="0 0 2000 600" xml:space="preserve">
<g id="Layer_2" display="none">
	<rect display="inline" fill="#2196F3" width="2000" height="600"/>
</g>
<g id="Layer_1">
	<g>
		<path fill-rule="evenodd" fill="#37A0F4" d="M1634.8,109.6c0.1,0.4,0,0.6,0.1,0.7c3.9,6.4,6.1,13.6,9.1,20.3
			c1.6,3.6,2.9,7.4,5.3,10.6c0.6,0.8,1,1.7,0.3,2.5c-0.4,0.5-1.4,0.9-2,0.8c-2.9-0.4-5.8-0.5-8.5-1.4c-4.6-1.6-9.4-2.2-14.2-3.2
			c-3.1-0.7-6.2-1.3-9.4-2c-2.3-0.5-4.4-0.5-6.6,0.6c-8.3,3.8-16.5,7.6-24,12.9c-3.7,2.6-7.9,4.5-11.9,6.6c-1.9,1-3.3,0-3.3-2.2
			c0-0.8,0.1-1.5,0.2-2.3c1.1-7.1,0.5-14.2,0.5-21.4c0-1.3-0.4-2.3-1.4-3.2c-8-7.4-14.2-16.6-22.1-24.2c-0.3-0.3-0.6-0.6-0.9-1
			c-0.7-1-0.4-2.6,0.8-3.1c0.9-0.5,2-0.7,3-1.1c2.1-0.8,4.4-1.4,6.3-2.5c5.6-3.2,11.7-5,18.2-5.4c0.8,0,1.5-0.1,2.3-0.2
			c0.3,0,0.6-0.2,1.2-0.4c2.1-6.1,4.3-12.3,6.4-18.6c1.2-3.5,2-7,3.1-10.5c1.7-5.3,3.8-5.8,8-1.9c4.9,4.6,9.3,9.6,13.1,15.1
			c0.8,1.2,1.8,2.4,2.6,3.6c2.9,0.7,5.6,0.8,8.3,0.6c4.7-0.2,9.4-0.1,14.1-0.2c3-0.1,6.1-0.2,9.1-0.3c1.2,0,2.4-0.2,3.6-0.1
			c1.7,0.1,2.6,1.3,1.9,2.8c-3.1,6.6-5.2,13.6-9.3,19.7C1637,103.8,1635.7,106.7,1634.8,109.6z M1573.8,153c0.9-0.4,1.5-0.5,2-0.8
			c2.8-1.6,5.5-3.1,8.3-4.8c3.1-1.9,6.1-4,9.3-5.7c4.4-2.3,9.1-4.2,13.5-6.5c3.2-1.7,6.3-1.8,9.7-0.9c2.4,0.6,4.7,1,7.1,1.6
			c5.5,1.2,11.1,1.6,16.4,3.7c1.1,0.4,2.3,0.4,4,0.7c-0.4-1.2-0.6-2.1-1-2.9c-1.7-3.9-3.4-7.8-5-11.7c-1.9-4.5-3.4-9.1-6.2-13.2
			c-1-1.5-1.1-3.1-0.3-4.8c1.5-3.1,3-6.3,4.7-9.3c2.8-4.9,5.1-9.9,7-15.6c-1.8,0-3.2-0.1-4.7-0.1c-1.8,0-3.6,0-5.5,0.1
			c-4.4,0.1-8.8,0.2-13.2,0.1c-2.9,0-5.7-0.2-8.6-0.4c-1.8-0.1-3-1.1-4-2.6c-1.9-2.8-3.9-5.4-5.8-8.2c-2.6-3.6-5.9-6.5-9.1-9.5
			c-0.2-0.2-0.6-0.1-1-0.1c-0.2,0.4-0.5,0.7-0.6,1.1c-2.5,8.3-4.7,16.7-8.2,24.6c-0.6,1.3-0.6,2.5,0.8,3.6c0.7,0.6,0.3,1.9-0.5,2.3
			c-0.8,0.3-1.7,0.6-2.6,0.8c-1.8,0.2-3.6,0.4-5.4,0.5c-5.9,0.3-11.4,1.8-16.5,4.7c-1.7,1-3.6,1.6-5.4,2.5c-0.6,0.3-1.2,0.7-2.2,1.2
			c8.1,8.1,14.3,17.4,22.9,24.7C1574.2,136.4,1574.2,144.5,1573.8,153z"/>
		<path fill-rule="evenodd" fill="#37A0F4" d="M1581.6,122.5c-1.4-1.3-3-1.9-4.5-2.6c-6.1-2.7-11.6-6.5-16.9-10.6
			c-0.9-0.7-2.2-1.4-2-2.8c0.2-1.7,1.9-1.8,3.1-2.1c6.8-1.4,13.7-2.7,20.7-2.6c0.4,0,0.9,0.1,1.2,0.4c0.2,0.2,0.2,1,0.1,1.1
			c-0.6,0.4-1.3,0.7-2,0.7c-5.5,0.3-10.8,1.4-16.2,2.4c-0.6,0.1-1.2,0.3-1.7,0.4c-0.4,1.1,0.3,1.5,0.9,1.9c4.6,3.5,9.5,6.5,14.8,8.9
			c1.9,0.9,3.9,1.6,5.5,3.4c0,4.8-1.6,9.7-1.5,14.6c1.1,0.6,1.5-0.2,2-0.7c2.6-2.1,5.2-4.2,7.9-6.2c2.7-2,5.8-3.3,9-4.4
			c4.7-1.7,9.5-1.9,14.3-0.3c2.1,0.7,4.3,1.3,7,1.1c-0.7-1.5-1.1-2.7-1.7-3.9c-1.5-3-2.7-6.1-3.1-9.5c-0.1-1-0.1-2.2,0.3-3.1
			c2.9-6,6-11.9,9-17.9c0.1-0.2,0.4-0.4,0.9-0.8c0.2,0.7,0.6,1.3,0.4,1.8c-0.9,2.9-1.7,5.8-2.9,8.6c-1,2.4-2.2,4.7-3.6,6.8
			c-1.6,2.4-1.7,4.9-0.7,7.4c1.2,3.1,2.7,6.1,4.1,9.1c0.5,1,1.2,1.8,1.6,2.7c0.2,0.6,0,1.4-0.1,2.4c-4-0.2-7.9-0.5-11.4-1.8
			c-6.8-2.4-12.9-0.8-18.8,2.3c-4.2,2.2-7.9,5.1-11.2,8.5c-1.2,1.2-2.3,2.4-3.6,3.4c-0.5,0.4-1.5,0.4-2.1,0.2
			c-0.4-0.1-0.7-1-0.7-1.5c0.3-4.2,0.7-8.5,1.1-12.7C1581.2,125.8,1581.4,124.3,1581.6,122.5z"/>
	</g>
	<g>
		<path fill-rule="evenodd" fill="#37A0F4" d="M472,122.3c4.2,0.7,8,2.1,11.8,3.4c2.8,1,5.7,1.7,8.6,2.5c0.3,0.1,0.7,0.1,0.9,0.2
			c0.3,0.2,0.9,0.5,0.9,0.8c0,0.5-0.3,1-0.6,1.4c-0.3,0.4-0.9,0.6-1.3,0.9c-3.4,2.2-6.8,4.4-10.2,6.6c-0.9,0.6-1.9,1-2.8,1.5
			c-0.9,0.5-1.9,1-2.8,1.5c-1.1,0.6-1.7,1.5-2,2.7c-0.5,2.1-1.2,4.1-1.7,6.1c-0.8,3.2-1.8,6.3-3,9.4c-0.8,2.1-1.5,4.2-2.2,6.3
			c-0.1,0.4-0.3,0.8-0.6,1.1c-0.4,0.5-0.9,0.5-1.4,0.2c-0.3-0.2-0.7-0.6-0.9-0.9c-0.3-0.5-0.6-1.1-0.9-1.7
			c-1.5-4.1-3.7-7.9-6.5-11.3c-0.5-0.7-1.1-1.3-1.4-2.1c-1.3-2.7-3.8-3.8-6.5-4.1c-4-0.5-8.1-0.4-12.1,0c-2.8,0.3-5.7,0.5-8.6,0.6
			c-1.5,0.1-2.2-0.8-1.7-2.3c0.6-1.8,1.2-3.7,2.1-5.3c2.2-3.7,4.7-7.3,7.2-11.2c0-0.2-0.1-0.8-0.3-1.3c-1.5-5.2-3-10.4-4.5-15.6
			c-0.1-0.4-0.2-0.8-0.3-1.2c-0.1-0.9,0.5-1.6,1.6-1.5c0.7,0.1,1.5,0.3,2.2,0.5c2,0.8,3.9,1.6,5.9,2.5c2.4,1,4.9,2,7.3,3.1
			c1.4,0.6,2.8,1.5,4.4,2.5c0.4,0,0.6-0.7,1-1.2c2.3-2.6,4.6-5.3,7-7.9c1.4-1.6,3-3.1,4.4-4.6c0.6-0.6,1.1-1.5,2.1-1.1
			c0.9,0.4,0.9,1.4,1,2.2c0.3,1.5,0.4,3,0.7,4.4C469.9,113.9,471,118.1,472,122.3z M465.9,107.1c-3.7,2.5-9.6,9.1-12.7,14.2
			c-1.2,0.5-1.8-0.3-2.4-1.1c-0.8-1.1-1.7-2.2-3.1-2.6c-3.3-0.9-6.3-2.6-9.4-4c-1.1-0.5-2.2-1.2-3.8-1.2c0.1,0.8,0.1,1.5,0.3,2.2
			c1.2,4.2,2.4,8.4,3.7,12.5c0.4,1.3,0.6,2.4-0.3,3.6c-1.6,2.2-3.3,4.5-4.8,6.8c-1.2,1.8-2.1,3.7-3.1,5.5c-0.3,0.5-0.3,1.2-0.4,2
			c1.5,0,2.7,0,4,0c1,0,1.9-0.1,2.9-0.3c4.2-0.8,8.5-0.7,12.7-0.3c3.4,0.3,6.6,1.6,8.3,5.1c0.6,1.1,1.4,2.1,2.2,3.1
			c2.1,2.6,3.9,5.3,5.1,8.4c0.2,0.4,0.6,0.7,1.1,1.3c1.5-4.1,3.2-7.7,4.1-11.7c0.6-2.7,1.4-5.3,2.2-8c0.4-1.5,1.3-2.7,2.7-3.4
			c1-0.6,2-1.2,3-1.7c0.7-0.4,1.6-0.7,2.3-1.2c2.7-1.7,5.4-3.5,8-5.2c0.4-0.3,0.6-0.7,1-1.2c-6.6-1.8-12.5-5-19.2-5.5
			C468.7,118.7,467.3,113,465.9,107.1z"/>
		<path fill-rule="evenodd" fill="#37A0F4" d="M478.7,203.4c-1-3-0.7-5.9-0.2-9.1C479.8,196.4,479.8,198.5,478.7,203.4z"/>
		<path fill-rule="evenodd" fill="#37A0F4" d="M478.7,161.9c0.4,0.4,0.7,0.5,0.7,0.7c0.1,1.6-1,2.7-1.6,4c-0.3,0.7-0.6,1.6-1.8,1.7
			C475.8,165.8,477.7,164.2,478.7,161.9z"/>
		<path fill-rule="evenodd" fill="#37A0F4" d="M464.2,144c0.3-2.2,0.7-4.1,0.8-6.2c0.1-2.4,1.6-3.5,3.5-4.2c0.7,0.7,0.5,1.4,0.1,1.8
			c-1.4,1.1-1.6,2.6-1.8,4.2c-0.4,2.7-0.7,5.5-0.6,8.3c0,0.4,0,0.8-0.1,1.3c-0.1,0.6-1.1,0.9-1.5,0.4c-0.4-0.5-0.9-1-1.1-1.5
			c-1.6-3.6-4.4-6.2-6.7-9.2c-1.3-0.4-2.4-0.2-3.5,0.1c-3.3,0.8-6.6,1.6-10,2.1c-1.9,0.3-3.8,0.1-5.7,0c-1.2-0.1-1.6-1.2-0.8-2
			c1.5-1.6,3.1-3.2,4.7-4.8c0.2-0.2,0.9-0.2,1.1,0c0.2,0.2,0.3,0.8,0.2,1.1c-0.3,0.6-0.7,1-1.1,1.5c-0.5,0.6-1.1,1.2-1.7,2
			c1.1,0.6,2.1,0.4,3,0.2c3.4-0.7,6.9-1.4,10.3-2.1c0.5-0.1,1-0.2,1.6-0.2c2-0.3,3.4,0.2,4.6,2c1.2,1.8,2.8,3.4,4.3,5.1
			C463.6,143.9,463.8,143.9,464.2,144z"/>
	</g>
	<g>
		<path fill-rule="evenodd" fill="#37A0F4" d="M52.9,84.6c0-2.6,0.3-4.9,0.1-7.2c-0.7-7.7-1.6-15.4-2.5-23.1c-0.2-1.8-1-3.9,2-5.3
			c8.1,4.8,15.1,11.5,22.3,18c2.8-1.4,5.5-2.8,8.1-4.1c4.8-2.4,9.8-4.2,15.1-5.4c7.2-1.7,13.7-5,20.3-8.1c1.9-0.9,3.9-1.9,5.9-2.6
			c1.5-0.6,3,0.9,2.6,2.6c-0.3,1-0.7,2-1.2,3c-2.7,5.9-5.2,11.8-8.1,17.6c-2.2,4.4-4.7,8.7-7.1,13.1c-0.6,1.1-1.2,2.3-2,3.8
			c1.1,0.8,2,1.5,3.1,2.1c5.2,3.1,10.3,6.2,15.6,9.2c5.4,3,11,5.9,16.5,8.8c2,1.1,5,1.8,4.5,4.7c-0.4,2.6-3.4,2.2-5.3,2.9
			c-2.9,0.9-5.8,1.6-8.7,2.6c-8.8,3-17.6,5.8-26.8,6.9c-5.2,0.6-9,3.3-12.3,7.5c-8.7,11.3-16.7,23-24.5,34.9
			c-0.9,1.4-1.9,2.9-2.9,4.2c-0.8,1.1-2.6,0.7-3.2-0.6c-0.4-1-0.8-2-1-3.1c-1-6.8-2.2-13.6-3-20.4c-0.6-5.3-0.8-10.7-1.3-16.1
			c-0.2-1.7-0.6-3.4-1-5c-0.4-1.6-1.4-2.6-2.9-3.2c-6.9-2.9-13.9-5.9-20.8-8.8c-5-2.1-10.4-2.5-15.7-3.5c-2.7-0.5-5.4-1.4-8-2.3
			c-1.3-0.4-2.2-1.4-2.2-2.9c0-1.5,1-2.4,2.2-2.9c3.6-1.5,7.2-2.8,10.8-4.3c3.6-1.5,7.1-3.1,10.7-4.6c5-2,10-4,15-6
			C49,86,50.8,85.4,52.9,84.6z M119.4,54.5c-2,0.6-2.6,0.7-3.2,1c-6.8,3.4-13.8,5.8-21.2,7.7c-5.8,1.5-11.3,4.1-16.3,7.5
			c-4.1,2.8-4.3,2.7-8.1-0.8c-4.1-3.8-8.3-7.5-12.5-11.2c-0.6-0.5-1.4-0.8-2.5-1.4c-0.1,1.3-0.3,2.1-0.2,2.9
			c0.5,6.9,1.1,13.7,1.7,20.6c0.1,0.8,0.5,1.6,0.8,2.4c0.9,2.3,0.8,3.2-1.1,4.1c-2.7,1.3-5.5,2.5-8.3,3.6c-3.8,1.5-7.7,2.8-11.4,4.4
			c-5.4,2.2-10.7,4.6-16,6.9c-1.1,0.5-2.1,1.1-3.6,1.8c1.8,1.7,3.5,1.6,5.2,1.8c6.2,0.7,12.2,2.3,18,4.9c5.1,2.3,10.2,4.6,15.4,6.6
			c4.1,1.6,6.3,4.4,6.9,8.6c0.5,3.6,0.9,7.3,1.2,10.9c0.5,6.2,1,12.5,1.5,18.7c0.2,2.5,0.7,5,1.9,8c1-1.2,1.7-2,2.2-2.8
			c2.4-3.8,4.8-7.7,7.3-11.5c5-7.8,10.3-15.4,16.1-22.6c2.6-3.1,5.8-5.1,9.6-6.1c2.9-0.8,5.9-1.3,8.9-1.7c6.3-0.9,20.8-5.4,26.7-8.4
			c-0.2-0.3-0.4-0.8-0.7-1c-10.2-5.9-20.5-11.9-30.8-17.7c-3.8-2.2-4.2-3.2-2.1-7.2c2.1-4,4.3-8,6.6-11.9
			C114.6,67,116.3,61.1,119.4,54.5z"/>
		<path fill-rule="evenodd" fill="#37A0F4" d="M68.4,112.4c1.8-2,3.1-1.6,4.2-0.3c2.1,2.4,2.7,5.4,3.1,8.4c0.3,1.9,0.3,3.8,0.4,5.7
			c1.7,0.7,2-0.5,2.4-1.4c2.7-6.5,7.6-11.5,11.9-16.9c1.3-1.6,2.9-2.5,5-2.5c2.2,0,4.3,0,6.5-0.2c0.8-0.1,1.5-0.5,2.3-0.7
			c-0.7-2.6-2.6-3.8-4.4-4.8c-3-1.7-6.1-3.2-9.1-4.8c-2-1-2.5-2.1-1.8-4.2c0.4-1,0.8-2,1.3-2.9c3.1-5.9,6.3-11.8,9.5-17.6
			c0.2-0.4,0.4-0.8,0.8-1c0.5-0.3,1.2-0.7,1.6-0.5c0.4,0.2,0.9,1.1,0.7,1.5c-1.3,3.4-2.6,6.8-4.2,10.1c-1.3,2.7-3,5.2-4.5,7.8
			c-0.5,0.9-0.9,1.9-1.5,3.2c2,1.4,3.9,2.8,5.8,4.1c2.5,1.7,5,3.4,6.4,6.2c0.6,1.3,1.8,1.6,3,2c1.6,0.6,1.7,2.7,0.2,3.5
			c-1.7,0.9-3.5,1.5-5.4,1.8c-2.1,0.3-4.3,0.2-6.5,0.2c-1.9,0-3.3,0.7-4.5,2.2c-3.7,4.8-7.8,9.2-10.3,14.8c-1.8,3.9-4,7.6-6.1,11.4
			c-0.2,0.4-1.1,0.8-1.7,0.7c-0.5-0.1-1.1-0.6-1.4-1.1c-0.3-0.5-0.2-1.3-0.3-1.9c0-1.1,0-2.2,0-3.2
			C71.7,125.3,72.7,118.2,68.4,112.4z"/>
	</g>
	<g>
		<path fill-rule="evenodd" fill="#37A0F4" d="M268.3,104.1c-0.2-2.5-0.3-4.4-0.5-6.2c-0.1-1.3-0.2-2.5-0.1-3.8c0-0.9,0.8-1.4,1.7-1
			c1,0.5,1.9,1,2.7,1.6c1.9,1.3,4,2.4,6.4,3.2c1.2-1.2,2.3-2.3,3.5-3.5c1.6-1.5,3.1-2.9,4.7-4.3c0.7-0.6,1.6-1.4,2.6-1
			c1.1,0.5,1.1,1.7,1.1,2.8c0,1.1-0.1,2.1-0.2,3.2c-0.1,0.8-0.1,1.6-0.3,2.3c-0.3,1.3,0.3,2,1.4,2.5c0.4,0.2,0.9,0.4,1.3,0.6
			c3.8,1.9,7.6,3.9,11.5,5.8c0.3,0.2,0.6,0.4,0.9,0.7c0.3,0.3,0.2,1.1-0.2,1.3c-0.5,0.3-1.1,0.5-1.6,0.7c-3.5,0.9-7,1.8-10.5,2.7
			c-0.7,0.2-1.3,0.3-2.1,0.6c-0.3,2.3-0.6,4.6-0.9,6.9c-0.2,1.3-0.4,2.5-0.7,3.7c-0.2,0.9-1.1,1.2-1.8,0.6c-0.9-0.7-1.8-1.5-2.5-2.4
			c-1.9-2.3-4-4.2-6.4-6c-0.9-0.6-1.8-1.1-2.9-1.2c-2.3-0.2-4.6-0.5-7-0.8c-1.5-0.2-3.1-0.5-4.6-0.8c-0.7-0.1-1.1-1-0.7-1.6
			c0.9-1.3,1.8-2.5,2.7-3.8C266.9,105.9,267.8,104.8,268.3,104.1z M288.4,92c-0.7,0.1-0.9,0.1-1,0.2c-2,2-4.1,3.9-6.1,5.9
			c-0.5,0.5-0.5,1-0.4,1.6c0,1-0.7,1.5-1.5,1.1c-2.4-1.2-4.9-2.5-7.3-3.7c-0.7-0.3-1.3-0.7-2.2-1.1c-0.2,2.2,0.2,4.1,0.7,6
			c0.4,1.5,0.2,2.6-0.8,3.8c-1.1,1.2-2.1,2.5-3.2,3.8c-0.3,0.3-0.3,0.8-0.5,1.3c0.9,0.1,1.6,0.3,2.2,0.4c2.4,0.3,4.8,0.6,7.3,0.8
			c1.6,0.1,3,0.7,4.3,1.7c2.2,1.7,4.2,3.4,5.9,5.6c0.4,0.5,0.7,1.1,1.7,1c0.5-3.2,0.9-6.4,1.3-9.4c1.4-0.9,2.8-0.8,4.1-1.2
			c1.3-0.4,2.7-0.6,4-1c1.3-0.4,2.7-0.4,3.9-1.4c-0.6-0.4-1-0.8-1.5-1.1c-1.7-0.9-3.4-1.8-5.2-2.7c-1.4-0.7-2.8-1.4-4.2-2.1
			c-1.8-0.9-2.5-2.3-2.1-4.3C288.3,95.6,288.3,93.9,288.4,92z"/>
		<path fill-rule="evenodd" fill="#37A0F4" d="M290.7,106.8c-1.5,0.5-2.7,0.9-3.8,1.4c-1.1,0.5-1.8,1.4-1.8,2.7
			c0,0.4-0.1,0.8-0.2,1.1c-0.1,0.2-0.4,0.4-0.6,0.5c-0.2,0-0.6-0.1-0.7-0.3c-0.3-0.6-0.5-1.2-0.7-1.9c-2.1-1.1-4.4-1.5-6.6-2.2
			c-0.9-0.3-1.7-0.8-2.6-1.3c-0.1-0.1-0.2-0.6-0.1-0.8c0.1-0.2,0.4-0.4,0.6-0.4c0.4,0,0.8,0.1,1.1,0.2c2.9,0.9,5.8,1.7,8.5,2.6
			c1.5-0.8,2.9-1.7,4.3-2.4C289,105.5,289.9,105.8,290.7,106.8z"/>
	</g>
	<g>
		<path fill-rule="evenodd" fill="#37A0F4" d="M495.7,545.3c-1.4-1.6-2.5-2.8-3.5-4c-0.7-0.8-1.4-1.7-2-2.5
			c-0.4-0.6-0.1-1.4,0.7-1.5c0.9-0.2,1.8-0.2,2.7-0.3c2-0.1,4-0.4,6-1.1c0.2-1.4,0.4-2.8,0.6-4.2c0.3-1.8,0.6-3.6,1-5.4
			c0.2-0.8,0.3-1.8,1.3-2c1-0.2,1.7,0.6,2.2,1.4c0.5,0.7,1,1.5,1.5,2.3c0.3,0.6,0.7,1.1,1,1.7c0.5,1,1.3,1.2,2.3,1
			c0.4-0.1,0.8-0.2,1.2-0.2c3.6-0.6,7.2-1.3,10.8-1.9c0.3-0.1,0.7,0,1,0c0.3,0.1,0.7,0.7,0.6,1c-0.2,0.4-0.5,0.9-0.8,1.3
			c-1.9,2.4-3.9,4.8-5.8,7.2c-0.4,0.5-0.7,0.9-1.2,1.5c1,1.7,2,3.5,2.9,5.2c0.5,0.9,1,1.9,1.5,2.9c0.3,0.7-0.1,1.4-0.9,1.4
			c-1,0-2-0.2-3-0.4c-2.4-0.6-4.9-0.9-7.4-0.8c-0.9,0-1.8,0.2-2.6,0.7c-1.7,1-3.4,2-5.2,3c-1.2,0.6-2.4,1.2-3.6,1.8
			c-0.6,0.3-1.3-0.1-1.3-0.8c-0.1-1.3,0-2.7,0-4C495.7,547.2,495.7,546,495.7,545.3z M503.3,526.7c-0.4,0.4-0.5,0.5-0.6,0.7
			c-0.4,2.4-0.8,4.8-1.2,7.1c-0.1,0.6,0.2,0.9,0.5,1.3c0.5,0.7,0.3,1.3-0.5,1.5c-2.3,0.4-4.6,0.8-6.9,1.2c-0.6,0.1-1.3,0.2-2.1,0.4
			c1,1.6,2.2,2.8,3.5,3.7c1.1,0.8,1.5,1.7,1.4,3c-0.1,1.4-0.2,2.8-0.2,4.2c0,0.4,0.2,0.7,0.3,1.2c0.7-0.4,1.2-0.6,1.7-0.9
			c1.8-1,3.6-2.1,5.4-3.2c1.2-0.7,2.4-1.1,3.8-1c2.3,0,4.7,0.2,6.9,0.8c0.5,0.1,1.1,0.4,1.7-0.1c-1.3-2.4-2.7-4.8-3.9-7.1
			c0.5-1.3,1.5-2,2.2-2.9c0.7-0.9,1.5-1.8,2.2-2.7c0.7-0.9,1.6-1.6,2-3c-0.6,0-1.1-0.1-1.6,0c-1.6,0.2-3.3,0.5-4.9,0.8
			c-1.3,0.2-2.6,0.5-3.9,0.7c-1.7,0.3-2.9-0.3-3.7-1.9C505,529.2,504.1,528.1,503.3,526.7z"/>
		<path fill-rule="evenodd" fill="#37A0F4" d="M512.4,535.6c-0.7,1.1-1.4,2-1.9,2.9c-0.5,0.9-0.6,1.9,0.2,2.8
			c0.2,0.3,0.4,0.6,0.4,0.9c0,0.2,0,0.5-0.2,0.6c-0.1,0.1-0.5,0.2-0.7,0.1c-0.5-0.3-1-0.6-1.5-0.9c-2,0.3-3.8,1.3-5.7,1.9
			c-0.8,0.2-1.6,0.4-2.4,0.5c-0.1,0-0.4-0.3-0.5-0.5c0-0.2,0.1-0.5,0.2-0.6c0.2-0.2,0.6-0.3,0.9-0.4c2.4-0.9,4.8-1.8,7.2-2.6
			c0.6-1.3,1.1-2.6,1.7-3.9C510.6,535.6,511.4,535.3,512.4,535.6z"/>
	</g>
	<g>
		<path fill-rule="evenodd" fill="#37A0F4" d="M1768,94.4c-1.4-1.6-2.5-2.8-3.5-4c-0.7-0.8-1.4-1.7-2-2.5c-0.4-0.6-0.1-1.4,0.7-1.5
			c0.9-0.2,1.8-0.2,2.7-0.3c2-0.1,4-0.4,6-1.1c0.2-1.4,0.4-2.8,0.6-4.2c0.3-1.8,0.6-3.6,1-5.4c0.2-0.8,0.3-1.8,1.3-2
			c1-0.2,1.7,0.6,2.2,1.4c0.5,0.7,1,1.5,1.5,2.3c0.3,0.6,0.7,1.1,1,1.7c0.5,1,1.3,1.2,2.3,1c0.4-0.1,0.8-0.2,1.2-0.2
			c3.6-0.6,7.2-1.3,10.8-1.9c0.3-0.1,0.7,0,1,0c0.3,0.1,0.7,0.7,0.6,1c-0.2,0.4-0.5,0.9-0.8,1.3c-1.9,2.4-3.9,4.8-5.8,7.2
			c-0.4,0.5-0.7,0.9-1.2,1.5c1,1.7,2,3.5,2.9,5.2c0.5,0.9,1,1.9,1.5,2.9c0.3,0.7-0.1,1.4-0.9,1.4c-1,0-2-0.2-3-0.4
			c-2.4-0.6-4.9-0.9-7.4-0.8c-0.9,0-1.8,0.2-2.6,0.7c-1.7,1-3.4,2-5.2,3c-1.2,0.6-2.4,1.2-3.6,1.8c-0.6,0.3-1.3-0.1-1.3-0.8
			c-0.1-1.3,0-2.7,0-4C1768,96.4,1768,95.1,1768,94.4z M1775.7,75.8c-0.4,0.4-0.5,0.5-0.6,0.7c-0.4,2.4-0.8,4.8-1.2,7.1
			c-0.1,0.6,0.2,0.9,0.5,1.3c0.5,0.7,0.3,1.3-0.5,1.5c-2.3,0.4-4.6,0.8-6.9,1.2c-0.6,0.1-1.3,0.2-2.1,0.4c1,1.6,2.2,2.8,3.5,3.7
			c1.1,0.8,1.5,1.7,1.4,3c-0.1,1.4-0.2,2.8-0.2,4.2c0,0.4,0.2,0.7,0.3,1.2c0.7-0.4,1.2-0.6,1.7-0.9c1.8-1,3.6-2.1,5.4-3.2
			c1.2-0.7,2.4-1.1,3.8-1c2.3,0,4.7,0.2,6.9,0.8c0.5,0.1,1.1,0.4,1.7-0.1c-1.3-2.4-2.7-4.8-3.9-7.1c0.5-1.3,1.5-2,2.2-2.9
			c0.7-0.9,1.5-1.8,2.2-2.7c0.7-0.9,1.6-1.6,2-3c-0.6,0-1.1-0.1-1.6,0c-1.6,0.2-3.3,0.5-4.9,0.8c-1.3,0.2-2.6,0.5-3.9,0.7
			c-1.7,0.3-2.9-0.3-3.7-1.9C1777.3,78.3,1776.5,77.2,1775.7,75.8z"/>
		<path fill-rule="evenodd" fill="#37A0F4" d="M1784.7,84.8c-0.7,1.1-1.4,2-1.9,2.9c-0.5,0.9-0.6,1.9,0.2,2.8
			c0.2,0.3,0.4,0.6,0.4,0.9c0,0.2,0,0.5-0.2,0.6c-0.1,0.1-0.5,0.2-0.7,0.1c-0.5-0.3-1-0.6-1.5-0.9c-2,0.3-3.8,1.3-5.7,1.9
			c-0.8,0.2-1.6,0.4-2.4,0.5c-0.1,0-0.4-0.3-0.5-0.5c0-0.2,0.1-0.5,0.2-0.6c0.2-0.2,0.6-0.3,0.9-0.4c2.4-0.9,4.8-1.8,7.2-2.6
			c0.6-1.3,1.1-2.6,1.7-3.9C1783,84.7,1783.7,84.5,1784.7,84.8z"/>
	</g>
	<g>
		<path fill-rule="evenodd" fill="#37A0F4" d="M531,208c-1.1-1.3-2-2.3-2.8-3.2c-0.6-0.7-1.1-1.3-1.6-2c-0.4-0.5-0.1-1.1,0.5-1.2
			c0.7-0.1,1.4-0.2,2.2-0.2c1.6-0.1,3.2-0.3,4.8-0.9c0.2-1.1,0.3-2.2,0.5-3.3c0.2-1.4,0.5-2.9,0.8-4.3c0.1-0.6,0.3-1.4,1-1.6
			c0.8-0.2,1.3,0.5,1.8,1.1c0.4,0.6,0.8,1.2,1.2,1.8c0.3,0.5,0.6,0.9,0.8,1.4c0.4,0.8,1,1,1.8,0.8c0.3-0.1,0.6-0.1,1-0.2
			c2.9-0.5,5.7-1,8.6-1.5c0.3,0,0.5,0,0.8,0c0.3,0,0.6,0.5,0.5,0.8c-0.2,0.4-0.4,0.7-0.6,1c-1.5,1.9-3.1,3.8-4.6,5.8
			c-0.3,0.4-0.6,0.7-0.9,1.2c0.8,1.4,1.6,2.8,2.3,4.1c0.4,0.8,0.8,1.5,1.2,2.3c0.3,0.6-0.1,1.1-0.7,1.1c-0.8,0-1.6-0.1-2.4-0.3
			c-1.9-0.5-3.9-0.7-5.9-0.6c-0.8,0-1.4,0.1-2.1,0.5c-1.4,0.8-2.7,1.6-4.1,2.4c-0.9,0.5-1.9,1-2.8,1.4c-0.4,0.2-1-0.1-1-0.6
			c-0.1-1.1,0-2.1,0-3.2C531,209.6,531,208.6,531,208z M537.1,193.2c-0.3,0.3-0.4,0.4-0.4,0.5c-0.3,1.9-0.6,3.8-0.9,5.7
			c-0.1,0.4,0.2,0.7,0.4,1.1c0.4,0.5,0.2,1.1-0.4,1.2c-1.8,0.3-3.7,0.6-5.5,1c-0.5,0.1-1,0.2-1.7,0.3c0.8,1.3,1.8,2.2,2.8,3
			c0.8,0.6,1.2,1.4,1.1,2.4c-0.1,1.1-0.1,2.2-0.2,3.4c0,0.3,0.2,0.6,0.3,0.9c0.5-0.3,1-0.5,1.4-0.7c1.4-0.8,2.9-1.7,4.3-2.5
			c0.9-0.6,1.9-0.8,3-0.8c1.9,0,3.7,0.1,5.5,0.6c0.4,0.1,0.9,0.3,1.3-0.1c-1.1-1.9-2.1-3.9-3.1-5.7c0.4-1.1,1.2-1.6,1.8-2.3
			c0.6-0.7,1.2-1.4,1.8-2.1c0.5-0.7,1.3-1.3,1.6-2.4c-0.5,0-0.9,0-1.3,0c-1.3,0.2-2.6,0.4-3.9,0.6c-1,0.2-2.1,0.4-3.1,0.6
			c-1.3,0.2-2.3-0.2-2.9-1.5C538.4,195.2,537.8,194.3,537.1,193.2z"/>
		<path fill-rule="evenodd" fill="#37A0F4" d="M544.3,200.3c-0.6,0.9-1.1,1.6-1.5,2.3c-0.4,0.7-0.4,1.5,0.1,2.2
			c0.2,0.2,0.3,0.5,0.3,0.7c0,0.2,0,0.4-0.2,0.5c-0.1,0.1-0.4,0.2-0.5,0.1c-0.4-0.2-0.8-0.5-1.2-0.7c-1.6,0.2-3,1-4.5,1.5
			c-0.6,0.2-1.3,0.3-1.9,0.4c-0.1,0-0.3-0.2-0.4-0.4c0-0.2,0.1-0.4,0.2-0.5c0.2-0.2,0.5-0.2,0.7-0.3c1.9-0.7,3.8-1.4,5.7-2.1
			c0.5-1.1,0.9-2.1,1.4-3.1C542.9,200.3,543.5,200.1,544.3,200.3z"/>
	</g>
	<path fill-rule="evenodd" fill="#37A0F4" d="M1915.7,157.1c-1.5-3.5-2.7-6.1-3.8-8.6c-0.7-1.8-1.5-3.5-2.1-5.3
		c-0.4-1.3,0.5-2.4,1.9-2.2c1.6,0.2,3.2,0.5,4.7,1c3.4,0.9,6.9,1.3,10.7,1.3c1.1-2.2,2.1-4.5,3.3-6.7c1.5-2.9,3-5.7,4.6-8.6
		c0.7-1.3,1.5-2.8,3.2-2.7c1.9,0.2,2.5,1.9,3,3.5c0.5,1.5,0.9,3.1,1.3,4.7c0.3,1.1,0.6,2.3,0.8,3.4c0.3,2,1.5,2.7,3.3,2.9
		c0.7,0.1,1.5,0.1,2.2,0.2c6.4,0.8,12.8,1.7,19.2,2.5c0.6,0.1,1.1,0.3,1.6,0.6c0.6,0.3,0.8,1.5,0.4,2c-0.6,0.6-1.2,1.3-2,1.7
		c-4.5,3.1-9,6.1-13.5,9.1c-0.8,0.6-1.7,1.1-2.7,1.9c0.7,3.4,1.5,6.9,2.2,10.3c0.4,1.9,0.7,3.7,0.9,5.6c0.2,1.4-0.9,2.3-2.3,1.8
		c-1.6-0.6-3.3-1.3-4.8-2.2c-3.8-2.3-7.8-4-12.1-5.2c-1.6-0.5-3.1-0.6-4.8-0.2c-3.4,0.8-6.9,1.6-10.3,2.4c-2.3,0.5-4.6,0.8-6.9,1.2
		c-1.1,0.1-2-0.9-1.7-2c0.6-2.3,1.3-4.5,2-6.8C1914.6,160.5,1915.3,158.4,1915.7,157.1z M1938.3,129.9c-0.9,0.5-1.2,0.6-1.3,0.8
		c-1.9,3.8-3.8,7.6-5.7,11.4c-0.4,0.9-0.2,1.6,0.2,2.5c0.5,1.4-0.2,2.4-1.6,2.2c-4.1-0.5-8.1-1-12.2-1.6c-1.1-0.1-2.2-0.3-3.7-0.5
		c0.8,3.3,2.3,5.8,4,8.2c1.4,1.9,1.6,3.7,0.7,5.7c-0.9,2.3-1.8,4.7-2.6,7c-0.2,0.6,0,1.3,0,2.2c1.3-0.2,2.3-0.4,3.3-0.6
		c3.6-0.8,7.2-1.6,10.7-2.5c2.3-0.6,4.6-0.5,6.9,0.2c3.9,1.3,7.8,2.7,11.2,5c0.8,0.5,1.6,1.2,2.9,0.6c-1-4.8-1.9-9.5-2.9-14.1
		c1.6-2,3.6-2.6,5.3-3.7c1.7-1.2,3.5-2.2,5.2-3.4c1.6-1.2,3.6-1.9,4.9-4c-1-0.3-1.8-0.7-2.7-0.8c-2.9-0.5-5.8-0.8-8.7-1.2
		c-2.3-0.3-4.7-0.5-7-0.9c-3-0.4-4.7-2-5.2-5.1C1939.8,135,1939,132.6,1938.3,129.9z"/>
	<g>
		<path fill-rule="evenodd" fill="#37A0F4" d="M1722.5,496.2c0.8-1.5,1.7-2.9,2.4-4.3c2-4.9,3.9-9.8,5.9-14.7
			c0.5-1.2,0.6-2.7,2.9-2.5c3.4,5.5,5.5,11.7,7.7,18c2.2,0,4.2,0.1,6.2,0.1c3.7,0.1,7.3,0.6,10.9,1.5c4.9,1.3,9.9,1.4,14.9,1.6
			c1.5,0,2.9,0.1,4.4,0.3c1.1,0.1,1.5,1.5,0.7,2.4c-0.5,0.5-1.1,1-1.7,1.4c-3.5,2.7-6.9,5.5-10.5,8.1c-2.7,2-5.6,3.8-8.4,5.6
			c-0.7,0.5-1.4,1-2.4,1.6c0.4,0.8,0.7,1.6,1.2,2.3c2.1,3.5,4.2,7.1,6.5,10.5c2.3,3.6,4.8,7.1,7.2,10.6c0.9,1.3,2.4,2.6,1.2,4.3
			c-1.1,1.4-2.7,0.3-4.1,0c-2-0.3-4-0.9-6-1.2c-6.3-1-12.5-2.1-18.4-4.4c-3.3-1.3-6.5-0.9-9.8,0.6c-8.8,4.1-17.4,8.6-25.9,13.3
			c-1,0.6-2,1.2-3.1,1.6c-0.9,0.4-1.8-0.4-1.7-1.4c0.1-0.7,0.1-1.5,0.4-2.2c1.5-4.4,3-8.9,4.7-13.3c1.3-3.4,2.9-6.7,4.4-10.1
			c0.4-1.1,0.7-2.2,1-3.4c0.3-1.1,0-2-0.7-2.9c-3.3-4-6.5-8-9.8-11.9c-2.4-2.9-5.5-4.8-8.4-7.1c-1.5-1.2-2.8-2.6-4.1-3.9
			c-0.6-0.7-0.9-1.6-0.4-2.4c0.5-0.9,1.3-1.1,2.2-1c2.6,0.2,5.3,0.6,7.9,0.8c2.6,0.2,5.3,0.4,7.9,0.7c3.7,0.3,7.3,0.7,11,1.1
			C1719.7,495.8,1721,496,1722.5,496.2z M1772.3,499.2c-1.4-0.2-1.8-0.4-2.3-0.4c-5.2-0.1-10.2-0.9-15.2-2.1c-4-1-8.1-1.1-12.3-0.6
			c-3.4,0.4-3.5,0.3-4.6-3.1c-1.2-3.6-2.6-7.2-4-10.7c-0.2-0.5-0.6-0.9-1.1-1.6c-0.5,0.8-0.9,1.2-1.1,1.7c-1.9,4.3-3.7,8.6-5.5,13
			c-0.2,0.5-0.2,1.1-0.3,1.7c-0.2,1.7-0.5,2.2-2,2.1c-2,0-4.1-0.2-6.1-0.4c-2.8-0.3-5.5-0.7-8.3-1c-3.9-0.4-7.9-0.6-11.9-0.9
			c-0.8-0.1-1.6,0-2.7,0c0.5,1.6,1.6,2.1,2.6,2.7c3.6,2.4,6.7,5.3,9.3,8.7c2.4,3,4.7,6,7.2,8.9c2,2.3,2.4,4.7,1.4,7.4
			c-0.8,2.4-1.8,4.7-2.7,7c-1.7,3.9-3.4,7.8-5.1,11.7c-0.7,1.6-1.2,3.2-1.4,5.4c1-0.4,1.7-0.7,2.3-1c2.7-1.5,5.3-3.1,8-4.6
			c5.5-3.1,11.1-6,16.9-8.5c2.6-1.1,5.1-1.2,7.8-0.6c2,0.5,4,1.1,5.9,1.8c4.1,1.4,14.3,3.3,18.8,3.4c0-0.3,0-0.6-0.1-0.8
			c-4.3-6.8-8.6-13.7-12.9-20.5c-1.6-2.5-1.5-3.3,1-5c2.5-1.8,5.1-3.4,7.8-5.1C1765.4,505.2,1768.4,502.2,1772.3,499.2z"/>
		<path fill-rule="evenodd" fill="#37A0F4" d="M1723,517.9c1.7-0.7,2.4,0.1,2.6,1.2c0.5,2.1-0.1,4.1-0.8,6c-0.5,1.2-1.1,2.4-1.6,3.6
			c0.8,1,1.4,0.3,1.9-0.1c3.7-3,8.2-4.5,12.5-6.4c1.3-0.6,2.5-0.6,3.8,0.1c1.3,0.7,2.6,1.3,4,1.9c0.5,0.2,1.1,0.2,1.6,0.3
			c0.4-1.8-0.4-3.1-1.1-4.3c-1.3-2-2.6-3.9-4-5.8c-0.9-1.3-0.8-2.1,0.3-3.1c0.5-0.5,1.1-0.9,1.7-1.4c3.8-2.6,7.5-5.1,11.3-7.6
			c0.2-0.2,0.5-0.4,0.8-0.4c0.4,0,1,0,1.2,0.2c0.2,0.2,0.2,0.9,0,1.1c-1.9,1.6-3.7,3.3-5.7,4.8c-1.6,1.2-3.5,2.2-5.2,3.3
			c-0.6,0.4-1.1,0.9-1.9,1.4c0.8,1.5,1.5,2.9,2.2,4.3c1,1.8,2,3.7,1.9,5.8c0,1,0.6,1.5,1.2,2.2c0.8,0.9,0.2,2.2-1,2.2
			c-1.3,0-2.6-0.2-3.8-0.6c-1.4-0.5-2.7-1.2-4-1.9c-1.1-0.6-2.2-0.6-3.4-0.1c-3.7,1.7-7.6,3.1-10.9,5.7c-2.3,1.8-4.8,3.3-7.3,4.9
			c-0.3,0.2-0.9,0.1-1.2-0.1c-0.3-0.2-0.5-0.7-0.5-1.1c0-0.4,0.3-0.8,0.5-1.2c0.3-0.7,0.7-1.3,1-2
			C1721,526.7,1723.8,522.8,1723,517.9z"/>
	</g>
	<g>
		<path fill-rule="evenodd" fill="#37A0F4" d="M454.3,367.3c0.4-0.9,0.8-1.7,1.1-2.5c0.8-2.8,1.6-5.7,2.4-8.5
			c0.2-0.7,0.2-1.5,1.4-1.6c2.2,2.8,3.7,6.2,5.3,9.5c1.2-0.1,2.3-0.2,3.4-0.3c2-0.2,4.1-0.1,6.1,0.2c2.8,0.4,5.5,0.2,8.3,0
			c0.8-0.1,1.6-0.1,2.4-0.1c0.6,0,0.9,0.7,0.5,1.3c-0.2,0.3-0.5,0.6-0.8,0.9c-1.8,1.7-3.5,3.4-5.3,5.1c-1.4,1.3-2.9,2.4-4.3,3.6
			c-0.4,0.3-0.7,0.6-1.2,1c0.3,0.4,0.5,0.8,0.8,1.2c1.4,1.8,2.8,3.7,4.2,5.4c1.5,1.8,3,3.6,4.6,5.4c0.6,0.7,1.5,1.3,0.9,2.3
			c-0.5,0.8-1.5,0.3-2.3,0.3c-1.1-0.1-2.3-0.3-3.4-0.3c-3.5-0.2-7-0.4-10.4-1.4c-1.9-0.5-3.6-0.1-5.4,0.9c-4.6,2.8-9.1,5.7-13.5,8.8
			c-0.5,0.4-1.1,0.8-1.6,1.1c-0.5,0.3-1-0.1-1-0.7c0-0.4,0-0.8,0.1-1.2c0.6-2.5,1.2-5.1,1.8-7.6c0.5-2,1.2-3.9,1.8-5.8
			c0.2-0.6,0.3-1.3,0.4-1.9c0.1-0.6-0.1-1.1-0.6-1.5c-2-2-4-4-6.1-6c-1.5-1.5-3.3-2.4-5-3.4c-0.9-0.6-1.7-1.2-2.5-1.9
			c-0.4-0.3-0.6-0.8-0.4-1.3c0.2-0.5,0.7-0.7,1.2-0.7c1.5,0,2.9,0,4.4,0c1.5,0,2.9-0.1,4.4-0.1c2,0,4.1,0,6.1,0
			C452.7,367.3,453.4,367.3,454.3,367.3z M481.9,366.1c-0.8-0.1-1-0.1-1.3-0.1c-2.9,0.2-5.7,0.1-8.5-0.3c-2.3-0.3-4.6-0.2-6.8,0.4
			c-1.8,0.4-1.9,0.3-2.7-1.4c-0.9-1.9-1.9-3.8-2.8-5.7c-0.1-0.3-0.4-0.5-0.7-0.8c-0.2,0.4-0.4,0.7-0.5,1c-0.8,2.5-1.5,5-2.3,7.5
			c-0.1,0.3-0.1,0.6-0.1,0.9c0,0.9-0.2,1.2-1,1.3c-1.1,0.1-2.3,0.1-3.4,0.1c-1.5,0-3.1-0.1-4.6-0.1c-2.2,0-4.4,0.1-6.6,0.2
			c-0.5,0-0.9,0.1-1.5,0.1c0.4,0.8,1,1,1.6,1.3c2.1,1.1,4,2.5,5.6,4.3c1.5,1.5,2.9,3.1,4.5,4.5c1.2,1.1,1.6,2.4,1.2,4
			c-0.3,1.3-0.7,2.7-1.1,4c-0.7,2.3-1.4,4.5-2.1,6.8c-0.3,0.9-0.5,1.9-0.4,3.1c0.5-0.3,0.9-0.5,1.2-0.7c1.4-1,2.8-2,4.2-3
			c2.9-2,5.8-4,8.9-5.7c1.3-0.7,2.8-1,4.3-0.8c1.1,0.1,2.3,0.4,3.4,0.6c2.3,0.6,8.1,1,10.6,0.8c0-0.2,0-0.3-0.1-0.5
			c-2.8-3.5-5.5-7.1-8.3-10.6c-1-1.3-1-1.7,0.3-2.8c1.3-1.1,2.6-2.2,4-3.2C478.5,369.9,479.9,368,481.9,366.1z"/>
		<path fill-rule="evenodd" fill="#37A0F4" d="M455.8,379.3c0.9-0.5,1.3-0.1,1.5,0.5c0.4,1.1,0.2,2.3-0.1,3.4
			c-0.2,0.7-0.5,1.4-0.7,2.1c0.5,0.5,0.8,0.1,1-0.2c1.9-1.9,4.3-3,6.6-4.3c0.7-0.4,1.4-0.5,2.1-0.2c0.8,0.3,1.5,0.6,2.3,0.8
			c0.3,0.1,0.6,0,0.9,0.1c0.1-1-0.4-1.7-0.9-2.3c-0.8-1-1.7-2-2.5-3c-0.6-0.6-0.6-1.1,0-1.7c0.3-0.3,0.6-0.6,0.9-0.8
			c1.9-1.6,3.9-3.3,5.8-4.9c0.1-0.1,0.3-0.2,0.4-0.3c0.2,0,0.5-0.1,0.6,0c0.1,0.1,0.1,0.5,0,0.6c-0.9,1-1.9,2-2.9,3
			c-0.8,0.8-1.8,1.4-2.7,2.1c-0.3,0.2-0.6,0.5-1,0.9c0.5,0.8,1,1.5,1.5,2.3c0.6,1,1.3,1.9,1.4,3.1c0,0.6,0.4,0.8,0.8,1.1
			c0.5,0.4,0.2,1.2-0.4,1.3c-0.7,0.1-1.5,0-2.2-0.1c-0.8-0.2-1.5-0.5-2.3-0.8c-0.7-0.3-1.3-0.2-1.9,0.1c-2,1.2-4,2.1-5.7,3.8
			c-1.2,1.1-2.5,2.1-3.7,3.1c-0.1,0.1-0.5,0.1-0.7,0c-0.2-0.1-0.3-0.4-0.3-0.6c0-0.2,0.1-0.5,0.2-0.7c0.1-0.4,0.3-0.8,0.4-1.1
			C455.2,384.3,456.5,382,455.8,379.3z"/>
	</g>
	<g>
		<path fill-rule="evenodd" fill="#37A0F4" d="M1907.6,454c0.4-0.9,0.8-1.7,1.1-2.5c0.8-2.8,1.6-5.7,2.4-8.5
			c0.2-0.7,0.2-1.5,1.4-1.6c2.2,2.8,3.7,6.2,5.3,9.5c1.2-0.1,2.3-0.2,3.4-0.3c2-0.2,4.1-0.1,6.1,0.2c2.8,0.4,5.5,0.2,8.3,0
			c0.8-0.1,1.6-0.1,2.4-0.1c0.6,0,0.9,0.7,0.5,1.3c-0.2,0.3-0.5,0.6-0.8,0.9c-1.8,1.7-3.5,3.4-5.3,5.1c-1.4,1.3-2.9,2.4-4.3,3.6
			c-0.4,0.3-0.7,0.6-1.2,1c0.3,0.4,0.5,0.8,0.8,1.2c1.4,1.8,2.8,3.7,4.2,5.4c1.5,1.8,3,3.6,4.6,5.4c0.6,0.7,1.5,1.3,0.9,2.3
			c-0.5,0.8-1.5,0.3-2.3,0.3c-1.1-0.1-2.3-0.3-3.4-0.3c-3.5-0.2-7-0.4-10.4-1.4c-1.9-0.5-3.6-0.1-5.4,0.9c-4.6,2.8-9.1,5.7-13.5,8.8
			c-0.5,0.4-1.1,0.8-1.6,1.1c-0.5,0.3-1-0.1-1-0.7c0-0.4,0-0.8,0.1-1.2c0.6-2.5,1.2-5.1,1.8-7.6c0.5-2,1.2-3.9,1.8-5.8
			c0.2-0.6,0.3-1.3,0.4-1.9c0.1-0.6-0.1-1.1-0.6-1.5c-2-2-4-4-6.1-6c-1.5-1.5-3.3-2.4-5-3.4c-0.9-0.6-1.7-1.2-2.5-1.9
			c-0.4-0.3-0.6-0.8-0.4-1.3c0.2-0.5,0.7-0.7,1.2-0.7c1.5,0,2.9,0,4.4,0c1.5,0,2.9-0.1,4.4-0.1c2,0,4.1,0,6.1,0
			C1906.1,454,1906.8,454,1907.6,454z M1935.3,452.8c-0.8-0.1-1-0.1-1.3-0.1c-2.9,0.2-5.7,0.1-8.5-0.3c-2.3-0.3-4.6-0.2-6.8,0.4
			c-1.8,0.4-1.9,0.3-2.7-1.4c-0.9-1.9-1.9-3.8-2.8-5.7c-0.1-0.3-0.4-0.5-0.7-0.8c-0.2,0.4-0.4,0.7-0.5,1c-0.8,2.5-1.5,5-2.3,7.5
			c-0.1,0.3-0.1,0.6-0.1,0.9c0,0.9-0.2,1.2-1,1.3c-1.1,0.1-2.3,0.1-3.4,0.1c-1.5,0-3.1-0.1-4.6-0.1c-2.2,0-4.4,0.1-6.6,0.2
			c-0.5,0-0.9,0.1-1.5,0.1c0.4,0.8,1,1,1.6,1.3c2.1,1.1,4,2.5,5.6,4.3c1.5,1.5,2.9,3.1,4.5,4.5c1.2,1.1,1.6,2.4,1.2,4
			c-0.3,1.3-0.7,2.7-1.1,4c-0.7,2.3-1.4,4.5-2.1,6.8c-0.3,0.9-0.5,1.9-0.4,3.1c0.5-0.3,0.9-0.5,1.2-0.7c1.4-1,2.8-2,4.2-3
			c2.9-2,5.8-4,8.9-5.7c1.3-0.7,2.8-1,4.3-0.8c1.1,0.1,2.3,0.4,3.4,0.6c2.3,0.6,8.1,1,10.6,0.8c0-0.2,0-0.3-0.1-0.5
			c-2.8-3.5-5.5-7.1-8.3-10.6c-1-1.3-1-1.7,0.3-2.8c1.3-1.1,2.6-2.2,4-3.2C1931.8,456.5,1933.3,454.7,1935.3,452.8z"/>
		<path fill-rule="evenodd" fill="#37A0F4" d="M1909.2,466c0.9-0.5,1.3-0.1,1.5,0.5c0.4,1.1,0.2,2.3-0.1,3.4
			c-0.2,0.7-0.5,1.4-0.7,2.1c0.5,0.5,0.8,0.1,1-0.2c1.9-1.9,4.3-3,6.6-4.3c0.7-0.4,1.4-0.5,2.1-0.2c0.8,0.3,1.5,0.6,2.3,0.8
			c0.3,0.1,0.6,0,0.9,0.1c0.1-1-0.4-1.7-0.9-2.3c-0.8-1-1.7-2-2.5-3c-0.6-0.6-0.6-1.1,0-1.7c0.3-0.3,0.6-0.6,0.9-0.8
			c1.9-1.6,3.9-3.3,5.8-4.9c0.1-0.1,0.3-0.2,0.4-0.3c0.2,0,0.5-0.1,0.6,0c0.1,0.1,0.1,0.5,0,0.6c-0.9,1-1.9,2-2.9,3
			c-0.8,0.8-1.8,1.4-2.7,2.1c-0.3,0.2-0.6,0.5-1,0.9c0.5,0.8,1,1.5,1.5,2.3c0.6,1,1.3,1.9,1.4,3.1c0,0.6,0.4,0.8,0.8,1.1
			c0.5,0.4,0.2,1.2-0.4,1.3c-0.7,0.1-1.5,0-2.2-0.1c-0.8-0.2-1.5-0.5-2.3-0.8c-0.7-0.3-1.3-0.2-1.9,0.1c-2,1.2-4,2.1-5.7,3.8
			c-1.2,1.1-2.5,2.1-3.7,3.1c-0.1,0.1-0.5,0.1-0.7,0c-0.2-0.1-0.3-0.4-0.3-0.6c0-0.2,0.1-0.5,0.2-0.7c0.1-0.4,0.3-0.8,0.4-1.1
			C1908.5,471,1909.9,468.6,1909.2,466z"/>
	</g>
	<g>
		<path fill="#37A0F4" d="M1865.4,302.4c-4.8-26.2-10.2-52.3-15.4-78.8c-1.1-0.1-2.5-0.2-3.9-0.5c-10.8-2.2-23.1-2-32.1-7.3
			c-9.2-5.4-17-5.6-26.9-5.7c-13.3-0.1-27.5-2.5-39.6-7.8c-15.1-6.6-35.3-5.3-45.7,7.9c-10.4,13.4-22.2,24.5-38.4,30.7
			c-4.6,1.8-8.7,5.7-12.3,9.3c-9.5,9.7-18.9,19.4-27.6,29.8c-2.5,2.9-4.3,8.5-3.3,11.9c5.6,19.2,12.7,38,18.3,57.1
			c2.6,8.7,7.2,13.4,15.8,16.7c36.1,13.5,72.1,27.5,107.8,41.9c5.9,2.4,8.8,1.5,13.1-3c29.1-30.4,58.6-60.4,87.6-90.8
			C1865.1,311.5,1866.1,306,1865.4,302.4z M1798.8,214c4,0.3,9.4,3.7,11,7.1c1.1,2.3-2.4,8.1-5.3,10.8
			c-12.1,11.2-28.9,11.4-40.8,0.4C1772.9,220.2,1783.9,212.8,1798.8,214z M1706.9,212c7-4.9,15.3-7.9,24-12.2
			c5.6,3.4,10.1,6.1,14.5,8.7c-3.1,4.6-5.4,11.8-9.5,13.2c-8.4,2.7-17.9,3.6-26.7,2.5C1702.1,223.2,1700.9,216.3,1706.9,212z
			 M1659.2,249.3c9.2-4.1,19.2-6.4,29.1-8.3c2.4-0.4,6.8,3.3,8,6.1c0.9,2.1-1.2,7.1-3.3,8.4c-8.6,5.2-17.7,9.5-26.9,14.3
			c-6.2-3.5-10.4-5.8-14.6-8.2C1654,257.5,1655.5,251,1659.2,249.3z M1644.9,267.4c2.4,2,4.4,3.8,6.5,5.6c0.7-0.9,1.4-2.7,2-2.7
			c22.2,2.4,27.4,1,46-13.1c3.3,9.6,3.3,9.6-7.3,21.9c11.5-3.3,12.2-12.2,11.4-22c-1-11.5-4.3-21.1-20.6-21.6
			c6-5.1,10.4-8.7,14.5-12.2c3,4.3,5.5,8,8,11.7c-0.6-2-1.3-4-2.4-7.6c16.5,6.6,30.5,3.2,44.9-7.8c0,5.2,0,9,0,12.7
			c1.3-6.7,2.6-13.3,4.1-21.3c6.4,1,13.3,2.2,20.1,3.3c-4.4,6.7-10.6,12.6-11.9,19.4c-1,5.4,3.9,12,6.2,18
			c-0.7-3.2-1.4-6.4-2.4-10.9c18.4,8.4,33.9,3.7,50.3-8.2c-1.6,5.4-3.1,10.9-4.7,16.3c3-8,6-16,9.4-25.1c5.8,0.9,13,3,24.9,4.8
			c-0.4,0.4-3.5,3.1-4.9,4.6c-4.7,4.4-11.2,10.7-18.7,18.1c-4.7,4.6-9.3,9-13.8,13.5c-0.8,0.8-1.6,1.8-2.3,2.7
			c-24,24.3-50.6,51.4-57.7,56.6c-14.9-9.4-115.1-37.2-120.5-39.8C1632.4,278.6,1638.5,273.1,1644.9,267.4z M1688.5,373.6
			c-11.4-4.5-23-8.3-34.2-13.2c-3.9-1.7-8.5-5.4-9.8-9.2c-7.1-20.6-13.3-41.5-20.1-63c5.3,1.2,105.4,36.5,121.7,37.8
			c3.7,8.4,13.8,57.2,18.7,73.1c0.2,1.6,0.4,3.2,0.6,4.9C1739.3,393.7,1713.9,383.6,1688.5,373.6z M1845.8,325.3
			c-26.4,24.3-50.4,51.3-75.9,77.8c-1.7-3.9-3.2-7.4-4.7-10.7c-4.2-22.2-14.3-68.5-12.7-70.5c2.2-2.7,25.4-26.3,48.2-49.2
			c-0.6,0.9-1.1,1.8-1.7,2.6c6-6.3,11.9-12.6,17.9-18.9c12.5-12.5,24.9-23.6,29.3-27.9c0.8,0.4,6.8,38.6,11.7,56.5
			C1862.3,301.8,1859.1,313,1845.8,325.3z"/>
		<path fill="#37A0F4" d="M1764.2,276.4c1.1,0.3,2.1,0.6,3.2,1c-1.1,4.6-1.5,9.6-3.4,13.8c-1.4,3.1-4.7,5.4-7.2,8.1
			c14.7-8.2,17.1-14.3,11.1-34.6c-3.3-11.1-13.9-12.2-23-10.8c-8.9,1.3-18.2,4.2-25.7,8.9c-15.6,9.9-16.1,22.9-2.9,36.8
			c-1-2.7-1.9-5.4-3.3-9.2C1733,294.7,1750.5,292.1,1764.2,276.4z M1728.9,287.6c-2.2-0.1-4.7,0.3-6.6-0.5c-3.6-1.4-8.7-2.9-9.7-5.7
			c-0.9-2.7,1.7-7.7,4.1-10.3c9.7-10.5,22.2-14.7,36.3-12.4c3.6,0.6,8.6,3.2,9.7,6.1c1,2.7-1.3,8.6-4,10.3
			c-9,5.8-18.8,10.4-28.3,15.5C1729.9,289.5,1729.4,288.5,1728.9,287.6z"/>
	</g>
	<g>
		<path fill="#37A0F4" d="M380.1,290c-17-8.9-33.2-19.3-49.5-29.4c-15.3-9.5-29.8-20.1-45.4-29c-22.8-13-48-22.5-69.1-37.8
			c-23.4-17.1-62.5-22.7-82.8-5.2c-26,22.5-55.8,33.3-90,34.8c-8.3,0.4-19.4,3.7-24,9.7c-19.6,25.3-50.2,25.4-73.8,36.5
			c0.5,9,1.6,18.5,1.5,27.9c-0.2,40-1.1,80-0.6,120c0.1,6.9,3.5,16.6,8.7,20.3c64,45.4,128.5,90.1,193.3,134.4
			c5,3.5,15.1,5.9,19.3,3.3c65-40.3,129.6-81.1,193.6-123c7.2-4.7,12.8-16,14.2-25c6.1-38,9.9-76.5,15.6-114.6
			C393,301.6,390.5,295.4,380.1,290z M318.7,257.5c6.8,8.5,5.8,16-4.2,19.5c-11.4,4-23.5,5.9-36.5,9c-12.2-5.5-24.5-9.6-35.4-16.2
			c-14-8.4-9.9-17.9,1.5-25.4C262,232.8,305.3,240.7,318.7,257.5z M170.9,186.1c7.4,0.6,15.6,1.7,21.7,5.4
			c7.4,4.5,13,12.1,19.4,18.3c-7.3,5.5-13.9,12.5-22,16.2c-6.5,2.9-14.8,1.9-20.8,2.5c-16.5-2.7-33-4.1-36.5-22.7
			C130.7,195,151.2,184.6,170.9,186.1z M19.2,249.7c2.8-7.4,12.3-13,20-17.5c4.2-2.5,10.7-1.1,21.4-1.8c8.9,3.5,22.6,7.5,35,14.2
			c13.7,7.4,12.2,16.7-0.9,24.3c-20.3,11.8-41,9.8-60.5-0.6C27.3,264.7,17.7,253.6,19.2,249.7z M159.9,566.9
			c-5.9-2.7-9.7-3.7-12.7-5.9C86.7,519,26.2,477.1-33.9,434.4c-5.6-4-10.5-13-10.7-19.8c-0.8-40.6,0.2-81.3-0.1-122
			c-0.1-10.1,179.6,104.8,209.9,121.7c1.4,3.4,3.5,6.8,3.3,10.2C165.9,471.2,163,517.8,159.9,566.9z M165.6,412.9
			C138.4,390.8-31.9,271.6-30.4,271c12.2-5.3,24.9-9.4,37.1-13.8c4.4,10.8,8,19.6,11.5,28.5c-0.8-4.5-1.6-9-2.9-16.5
			c32.5,17,63.1,25.6,97.5-3.6c-3.4,13.6-5.2,21-7,28.4c20.4-25.5,13.6-46.6-23.4-67.1c13.5-5.9,25.7-11.1,38.9-16.9
			c4.6,12.8,8.8,24.5,13,36.1c-0.6-6-1.3-11.9-2.1-19.7c28.1,12.6,55.4,15.5,86.3-4.5c-3.2,12.5-5.3,20.6-7.4,28.8
			c4.9-11.3,9.9-22.6,15.6-35.7c6.7,3.7,15.3,8.6,24.4,13.6c-28.1,22.7-33.9,51.1-15.6,73.3c-1.8-7.6-3.6-15.2-6.4-27.3
			c33.4,17.2,63.8,25.6,96.7,7.6c-0.5,7.7-0.8,13.5-1.2,19.3c2-4.1,4.6-8,6-12.2c1.2-3.8,1.1-8,1.9-15c13.6,7.5,26.1,13.6,37.5,21.3
			c2.6,1.8,2.3,8,3,12.6C343.5,321.6,179.7,407.9,165.6,412.9z M367.3,428.1c-0.9,6-5,13.4-9.9,16.6
			c-62.9,40.7-126.2,80.8-192.7,123.1c3.1-49.9,5.5-96.3,9.3-142.5c0.4-4.9,170.8-98.4,199.4-116.1c2.9,2.1,8.3,4.4,8.1,6.2
			C377.2,353,372.7,390.6,367.3,428.1z"/>
		<path fill="#37A0F4" d="M216.3,304.1c-24.7-19.7-52.8-26-83-13.9c-25.6,10.3-31.1,50.9-10.1,70.9c-2.1-8.1-4.2-16.3-7.9-30.2
			c35.4,24.6,67.6,27.8,105.5,10c-3.2,10.8-5.5,18.3-7.7,25.9C231.7,347.9,234,318.1,216.3,304.1z M211.5,334.2
			c-13.6,5.6-28.4,8.3-44.4,12.5c-13.5-6.5-27-11.4-38.9-19c-12.7-8.1-10.6-17.8,1.2-26.1c22.3-15.8,72.7-7.8,86.6,15
			C218.3,320.4,215,332.7,211.5,334.2z"/>
	</g>
</g>
</svg>
