<?xml version="1.0" encoding="utf-8"?>
<!-- Generator: Adobe Illustrator 19.2.1, SVG Export Plug-In . SVG Version: 6.00 Build 0)  -->
<svg version="1.2" baseProfile="tiny" xmlns="http://www.w3.org/2000/svg" xmlns:xlink="http://www.w3.org/1999/xlink" x="0px"
	 y="0px" width="32px" height="30px" viewBox="0 0 32 30" xml:space="preserve">
<g id="Layer_2">
</g>
<g id="Layer_3">
	<g>
		<path fill="#333333" d="M21.9,19.5l-1.4,1.4c-0.2,0.2-0.5,0.2-0.7,0L16,17l-3.8,3.8c-0.2,0.2-0.5,0.2-0.7,0l-1.3-1.3
			c-0.2-0.2-0.2-0.5,0-0.7L14,15l-3.8-3.9c-0.2-0.2-0.2-0.5,0-0.7l1.4-1.4C11.7,9,12,9,12.2,9.1L16,13l3.8-3.8C20,9,20.3,9,20.5,9.1
			l1.3,1.3c0.2,0.2,0.2,0.5,0,0.7L18,15l3.8,3.8C22,19,22,19.3,21.9,19.5z"/>
	</g>
</g>
</svg>
