<?xml version="1.0" encoding="utf-8"?>
<!-- Generator: Adobe Illustrator 19.2.1, SVG Export Plug-In . SVG Version: 6.00 Build 0)  -->
<svg version="1.2" baseProfile="tiny" xmlns="http://www.w3.org/2000/svg" xmlns:xlink="http://www.w3.org/1999/xlink" x="0px"
	 y="0px" width="1920px" height="600px" viewBox="0 0 1920 600" xml:space="preserve">
<g id="Layer_3" display="none">
	<linearGradient id="SVGID_1_" gradientUnits="userSpaceOnUse" x1="-40" y1="300" x2="1960" y2="300">
		<stop  offset="0" style="stop-color:#C7E4F7"/>
		<stop  offset="9.031880e-002" style="stop-color:#DDEDFA"/>
		<stop  offset="0.198" style="stop-color:#EEF6FC"/>
		<stop  offset="0.316" style="stop-color:#FAFCFE"/>
		<stop  offset="0.4631" style="stop-color:#FFFFFF"/>
		<stop  offset="0.7159" style="stop-color:#FBFDFF"/>
		<stop  offset="0.8232" style="stop-color:#F2F9FD"/>
		<stop  offset="0.9031" style="stop-color:#E5F2FB"/>
		<stop  offset="0.9688" style="stop-color:#D3E9F9"/>
		<stop  offset="1" style="stop-color:#C7E4F7"/>
	</linearGradient>
	<rect x="-40" display="inline" fill="url(#SVGID_1_)" stroke="#000000" stroke-miterlimit="10" width="2000" height="600"/>
</g>
<g id="Layer_1" display="none">
	<g display="inline">
		<path fill="#333333" d="M1201.8,181c1.1,0,2,0.9,2,2s-0.9,2-2,2H718.2c-1.1,0-2-0.9-2-2s0.9-2,2-2H1201.8 M1201.8,180H718.2
			c-1.7,0-3,1.3-3,3s1.3,3,3,3h483.7c1.7,0,3-1.3,3-3S1203.5,180,1201.8,180L1201.8,180z"/>
		<path fill="#FFFFFF" d="M710,174v18h500v-18H710z M1201.8,186H718.2c-1.7,0-3-1.3-3-3s1.3-3,3-3h483.7c1.7,0,3,1.3,3,3
			S1203.5,186,1201.8,186z"/>
	</g>
	<g display="inline">
		<path fill="#333333" d="M1201.8,231c1.1,0,2,0.9,2,2s-0.9,2-2,2H718.2c-1.1,0-2-0.9-2-2s0.9-2,2-2H1201.8 M1201.8,230H718.2
			c-1.7,0-3,1.3-3,3s1.3,3,3,3h483.7c1.7,0,3-1.3,3-3S1203.5,230,1201.8,230L1201.8,230z"/>
		<path fill="#FFFFFF" d="M710,224v18h500v-18H710z M1201.8,236H718.2c-1.7,0-3-1.3-3-3s1.3-3,3-3h483.7c1.7,0,3,1.3,3,3
			S1203.5,236,1201.8,236z"/>
	</g>
	<g display="inline">
		<path fill="#333333" d="M1201.8,281c1.1,0,2,0.9,2,2s-0.9,2-2,2H718.2c-1.1,0-2-0.9-2-2s0.9-2,2-2H1201.8 M1201.8,280H718.2
			c-1.7,0-3,1.3-3,3s1.3,3,3,3h483.7c1.7,0,3-1.3,3-3S1203.5,280,1201.8,280L1201.8,280z"/>
		<path fill="#FFFFFF" d="M710,274v18h500v-18H710z M1201.8,286H718.2c-1.7,0-3-1.3-3-3s1.3-3,3-3h483.7c1.7,0,3,1.3,3,3
			S1203.5,286,1201.8,286z"/>
	</g>
	<g display="inline">
		<path fill="#333333" d="M1201.8,342c1.1,0,2,0.9,2,2s-0.9,2-2,2H718.2c-1.1,0-2-0.9-2-2s0.9-2,2-2H1201.8 M1201.8,341H718.2
			c-1.7,0-3,1.3-3,3s1.3,3,3,3h483.7c1.7,0,3-1.3,3-3S1203.5,341,1201.8,341L1201.8,341z"/>
		<path fill="#FFFFFF" d="M710,335v18h500v-18H710z M1201.8,347H718.2c-1.7,0-3-1.3-3-3s1.3-3,3-3h483.7c1.7,0,3,1.3,3,3
			S1203.5,347,1201.8,347z"/>
	</g>
	<g display="inline">
		<path fill="#333333" d="M1201.8,402c1.1,0,2,0.9,2,2s-0.9,2-2,2H718.2c-1.1,0-2-0.9-2-2s0.9-2,2-2H1201.8 M1201.8,401H718.2
			c-1.7,0-3,1.3-3,3s1.3,3,3,3h483.7c1.7,0,3-1.3,3-3S1203.5,401,1201.8,401L1201.8,401z"/>
		<path fill="#FFFFFF" d="M710,395v18h500v-18H710z M1201.8,407H718.2c-1.7,0-3-1.3-3-3s1.3-3,3-3h483.7c1.7,0,3,1.3,3,3
			S1203.5,407,1201.8,407z"/>
	</g>
</g>
<g id="Layer_2">
	<g>
		<path fill="#D9EFF8" d="M356.6,208.4c-2.3-0.6-4.2,0.8-5.9,2.2c-1,0.7-1.8,1.6-2.6,2.6c0.6-5,2.2-9.7,6.8-8.9
			c1,0.2,1.8-1.3,0.7-1.8c-4.3-1.8-7.6,0.1-9.9,3.5c0.2-2.7,0.5-5.4,1.2-8.2c0.2-0.7-0.7-1.1-1.1-0.5c-3.9,5.9-4.2,13.6-3.6,20.5
			c0,0.4,0.2,0.7,0.3,0.9c0.1,2,0.5,3.8,1.2,5.2c0,0.1,0.1,0.1,0.1,0.2c-0.1,1.3-0.2,2.6-0.1,3.9c0,0.1,0,0.1,0,0.2
			c-0.3,0.1-0.5,0.2-0.6,0.5c-3.1,5.3-4.4,11.2-4.5,17.2c0,0.9,0.6,1.4,1.2,1.4c-3.1,2.9-5.1,7.5-4.3,11.8c0.4,2.1,3.4,1.9,4,0
			c0.8-2.7,1.3-5.5,2.7-8c1.3-2.4,3.3-4,5.5-5.5c0.3-0.2,0.4-0.8,0-1c-2.2-1-4.3-0.1-6.2,1.3c0.5-5.3,1.4-10.8,3.3-15.9
			c1.3,0.7,3.2,0.1,3.5-1.9c0.4-3.6,1-7.1,2.5-10.4c0.7-1.4,1.7-2.8,2.7-4.1c0.7-0.9,2.7-2.2,2.4-3.5c0.1,0.5,0.8,0.6,1.1,0.1
			C357.3,209.6,357.5,208.6,356.6,208.4z"/>
		<path fill="#D9EFF8" d="M350.8,183.3c1.8,1.1,4.4-1.2,3.1-3.1c-3.8-5.2-5.9-12.4-2.3-18.4c0.6-1-0.8-2.1-1.7-1.3
			C344.6,165.7,343.8,179.1,350.8,183.3z"/>
		<path fill="#D9EFF8" d="M360.2,179c-5-3-4.6-8.9-6-14c-0.2-0.6-1.1-0.5-1.1,0.1c-0.3,5.5-1.9,15.7,5.7,17.2
			C360.8,182.7,362,180.1,360.2,179z"/>
		<path fill="#D9EFF8" d="M340.2,299.5c-0.9-6-0.4-11.7,1.9-17.4c0.4-0.9-1.1-1.8-1.7-1c-3.9,4.8-4.6,11.5-4.6,17.5
			c0,5.9,1,14,4.8,18.8c1.7,2.1,5-0.2,4.3-2.5C343.4,309.7,341,305,340.2,299.5z"/>
		<path fill="#D9EFF8" d="M333.4,238.1c-2.5,21.1-5.2,42.1-6.5,63.4c-0.6,8.8-0.7,17.6-1.4,26.4c-0.4,5.3-1.4,10-2.9,14.8
			c-24-5.6-49.5-3.5-73.9-6.2c-12.5-1.4-25-2.6-37.5-3.5c-8.3-0.6-18.6-1.4-25.5,4.2c-0.8,0.7,0.2,2,1.1,1.5
			c7.4-4.5,18.8-2.2,26.9-1.2c12.7,1.6,25.5,2.8,38.2,4.5c22.8,3.1,46.3,1.1,68.7,6.6c-0.1,0.3-0.2,0.5-0.3,0.8
			c-0.8,2.3,2.4,4,4,2.3c0.5-0.5,1-1.1,1.4-1.8c3.5,1,5.2-3.9,2.5-5.6c1-3.5,1.4-7.4,1.9-10.7c1.1-8.6,1-17.4,1.3-26
			c0.8-23.2,2.2-46.4,3.2-69.5C334.5,237.4,333.5,237.4,333.4,238.1z"/>
		<path fill="#D9EFF8" d="M233.1,256.6c7.2,5.2,16.5,8.1,25.3,9.5c17.9,2.7,33.5-3.4,45.1-17.2c11.1-13.1,17.3-32.3,10-48.5
			c-1.1-2.4-4.2-0.5-3.9,1.6c2.1,15-1.6,30.1-11,42c-10.1,12.7-24,17.6-39.9,15.3c-13.5-2-25.3-7.5-32.1-19.7
			c-5.8-10.5-11.2-26.8-5.8-38.4c0.4-0.8-0.6-1.7-1.2-1c-9,10.2-3.7,29,1.2,39.8C223.6,246.5,227.3,252.3,233.1,256.6z"/>
		<path fill="#D9EFF8" d="M185.6,263.8c1.5-8,2.3-16,3.2-24.1c0.5-4.4,1-8.7,1.7-13.1c0.2-1.1,0.4-2.2,0.7-3.3
			c2.8-3.4,5.3-7.2,7.8-10.7c2.3-3.4,4.5-6.9,6.8-10.4c1-1.6,2.2-3.2,3.3-4.8c5-4.3,9.3-9.4,11.4-15.2c0.8-2.1-2.4-4.1-3.9-2.3
			c-2.8,3.4-5.6,6.6-8.5,9.7c-0.3,0.1-0.5,0.2-0.7,0.4c-1.3,1-2.4,2.3-3.5,3.7c-2.7,2.5-5.6,4.9-8.7,7.1c-7.8,5.7-16.5,10-25,14.5
			c-0.7,0.4-0.4,1.5,0.4,1.5c3.2,0,6.4-0.7,9.4-1.7c-8.5,9.7-7.1,25.4-6.9,37.4c0,1.9,0,3.9,0,5.8c-1.6,4.2-3.4,8.2-6.4,11.5
			c-0.6,0.7,0.3,1.5,1,1c2-1.7,3.7-3.6,5.1-5.7c-0.5,2.5-1,5.1-1.8,7.5c-1.9,5.5-4.5,10.7-8.2,15.2c-0.9,1.1,0.5,2.5,1.5,1.5
			c3.3-2.9,5.8-6.4,7.9-10.2c-0.5,8.4,0.1,17.6-2.5,25.6c-0.4,1.3,1.5,2,2.1,0.9c3.3-5.6,3.9-12,4.6-18.4c1-9.5,2.3-18.8,2.7-28.3
			c0.1-2.3,0-4.8-0.1-7.4c0.3-0.9,0.5-1.8,0.8-2.8c0.2-0.9-0.3-1.6-0.9-1.8c-0.4-9.9-0.4-20.5,5.4-27.5c1.7-2.1,0.2-4.8-1.7-5.2
			c4.9-1.9,9.5-4.7,13.8-7.5c-0.3,0.6-0.6,1.2-1,1.8c-1.1,1.9-2.3,3.8-3.5,5.7c-0.8-0.7-2.2-0.7-2.7,0.4c-1.2,2.2-1.9,4.7-2.4,7.4
			c-1.3,2-2.6,4-3.8,6.1c-0.8,1,0.6,2.6,1.8,1.6c0.4-0.3,0.8-0.7,1.2-1c-0.2,2.7-0.3,5.3-0.5,7.7c-0.8,9.1-1.1,18.2-2,27.3
			C183.4,264.7,185.4,264.9,185.6,263.8z"/>
		<path fill="#D9EFF8" d="M185.1,348.5c10.6,5.6,23.9,6.9,35.6,7.6c6.8,0.4,13.6,0.2,20.4-0.2c5.7-0.3,13.7,0.1,18.7-2.8
			c1.8-1,1.5-4-0.6-4.5c-5.1-1.2-11.3,0.7-16.5,1.2c-6.2,0.6-12.4,1.1-18.6,1.3c-13.3,0.4-25.6-1.1-38.5-3.9
			C184.9,347.1,184.4,348.1,185.1,348.5z"/>
		<path fill="#D9EFF8" d="M261,368.4c-0.6,0.7-1.2,1.4-1.8,2.1c-0.1,0-0.1,0-0.2,0c-3.3,0.8-6.4,2.4-9.7,3.2
			c-3.6,0.9-7.4,0.9-11.1,0.7c-7.7-0.4-15.2-2.5-22.7-4.2c-0.8-0.2-1.1,0.9-0.3,1.2c7.5,2.5,15.1,5.4,23,6.3
			c5,0.5,11.1,0.7,16.2-1.1c-0.9,1.3-1.8,2.6-2.7,3.9c-0.3-0.6-1-1-2-0.8c-18.1,4.6-37.5,4.5-52.8-7.8c-1.1-0.9-2.6,0.6-1.5,1.5
			c14.3,12.8,36.2,16.6,54.2,10.1c-0.8,1.3-1.6,2.6-2.4,3.9c-4.2,0.4-8.3,1.5-12.5,2.1c-5.1,0.6-10.1,0.7-15.2,0.5
			c-11.4-0.6-22.1-4.9-30.8-12.2c-0.6-0.5-1.3,0.3-0.8,0.8c7.3,8.5,17.2,13,28.1,14.9c8.4,1.4,19.2,1.8,28-0.5
			c-0.3,0.5-0.5,0.9-0.7,1.4c-3.2,0.6-6.2,1.7-9.4,2.3c-5,1.1-10,1.1-15.1,0.6c-6.2-0.6-12.1-2.6-17.8-4.8c-6.2-2.5-12.3-5.4-18-9
			c-4.4-2.8-10.9-7.2-10.9-13c0-0.7-1-0.7-1.1,0c-1.5,11.7,17.1,20.3,25.3,24.2c5.9,2.8,11.9,5.1,18.2,6.5
			c7.4,1.6,17.4,1.9,25.5-0.6c-0.7,1.4-1.4,2.8-2,4.2c-1.5,3.2,3.2,6.1,4.8,2.8c3.1-6.1,5.7-12.5,8.9-18.6
			c3.4-6.7,7.4-12.9,11.1-19.4C263.4,368.7,261.8,367.5,261,368.4z"/>
		<path fill="#D9EFF8" d="M236.2,421.7c-2.3-0.9-4.9-0.9-7.3-1.4c-3.2-0.7-6.3-1.7-9.4-2.6c-4.8-1.4-9.7-2.4-14.6-3.5
			c-10.6-2.4-23-5.4-30.5-13.9c-1.1-1.2-2.7,0.5-1.8,1.8c6.9,8.8,18,12.6,28.3,15.7c5.7,1.7,11.5,3,17.2,4.9c2.7,0.9,6,2.4,9.3,3.3
			c-0.1,0.1-0.2,0.2-0.2,0.3c-0.3-0.3-0.7-0.5-1.2-0.5c-6.9-0.2-13.1,1-20.1-0.4c-6.4-1.3-12.4-4.1-18.1-7.3
			c-7.6-4.3-19.8-8.8-23.6-17.3c-0.3-0.6-1.2-0.2-1.1,0.4c2.4,9.4,15.4,15.3,22.9,19.9c6.3,3.9,15.2,8.4,24,10c-1.1,0-2.3,0-3.4,0
			c-6.1-0.3-12.1-2.2-17.8-4.3c-11.2-4.2-21.5-11.2-31.1-18.4c-1-0.7-2.2,0.9-1.3,1.7c7.9,6.7,16,12.9,25.1,17.8
			c-0.8-0.3-1.7-0.5-2.5-0.8c-10.9-3.4-30-8.7-33.2-21.4c-0.2-0.9-1.6-0.5-1.4,0.4c2.4,13.5,21.3,20.6,32.4,24.9
			c6.5,2.5,13.4,4.6,20.2,6.4c6.5,1.7,16.1,4.2,21.8-0.7c0.3-0.3,0.5-0.6,0.6-0.9c0.6-0.2,1.2-0.3,1.8-0.5c-0.6,0.8-1.3,1.6-2,2.3
			c-2.1,2-4.7,1.7-7.2,2.6c-2.9,1.1-2.3,5,0.7,5.3c5.2,0.6,9-1.9,12.2-5.8c2.8-3.4,4.3-10.9,8.7-12.7c0.9-0.1,1.8-0.2,2.7-0.5
			c0,0,0,0,0,0C238.4,425.7,238.4,422.6,236.2,421.7z"/>
		<path fill="#D9EFF8" d="M220.6,462.7c-13.2,1.1-24.7-2.6-37.1-6.4c-8.6-2.7-19.9-4.6-25.9-12c-0.4-0.6-1.3,0.2-1,0.7
			c5,7.9,15.3,10.9,23.6,13.9c5.5,2,10.8,3.9,16.2,5.4c-1.4-0.2-2.8-0.5-4.2-0.8c-7.2-1.5-14.3-3.4-21.2-5.9
			c-14.2-5-27.9-13.1-38.4-23.9c-0.6-0.6-1.4,0.3-0.9,0.9c10.5,11.2,22.1,20,36.3,26.2c13.5,5.8,29.5,10.7,44.3,11.7
			c-1.2,2-2.3,4-3.4,6c0-0.9-0.6-1.9-1.6-2.2c-5.6-1.6-12.3-0.6-18.1-0.9c-7.9-0.5-15.2-2.7-22.2-6.4c-12.5-6.6-25-14.4-35.3-24
			c-1-0.9-2.5,0.5-1.5,1.5c11,10.7,22.9,19.5,36.2,27.1c6.3,3.6,13.3,5.6,20.5,6.6c6.3,0.9,14.2,2.1,20.5,0.5
			c0.2-0.1,0.5-0.2,0.6-0.3c-1.9,3.8-3.7,7.6-5.5,11.4c-18.6-4.9-39.4-5.8-53.2-21.1c-1-1.1-2.5,0.5-1.6,1.6
			c12.6,15.4,33.9,20.7,53,23.3c-0.4,0.8-0.8,1.7-1.3,2.5c-3.1,0.2-6.1,0.5-9.2,0.4c-5.5-0.3-10.9-1.4-16.2-2.8
			c-9.7-2.7-20-7.2-26.9-14.8c-1.2-1.3-3,0.6-1.9,1.9c6.7,8,16.7,12.7,26.4,16.1c7.1,2.5,16.8,5.2,25.2,4.4
			c-0.6,1.1-1.1,2.3-1.7,3.4c-12.5,2.8-23.8,1.8-36.2-2.4c-0.6-0.2-1,0.8-0.4,1.1c8.8,4.5,18.1,7.5,27.5,6.9c-8.9,3.5-18,3-27.8,3.4
			c-0.6,0-0.9,1.1-0.2,1.2c11.4,1.9,24.1,3.8,33.9-3.5c-1.3,2.9-2.6,5.9-3.7,8.9c-3.1,8.1-3.9,17-7.5,24.8c-0.9,1.9,1.5,4.1,3.1,2.4
			c4.9-5.2,5.6-11.9,7.4-18.6c2.5-8.8,6.7-17,10.8-25.2c6.4-12.8,11.3-27.6,20.2-39C223.4,465.2,222.9,462.5,220.6,462.7z
			 M213.7,467.3c0.7,0,1.3,0.1,2,0.1c-0.3,0.4-0.6,0.8-0.8,1.2C214.7,468.1,214.3,467.6,213.7,467.3z"/>
		<path fill="#D9EFF8" d="M220.1,79.5c0.1-1.3-1.7-1.6-2.3-0.6c-6.7,9.8-5,24.2-5,35.5c0,6.7-0.7,13-2.4,19.5
			c-1.6,5.8-3.5,12.2-0.9,17.9c0.9,1.9,4.2,1.5,4.5-0.6c1-5.9,1.2-11.6,2.7-17.4c1.4-5.8,1.7-11.6,1.6-17.6
			c-0.1-5.8-0.6-11.5-0.7-17.3c-0.1-5.7,0.7-11,1.9-16.4c19.9,3.6,40,7,60.3,6.6c17.2-0.4,37.2-1,53.1,6.5c3.4,1.6,6.1-2.9,3-5.1
			c-6.2-4.3-14.3-5.2-21.6-6.1c-9.5-1.1-19.1-1.2-28.6-0.8c-10.6,0.5-21.1,1-31.7,0.2c-11.3-0.9-22.7-2.6-34-3.1
			C220,80.3,220,79.9,220.1,79.5z"/>
		<path fill="#D9EFF8" d="M345.9,189.1c0.1-1.1,0.3-2.2,0.4-3.3c15.4,2.2,38.5-6.4,38.5-23.7c0-7.3-7.4-11.1-13.7-11.9
			c-4-0.5-7.9-0.4-11.9,0.1c-3,0.4-5.2,1.4-7.8,2.4c1.8-10.7,3.8-21.4,5.7-32.1c1.6-9,2.8-18.2,2.3-27.3c-0.3-4.9-1.5-11.1-5.3-14.5
			c2.6,0.6,5.2-2.6,2.8-4.6c-6.9-5.5-15.8-5.8-24.2-6c-12.4-0.3-24.8-1.7-37.1-2.9c-14-1.5-27.7-3.4-41.5-5.4
			c-7.7-1.1-56.9-10.2-58,4.8c-0.3,0.1-0.5,0.4-0.5,0.7c-1.5,15-2,30.1-3.5,45c-1.5,15.6-4.4,31.4-4.9,47.1c0,1,0.6,1.7,1.4,2.1
			c-4.5,3.1-8.9,6.2-13.8,8.6c-8.9,4.3-25.6,11.1-28,22.4c-0.5,0-1.1,0.3-1,0.9c0.9,13.7-0.4,27.2-2.8,40.7
			c-2.4,13-6.9,25.8-8.3,38.9c-1.1,10.6,3.8,20.9,9.3,29.6c6.3,9.8,14.2,19.2,22,27.8c2.1,2.3,6-0.7,4.3-3.3
			c-12.3-18.5-34.5-34.5-29.1-59.6c4.9-22.8,12.2-47.7,7.3-71c0-0.1,0.1-0.1,0.1-0.1c3.6-11.8,17.6-16.9,27.7-21.7
			c10.4-4.9,19-14,29.9-17.4c7.4-2.3,10.2,5.4,11.4,11.3c1.5,7-1.5,14-5.1,19.8c-7.3,11.6-19,20.1-29.3,28.8c-0.9,0.8-1,1.7-0.7,2.5
			c-0.1,0.2-0.2,0.4-0.2,0.6c0.8,9.6-2.6,19.2-4,28.7c-1.5,10.9-2.2,21.9-3.3,32.8c-1.7,15.8-7.2,34.3-2,49.9c0.4,1.2,1.3,1.8,2.3,2
			c0.4,2.8,1.5,5.5,3.4,7.8c3.2,3.9,9.8,4.9,14.4,5.9c20.8,4.4,42.2,5.7,63.3,7.3c12.1,0.9,24.1,1.6,36.1,2.6
			c-2.8,1.3-5.6,2.8-8.3,3.8c-4.5,1.6-9.5,2.1-14.2,3c-10.3,1.9-20.1,3.5-30.4,1.1c-0.7-0.2-1.2,0.7-0.7,1.2
			c6.5,6.6,20.1,4.1,28.2,2.9c2.7-0.4,5.5-0.8,8.3-1.3c-6.4,1.9-11.3,8.5-15.2,13.5c-4.2,5.4-8.5,11.8-11.6,18
			c-0.5-0.2-1.1-0.4-1.7-0.5c-1-0.2-2.2,1.2-1.2,2c0.6,0.4,1.1,0.9,1.7,1.4c-0.1,1,0.4,1.9,1.1,2.4c-2.1,7.6-6.4,15.2-10,22
			c-2.5,4.8-5.3,9.4-8.5,13.8c-1.8,2.4-3.7,4.9-6.8,5.5c-1.3,0.3-2,1.4-2.1,2.6c-0.3-0.6-0.9-1-1.6-1.2c-7.2-1.8-15.1-1.6-22.5-3.1
			c-7.6-1.5-15.1-3.6-22.3-6.5c-15.5-6.1-30-16.4-42-27.9c-6.2-5.9-11.6-12.5-16.1-19.8c-5.5-8.9-3.4-16.7,1.2-25.3
			c3-5.7,5.9-11.3,8.5-17.3c1.7-3.9,4.6-11.2,9.3-11.4c-0.3,1.3-0.3,2.5,0.1,3.6c-0.1,0.1-0.2,0.2-0.2,0.4
			c-1.9,6.1,0.2,11.4,4.2,16.2c5.2,6.3,10.8,12.3,16.3,18.3c8.8,9.6,18.7,17.5,30,23.9c10,5.6,20.6,10.4,31.6,13.3
			c7.8,2.1,20.5,4.2,26.4-2.9c2.1-2.5-0.5-6.2-3.5-4.6c-7.7,4.1-15.5,2.9-23.6,0.6c-9.7-2.7-18.9-7.1-27.7-11.9
			c-9.3-5.1-17.6-11.3-25.2-18.8c-5.2-5.1-10.1-10.4-15.1-15.6c-4.8-5-10.2-9.9-11.5-16.9c1.1,0.5,2.4-0.2,2.7-1.3
			c0.7-2.5,0.8-4.7,1.9-7.1c1.4-3.2,3.1-6.3,4.4-9.5c2.1-5.2,4.5-12.4-0.3-16.8c-0.5-0.4-1.1,0.1-0.8,0.7c3.6,6.8-2.4,14.8-5.7,20.6
			c-0.8,1.3-2.1,3.3-3,5.5c-9.3-4.9-15.5,13.2-18.7,19.4c-2.7,5.3-5.4,9-7.6,14.3c-14.3-5.1-46.9,56.2-50.3,62.1
			c-4.6,7.8-8.9,15.7-13.9,23.3c-3.8,5.7-7.6,11.3-11.2,17.1c-2.6,4.2-6.9,7.9-8.7,12.4c-0.9,2.2,2.1,4.1,3.9,3
			c3-1.8,5.1-5.6,7.1-8.3c3.5-4.8,6.5-10,9.7-14.9C52,452.2,57,444.3,61.4,436C64.6,430,92.1,387,96,381.5c2.8-4.1,6.6-9.1,12-10.1
			c-0.6,1.8-0.6,2.4-0.9,4.4c-1.2,9.4,5.6,18.5,11,25.5c12.5,15.9,29.2,28.5,47.3,37.6c8.4,4.2,17.3,7.1,26.5,9.2
			c8.2,1.9,19,4.9,27.4,3c1.3-0.3,2-1.4,2.1-2.5c0.2,0.4,0.6,0.7,1,0.9c4.5,2.5,9.1-2.1,12.8-7.3c0.6,0.2,1.1,0.4,1.6,0.7
			c-6.4,13.7-14,26.8-20.2,40.8c-6.1,13.7-12.3,27.4-19.2,40.7c-1.5,2.9,2.5,6.4,4.7,3.6c4.2-5.4,7-11.6,9.8-17.9
			c3.4-7.7,6.8-15.5,10.2-23.2c3.7-8.5,7.2-17.1,11.3-25.4c3-5.9,8.4-12.3,7.8-19.3c-0.1-0.9-0.6-1.5-1.4-1.9c-1-0.4-2-0.7-2.9-0.8
			c2-3.1,3.5-6.2,4.4-7.7c3.2-5.8,6-11.9,8.5-18.1c1.6-4.1,3.4-8.6,3.4-13.1c3.5-5.1,6-11.1,9.3-16.3c4.1-6.6,9.2-11.5,14.3-17.2
			c0.5-0.5,0.2-1.3-0.4-1.5c8.6-1.5,17.3-3.7,24.5-8.7c0.4-0.3,0.6-0.6,0.8-0.9c1.6,0.2,3.2,0.3,4.8,0.5c7.2,0.8,24.8,2.7,25.3-8.4
			c0-0.6-0.1-1-0.3-1.4c3.5-8,4.3-17.2,4.8-25.8c0-0.6,0.1-1.3,0.1-1.9c0.5,0.6,1.1,1.2,1.8,1.7c6.3,4.4,13.8-0.8,19-4.4
			c6.1-4.2,10.8-9.5,11.7-17.1c0.5-4.6,0.8-12.6-3.7-15.5c9.2-8.4,15.5-23.8,7.4-31.7c0.8-0.2,1.7-0.5,2.5-0.9
			c15.1-6.9,14.3-25.4,9-38.6C377.4,196,362.4,190.5,345.9,189.1z M366.2,154.3c4.8,0.4,12.9,1.8,13.4,7.8c0.7,8.1-8,13.5-14.5,15.8
			c-6,2.1-11.9,2.1-18,2.1c1.2-8.7,2.6-17.3,4.1-25.9C355.9,153.4,361.7,154,366.2,154.3z M330.3,314.8c-0.4,10.6-0.7,22-5.5,31.7
			c-0.6,1.2-0.3,2.3,0.3,3.2c-4.9,4.1-18.3,1.4-23,0.8c-14.6-1.8-29.2-2.3-43.9-3.2c-18.5-1.2-37-2.6-55.3-5.3
			c-5.9-0.9-12-1.7-17.6-3.7c-4.1-1.4-5.8-4.5-7.1-8c0.3-0.5,0.4-1.2,0.1-2c-4.4-16,0.5-34.1,2-50.3c1-10.7,1.8-21.4,2.7-32.1
			c0.7-8.8,3-17.4,1.3-26.2c0.7,0.1,1.5,0,2.1-0.6c3.8-3.3,7.8-6.6,11.7-10c-1.8,8-2.5,16.3-3.6,24.3c-1.3,9.7-2.5,19.4-3.7,29
			c-2,16.7-7.3,35.2-3.7,51.9c0.2,1.1,0.9,1.7,1.7,1.9c-0.1,0-0.1,0.1-0.2,0.1c-0.9,0.6-0.7,2.3,0.6,2.2c8.2-1,16.1,1.8,24.2,3.2
			c11,1.9,22.6,1.1,33.7,1.9c12.2,0.9,24.2,2.4,36.4,3.2c10.2,0.6,21,2.9,31.1,1.7c1.9-0.2,2.7-2.2,2.3-3.6c0.5-0.2,0.9-0.6,1.1-1.2
			c2.9-6.5,3.5-13.5,3.7-20.6c0.3-8.7,0.6-17.4,1.4-26.1c1.8-20.6,4.5-41.1,6.8-61.7c2.3-20.3,3-40.8,4.8-61.2
			c0.9-10.1,2.4-20.2,3.5-30.3c0.6-5.4,1.3-10.6,2.2-15.9c0.6-3.6,0.8-7-0.2-10.5c-0.3-0.9-1.7-0.8-1.7,0.2
			c0.3,4.4-0.8,8.6-1.9,12.8c-1.2,4.2-1.6,8.6-2.4,12.9c-1.6,9.6-3.1,19.1-4.1,28.8c-2.1,19.7-3,39.5-5,59.2
			c-2,19.9-4.8,39.7-6.7,59.6c-0.8,8.6-1.6,17.2-1.8,25.9c-0.2,8,0.2,16.8-3.2,24.3c-0.4,0.9-0.3,1.8,0.1,2.5
			c-9.9,1-20.2-1.1-30.1-1.7c-12.9-0.8-25.6-2.3-38.5-3.1c-11.4-0.8-23,0-34.3-1.9c-5.3-0.9-13-3.3-18.9-1.8
			c0.3-0.5,0.5-1.2,0.4-1.9c-2.9-16.5,1.9-34.1,3.9-50.5c1.1-9.5,2-18.9,3-28.4c0.9-9,2.1-18.4,1.9-27.5c7.1-6.4,13.6-13.4,18-22
			c3.2-6.4,4.2-13.4,2.8-20.4c-1.3-5.9-5-13.6-11.9-14.1c-0.1,0-0.3,0-0.4,0c0.1-0.2,0.3-0.5,0.3-0.8c1.9-11.4,3.4-23,4.8-34.4
			c1.4-11.8,2.3-24.1-0.3-35.8c-0.1-0.3-0.2-0.5-0.4-0.6c13.5,2.6,27.5,2.7,41.1,3.6c11.4,0.8,22.6,2.7,34,3.7
			c8.4,0.7,16.9,1.1,25.2,2.3c6.8,0.9,14.8,1.9,19.9,7c1.4,1.4,4.1,0,3.5-2c-1.9-6-11.2-7.5-16.4-8.5c-9-1.7-18.2-2.2-27.3-2.7
			c-11-0.7-21.8-2.4-32.8-3.2c-16.1-1.2-32.3-2.2-48.4-2.5c-1.2,0-1.5,1.9-0.3,2.1c0.1,0,0.3,0.1,0.4,0.1c-0.5,0.1-0.9,0.5-0.9,1.2
			c0.1,11.3-0.7,22.4-2.1,33.6c-1.4,11.9-4.2,23.7-5,35.6c-0.1,0.8,0.3,1.4,0.8,1.8c-4.9,1-9.5,4-13.6,6.7c-0.1,0.1-0.2,0.1-0.3,0.2
			c2.8-14.6,3.5-30,4.7-44.7c1.2-14.9,2.2-30.5,0.8-45.4c0.3-0.1,0.6-0.4,0.6-0.8c-0.2-12.7,52.8-2.3,59.6-1.1
			c11.3,1.9,22.5,3.5,33.9,4.9c12,1.4,24,2.8,36.1,3.6c7.7,0.5,17.3-0.6,24.1,3.8c-0.8,0-1.4,0.9-0.7,1.6c5.1,4.9,4.5,13.8,4.1,20.3
			c-0.5,8.7-2.2,17.4-4,25.9c-4,18.8-7.3,37.6-9.9,56.6c-0.2,0.4-0.3,0.9-0.2,1.4c-0.5,3.6-1,7.2-1.4,10.7
			c-3.7,29.3-5.2,58.9-7.5,88.3C331.1,292.9,330.7,303.8,330.3,314.8z M364.8,297.6c-0.9,5.8-4.4,9.8-9,13.2
			c3.1-5.4,2.5-13.8-3.5-16.4c-0.6-0.3-1.6,0.3-1,1c4.3,5.9,3.1,11.8-2,16.8c-1,1-0.5,2.3,0.5,2.7c-2.8,1.6-5.9,2.6-8.2,1.4
			c-3.8-2-3.9-10-4.7-13.6c0,0,0,0,0-0.1c0-0.9,0.1-1.8,0.1-2.7c1.3-1.1,2.6-2.1,3.9-3c2.9-1.9,5.7-2.2,9-2c1.9,0.1,2.4-3.1,0.5-3.4
			c-5.5-0.8-9.7,2.2-13.3,5.8c0.2-3.8,0.4-7.6,0.7-11.4c0.2-2,0.3-3.9,0.5-5.9c3.4,5.7,8.6,10,15.5,9.4c3.5-0.3,7.2-2.3,10.6-5.1
			C366.6,287.5,365.3,294.2,364.8,297.6z M374,245.6c-8.1,5.1-17.3-2-21.8-8.6c-5.5-7.9-7.6-18.2-1.9-26.4c0.9-1.3-1.1-2.8-2.2-1.7
			c-14.6,14.5,2.9,47.2,22.6,43.5c2.7,3.9,1.2,10.1-0.7,14.7c-0.3-2.8-1-5.8-1.8-8.1c-1.3-3.8-4.7-5.8-8.4-6.5
			c-8.1-1.6-13.8,7.3-14,14.4c0,1.2,1.8,1.5,2.1,0.3c1.5-6.7,7.8-16.1,15.4-9.7c4.1,3.5,0.9,10.5,4.4,14.3
			c-2.7,4.8-6.7,9.6-11.8,11.6c-0.9-2.2-2.1-4.4-3.1-6.6c-1.2-2.3-2.4-4.9-4.3-6.7c-0.6-0.5-1.5,0-1.3,0.8c0.7,2.4,1.9,4.7,2.8,7.1
			c0.8,2.1,1.5,4.2,2.3,6.3c-8.1,0.4-12.4-11.8-13.1-18.1c0-0.1,0-0.3,0-0.4c0.2-3.4,0.5-6.8,0.7-10.2c1.3-5.3,3.9-10.3,7.3-14.7
			c1.1-1.5-1.1-3.6-2.5-2.5c-1.4,1-2.7,2.2-3.8,3.5c1.2-16.8,2.6-33.6,4.6-50.3c0,0,0-0.1,0-0.1c12.8,2.6,25.5,7.1,32,19.3
			c0.8,1.5,1.5,3.1,2.2,4.9c-1.2-0.9-2.6-1.3-4.1-0.8c-2.5,0.8-4.4,2.3-4.5,5.2c0,0.5,0.7,0.6,0.9,0.3c0.8-1.2,2.2-2,3.7-2
			c1.3,0,2,1.8,2.7,2.6c0.8,0.9,2,0.7,2.8-0.1c0.9,4,1.3,8.2,0.7,12c-1.3-5.4-4.9-10.2-10.3-11.4c-0.9-0.2-1.6,1.1-0.7,1.6
			c6.7,3.3,8.2,12.1,7,19.1C377,243.4,375.6,244.6,374,245.6z"/>
		<path fill="#D9EFF8" d="M208.5,168.8c0.8-2.1-2.2-3-3.3-1.4c-5.5,7.8-15.8,19.8-24.8,9.7c-0.9-1-2.1,0.3-1.7,1.3
			C185.9,193.7,204.7,179.2,208.5,168.8z"/>
		<path fill="#D9EFF8" d="M246,204.7c-2.6,7.4-4.7,16-2.6,23.8c1.2,4.7,5.2,8.2,9.9,9.2c0.8,0.2,1.4-0.2,1.8-0.8
			c5.9,5.6,16,8.9,22.1,2.3c2.4-2.6,5-7.2,4.5-10.9c-0.4-3.5-4.2-5.4-7-6.7c-1.9-0.9-4.1-1.2-6.1-1.9c-4.1-1.2-2.9-4.2-1.5-7.2
			c1.2-2.6,4.2-10.4,7-11c4.2-1,8.8,0.5,12.9-1.2c3.6-1.5,6.7-5.1,6.8-9.2c0.2-7.6-6.7-13.8-13.3-16.3c-9.4-3.5-18.2,1.8-24.2,9.1
			C251.5,189.8,248.5,197.6,246,204.7z M271.4,178.8c6.8-2.1,17.1,4.2,17.6,11.4c0.8,10.1-14.5,3.9-19,8.1c-2.3,2.1-3.4,5.3-4.9,8
			c-1.7,3-4,6.6-4.1,10.2c-0.3,8.1,9.8,7.8,14.9,11c4.4,2.7-4,10.8-6.8,11c-4.5,0.4-10-2.2-13.8-4.4c-0.4-0.2-0.8-0.2-1,0
			c-13.6-7.1-4.4-27.7,0.4-37.9C258.2,188.9,263.1,181.5,271.4,178.8z"/>
		<path fill="#D9EFF8" d="M259.8,156.6c-1,0.1-1.6,0.8-1.8,1.5c-8-2.3-15.2,0.8-21.5,7c-8.2,8.2-15,19.6-17.1,31
			c-4.5,23.7,12.4,50.3,33.3,60.4c21.4,10.3,44.2-1.8,55-21.1c10-18.1,10.7-44.5-2.5-61.2C294.3,160.5,276.9,154.8,259.8,156.6z
			 M282.9,252.4c-25.8,12.3-50.3-13.3-57.4-36c-4.4-13.8-1.8-25.9,5.3-38.2c6-10.5,14.8-21.7,27.4-18.5c0.3,0.5,0.8,0.9,1.6,0.8
			c0.2,0,0.5,0,0.7-0.1c0.3,0.1,0.6,0.2,1,0.4c0.5,0.2,0.9-0.1,1-0.5c23.6-1.1,43.9,13.3,46.9,37.6
			C312.1,219.2,302.9,242.9,282.9,252.4z"/>
		<path fill="#D9EFF8" d="M370.8,50.1c-1.6-0.5-2.7,2.1-1.2,2.8c10.9,4.6,15.2,16.8,13.8,28c-0.3,2.5,3.7,2.9,4.3,0.6
			C391.3,68.6,383.6,54,370.8,50.1z"/>
		<path fill="#D9EFF8" d="M392.7,58.9c5.2,7.3,4.6,15.8,2.1,24c-0.9,3.1,4,4.4,4.8,1.3c2.6-9.7,2.4-19.5-4.1-27.5
			C394.2,55.1,391.5,57.2,392.7,58.9z"/>
		<path fill="#D9EFF8" d="M171,81c1.4,0,1.8-2.2,0.3-2.4c-13.4-1.9-10.8,20.6-9.4,28.3c0.3,1.8,3.4,1.4,3.2-0.4
			C164.5,100.6,162,81.1,171,81z"/>
		<path fill="#D9EFF8" d="M145.8,100c-0.4-2.3-3.8-1.3-3.4,0.9c1.6,9.1,6.4,16.6,13.6,22.3c1.7,1.4,4.2-1,2.5-2.5
			C152,115.2,147.4,108.4,145.8,100z"/>
		<path fill="#D9EFF8" d="M347.4,373.4c5-4.1,11-11.8,6.9-18.4c-0.3-0.6-1.3-0.4-1.3,0.3c0.3,12-14.9,22.8-26.2,18.3
			c-2.2-0.9-3.6,2.7-1.6,3.8C332.6,381.4,341.2,378.4,347.4,373.4z"/>
		<path fill="#D9EFF8" d="M355.9,372.6c3.3,13.9-13,21.3-24.5,18.6c-2.1-0.5-2.9,2.5-0.9,3.2c13.7,4.4,32.7-6.2,27-22.3
			C357.2,371.1,355.7,371.5,355.9,372.6z"/>
	</g>
	<g>
		<path fill="#D9EFF8" d="M1559.8,254.3c-0.7,0.1-1-1-0.4-1.3c2.4-1.2,3.4-5.5,4-7.9c0.8-3.1,1.2-6.5,0.5-9.7
			c-0.3-1.1,0.1-2.3,1.2-2.9c0.2-0.1,0.4-0.2,0.6-0.3c1.4-0.2,2.7,0.4,3.2,1.8C1570.8,240.2,1567.6,253.7,1559.8,254.3z"/>
		<path fill="#D9EFF8" d="M1569,264.2c1.6-5.5,2.9-13.6,0.7-18.9c-0.5-1.2,0.7-2.2,1.7-2.3c7.4-0.7,1.1,19-0.7,21.9
			C1570.2,265.8,1568.7,265.2,1569,264.2z"/>
		<path fill="#D9EFF8" d="M1578.6,257.7c2,4.9,1,11.7-2.5,15.6c-0.4,0.4-1.2,0-1-0.6c1.8-4.5,0.8-10,0.2-14.6
			C1575,256.1,1577.9,256.1,1578.6,257.7z"/>
		<path fill="#D9EFF8" d="M1549.9,202.8c-7.2-5.7-10.2-17.7-13.6-25.9c-0.3-0.7,0.6-1.2,1-0.6c2.8,3.6,4.7,7.8,6.8,11.9
			c2.4,4.6,5.4,8.4,8.5,12.6C1553.9,202.5,1551.3,203.9,1549.9,202.8z"/>
		<path fill="#D9EFF8" d="M1602.2,284.1c-7.5-16.3-16.3-32-24.8-47.8c-0.3-0.6-1.4-0.2-1.1,0.5c6.5,16.9,15,32.9,22.1,49.6
			c5.9,13.9,9.1,30.3,18.1,42.6c-0.1,0-0.2,0.1-0.3,0.1c-3.8,1.2-2.1,7.3,1.6,6c8.1-2.8,16.8-3.2,25.1-5.2c0.1,0.6,0.4,1,1.2,1.1
			c1.9,0.3,3.6,0,5.5,0.8c0.1,0,0.1,0.1,0.2,0.1c-5.5,1.6-11,3.5-16.7,4.5c-2.3,0.4-2.4,4.4,0,4.7c8.1,1.1,15-2.7,22.7-4.6
			c0.4-0.1,0.7-0.2,1.1-0.3c0.2,0.1,0.4,0.3,0.5,0.4c3.7,3.2,8.2,7.2,9.3,12.1c0.2,0.7,1.4,0.6,1.3-0.2c-0.6-5-4.1-9.6-7.8-13.2
			c3.9-0.9,7.7-1.8,11.6-2.9c0.4,0.4,0.8,0.8,1.2,1.2c3.9,4.3,7,9.2,9.8,14.3c0.3,0.6,1.3,0.2,1.1-0.5c-1.4-5.7-4.6-11.5-8.5-16.2
			c0.6-0.2,1.1-0.4,1.7-0.6c1.1-0.4,2.3-0.8,3.5-1.3c0.5,0.5,1,1,1.5,1.5c3,3.3,5.6,7.1,8.3,10.7c0.6,0.8,1.8,0.1,1.3-0.8
			c-2.4-4.4-4.7-8.8-7.9-12.6c1.5-0.6,3.1-1.2,4.7-1.8c0,0.1,0.1,0.1,0.1,0.2c1.9,3.6,3.5,7.3,5.1,11c0.2,0.5,1.2,0.6,1.1-0.2
			c-0.4-4.2-1.6-8.4-3.3-12.3c1.8-0.8,3.7-1.6,5.5-2.5c0.4,3.7,1.2,7.5,2.5,10.9c0.3,0.8,1.4,0.5,1.3-0.4c-0.7-4.1-0.9-8-0.8-12.1
			c1.9-1,3.8-2.1,5.7-3.3c-0.8,4.6-0.4,9.4,2.1,12.4c0.4,0.5,1.1,0,1-0.6c-1-4.9-0.5-10.1,1.3-14.8c1.9-1.4,3.6-2.9,5.3-4.5
			c0,0,0,0,0,0.1c0,0.1,0.1,0.1,0.1,0.2c-0.1,0.7-0.3,1.3-0.4,1.9c-0.9,5.2-2.2,12,0.8,16.8c0.3,0.6,1.4,0.2,1.1-0.5
			c-1.8-4.5,0.3-11,1.8-15.3c1.7-5.1,4.5-8.8,6.9-13.4c0.6-1.2,0.1-2.6-1-3.1c7.9-4.1,15.4-8.8,22.2-14.4c1.1,2.5,4.7,2.1,4.8-0.8
			c0.2-4.5-2.1-8.2-4.4-11.8c-2.8-4.4-4.9-9-6.8-13.9c-1.9-5-4-9.7-6.5-14.5c-3.1-5.7-6.4-11.2-9.4-17c-1.6-3-4.8-7.3-5.2-10.7
			c-0.1-0.4-0.4-0.7-0.8-0.5c-2.4,1.5-0.2,6.2,0.5,8.1c2.3,6,5.2,11.9,8,17.7c2.7,5.5,5.3,10.8,7.3,16.6c1.7,4.9,3.4,10,6.1,14.5
			c2.2,3.7,4.4,7.3,6,11.2c-0.1,0-0.2,0-0.3,0.1c-21.5,11.9-43.6,21.7-66.9,29.7c-11.8,4-23.1,9.5-35.1,12.8
			c-7.4,2-15.2,2.1-22.7,3.7c0-0.4-0.1-0.9-0.4-1.3C1612.7,313.2,1608.7,298.2,1602.2,284.1z M1695.5,318c-2.1,0.9-4.2,1.8-6.3,2.7
			c-1.5-2.8-3.6-5.7-6.7-6.1c0.3-0.1,0.7-0.3,1-0.4c11.9-4.3,24.2-8.9,35.9-14.6c-1.6,2.1-2.7,5-3.5,7.8c-0.3-0.1-0.6-0.1-0.9,0.1
			c-0.7,0.3-1.3,0.7-2,1c-0.1-1.2-1.8-2-2.8-1c-1.1,1-2,2.5-2.8,4.2c-2.3,1.3-4.6,2.6-6.9,3.9c0.3-1.7,0.5-3.3,0.4-4.9
			c-0.1-1.8-2.4-2.5-3.4-0.9c-1.3,2.1-1.3,5.1-1.1,7.9C1696.1,317.7,1695.8,317.9,1695.5,318z M1685.3,322.3
			c-1.9,0.7-3.7,1.4-5.6,2.1c-2.4-2-5.1-3.5-8-3.6c-1.7,0-2.2,2.2-0.8,3c1.4,0.8,2.9,1.3,4.4,2c-0.4,0.1-0.8,0.3-1.2,0.4
			c-1,0.3-2,0.5-3,0.8c-2.1-1.9-4.9-3.8-7.7-4.7c5.8-2.4,11.6-4.8,17.4-7c-0.5,0.7-0.6,1.9,0.1,2.6
			C1682.5,319.4,1684,320.7,1685.3,322.3z M1649.5,327.8c2-0.8,4.1-1.6,6.1-2.4c0.3,0.6,0.9,1,1.7,1.1c3,0.2,5.4-0.4,8.3,1.2
			c0.2,0.1,0.4,0.2,0.5,0.3c-3.9,0.8-7.9,1.5-11.8,2.5C1652.9,329.5,1651.2,328.5,1649.5,327.8z"/>
		<path fill="#D9EFF8" d="M1726.6,320.5c-1.4-6.4-2.4-24.8,7.2-25.7c1.7-0.2,2.4,2.1,1.3,3.2c-3,3.1-4.7,5.3-5.9,9.6
			c-1.1,4-1.9,8.6-1.5,12.7C1727.8,321,1726.7,321.1,1726.6,320.5z"/>
		<path fill="#D9EFF8" d="M1737.8,303.2c0.2-2.7,0.8-5.3,2.1-7.6c0.5-1,2-0.3,1.8,0.7c-0.7,2.4-1.7,4.7-2.2,7.1
			C1739.3,304.3,1737.7,304.1,1737.8,303.2z"/>
		<path fill="#D9EFF8" d="M1613.7,352.6c-0.2-0.7,0.8-0.9,1-0.3c5.6,13.8,16.5,20.3,30.5,23.6c7.7,1.8,15.5,2.9,23.4,2.5
			c8.9-0.5,16.5-4.8,25.1-6.3c2-0.4,3.5,1.7,2.8,3.3c3.6-1.2,7.1-2.5,10.3-4.4c1-0.6,1.8,0.9,0.9,1.6c-6.9,4.9-14.9,6.8-22.9,9.1
			c-0.4,0.1-0.8,0-1.1-0.2c-13.3,3.7-28,2.3-40.9-1.6C1628.3,375.5,1618.9,366.8,1613.7,352.6z"/>
		<path fill="#D9EFF8" d="M1661,391.5c-1.1-0.6-1-2.6,0.4-2.8c4.4-0.7,8.8-0.7,13.2-1.6c4.7-0.9,9.5-1.7,14.3-2.3
			c11.9-1.5,24.7-2.8,35.2-9.1c0.8-0.4,1.3,0.6,0.7,1.1c-9.7,7.3-22.2,9.1-33.9,11c-5.6,0.9-11.1,2-16.7,3.2c0,0,0,0-0.1,0
			c5.6-0.8,11.5-0.5,16.9-1.3c4.3-0.6,8.5-1,12.8-1.7c5.1-0.8,10.1-1.8,15.1-3c3.8-1,8.5-2.2,11-5.5c0.4-0.5,1.1-0.2,1,0.4
			c-1,7-13.8,9.4-20.5,10.8c-2.8,6.3-9.3,9.9-15.4,12.4c-5.1,2.1-15.5,6.3-20.8,3.4c-1.2-0.7-1.4-2.9,0-3.5c2-0.9,4.1-0.7,6.3-0.8
			c3.7-0.2,7.3-1.1,10.9-2.1c5.9-1.6,12.8-4.3,16.9-9.1c-5,1.1-10.1,1.9-15.2,2.7c-7.6,1.2-16.1,3-23.8,2.6
			c-2.4-0.1-2.8-3.3-0.6-4.1c0.2-0.1,0.5-0.2,0.7-0.2C1666.4,392.6,1663.4,392.8,1661,391.5z"/>
		<path fill="#D9EFF8" d="M1758.5,235c-3.4,2.3-7.4,1.7-11.2,0.8c-1-0.2-2-0.5-3.1-0.8c0.8,1.5,1.5,3,2.1,4.5
			c0.9,2.6-2.7,3.7-4.1,1.7c-2.4-3.3-4.6-6.8-6.7-10.2c-0.5-0.4-1-0.7-1.5-1.2c-0.8-0.6-0.8-1.4-0.5-2c-1.8-2.8-3.6-5.7-5.6-8.4
			c-2.6-1.9-5-3.9-7.1-5.9c-0.7-0.7-0.5-1.8,0.2-2.3c-0.4-0.4-0.8-0.8-1.2-1.1c-8.6-8-19.2-13.4-28-21.3c-0.8-0.7,0.3-1.7,1.1-1.1
			c9.8,7.6,21.2,12.8,30.7,20.8c3.4,2.8,6.1,6.2,8.8,9.7c5,3.3,10.3,5.8,16.5,6c0.9,0,1.2,1.4,0.2,1.7c-4,0.9-8.1,0.3-12-1.2
			c1,1.4,2.1,2.8,3.1,4.2c5.5,3.1,12.1,7.3,17.8,5.2C1758.7,233.7,1759,234.6,1758.5,235z"/>
		<path fill="#D9EFF8" d="M1697.8,200.2c4.4,6.5,9.9,13.5,15.9,18.6c1.9,1.6-0.6,4.6-2.6,3.4c-8.3-5-14.2-14.5-18.9-22.7
			c-3.1-5.5-9.3-16.9-2.6-21.9c0.6-0.4,1.1,0.4,0.7,0.9C1685.9,184.1,1694.8,195.8,1697.8,200.2z"/>
		<path fill="#D9EFF8" d="M1671.2,424C1671.2,423.9,1671.2,423.9,1671.2,424c-0.2-0.1-0.3-0.2-0.4-0.2c-1.4-0.7-1.3-2.6-0.5-3.6
			c0.1-0.1,0.2-0.2,0.3-0.3c1-1.2,3.6-0.7,3.8,1c0,0,0,0.1,0,0.1c4.2,2.9,13.2-1.1,17-2.6c5.4-2.1,11.2-4.8,15.9-8.2
			c0.7-0.5,1.3,0.6,0.6,1.1c-7.9,6-20,14.8-31,14.1c0.5,0.5,0.9,1.1,1.3,1.6c8.4-2,17.1-3.5,25.7-5.3c8.2-1.7,19.9-3.7,24.7-11.4
			c0.4-0.7,1.5-0.2,1.2,0.5c-2.3,8.2-14.2,11.4-21.2,13.5c-4.8,1.5-9.8,2.6-14.7,3.8c-4.2,1.1-8.4,2.9-12.7,3.7
			c0.1,0.2,0.2,0.4,0.3,0.6c0.2,0.4,0.4,0.8,0.6,1.2c10.2-2.4,20.7-3.8,30.9-6c11.4-2.4,23.6-5.3,32.8-12.9c0.6-0.5,1.4,0.3,0.9,0.9
			c-7,8.9-19.3,12.3-29.8,15.2c-10.7,3-21.5,5.2-32.3,7.6c1.5,3.1,2.7,6.3,2.7,9.3c0.1,2.8-4.6,3.6-5,0.7c-0.4-3.1-1-6.1-1.8-9
			c-1.9,0.5-3.8,0.9-5.8,1.4c-3.2,0.8-4.4-3.9-1.3-4.9c1.8-0.6,3.6-1.1,5.4-1.5c-0.3-0.8-0.6-1.5-1-2.3c-0.8,0-1.6,0-2.4-0.1
			c-2.2-0.3-2-3.6-0.2-4.3c-0.8-1.1-1.6-2.1-2.6-3.1C1672.3,424.6,1671.7,424.4,1671.2,424z"/>
		<path fill="#D9EFF8" d="M1679,470.6c1.7,3.2,3.3,6.5,4.7,10c2.8,7.6,5.2,15.3,8,22.9c2.8,7.8,6.2,15.4,9,23.3
			c2.6,7.5,5.3,16.4,11.1,22.2c2.4,2.4,6.1-0.6,4.6-3.6c-2.3-4.4-4.9-8.5-6.9-13.1c0-0.8-0.1-1.6-0.1-2.5c8,3.1,19.1,1,26.8-1.2
			c9.6-2.8,18.8-7.1,25.8-14.4c0.8-0.9-0.4-2.1-1.3-1.3c-7,6.3-16.3,10.2-25.4,12.1c-5,1.1-10.1,1.8-15.2,1.6c-3.7-0.1-7.3-1-11-1.3
			c-0.1-0.6-0.2-1.2-0.3-1.9c5.3,1,11.7-0.7,16.1-2.2c8.2-2.8,15.9-6.8,23.2-11.3c0.5-0.3,0.2-1.3-0.4-1.1c-6.9,2.9-13.8,6-21,8.2
			c-6.7,2-12.4,2.6-18.8,1.3c-0.8-3.7-1.8-7.3-2.9-11c4.5,0.1,9.5-1.5,13.4-2.7c5.5-1.8,11.1-3.5,16.6-5.3c9.5-3.1,20.7-6.7,26-15.9
			c0.4-0.6-0.5-1.1-1-0.6c-6.4,8.4-18.7,11.3-28.5,13.8c-4.8,1.2-9.5,2.7-14.2,3.9c-4.8,1.2-9.3,1.5-14,1.7
			c-0.8-2.4-1.7-4.7-2.7-7.1c3,0,6.2-0.4,8.9-0.7c5.4-0.6,10.9-1.4,16.1-3c8.4-2.6,18.2-6.4,23.6-13.8c0.5-0.6-0.5-1.2-1-0.8
			c-7.9,6.2-16.6,9.7-26.4,11.6c-5,1-10,1.6-15.1,1.8c-2.7,0.1-5.5-0.1-8.2-0.1c-0.2-0.4-0.3-0.8-0.5-1.2c-0.5-1.1-0.9-2.2-1.4-3.4
			c6.3,0,13.1-3,18.6-4.5c9.1-2.4,18.8-5.1,25.4-12.3c0.6-0.6-0.3-1.4-0.9-0.9c-7.5,5.8-16.5,7.6-25.4,9.6
			c-6.6,1.5-12.8,3.2-19.5,3.1c-0.8-2.1-1.6-4.3-2.5-6.4c3,0,5.9-0.3,8.8-0.8c11-1.7,21.8-4.9,32-9.4c0.7-0.3,0.2-1.5-0.5-1.3
			c-9,2.9-18.4,5.1-27.8,6.4c-4.6,0.6-9.6,1.3-14.4,0.7c-1.5-3-3.1-5.9-5.1-8.5c4.1,0.2,8.2,0.4,12.3,0c6.9-0.7,13.8-1.5,20.7-2.9
			c14-2.9,27.6-7.8,39.9-15c0.8-0.5,0.1-1.6-0.7-1.2c-13.1,7-27.3,11.1-41.9,13.2c-7,1-14.5,2.1-21.6,1.8
			c-6.7-0.3-13.4-1.5-20.1-0.8c-3.1,0.3-3.2,5.1,0,4.9c0,0,0,0,0,0c1.4,2.2,2.7,4.3,4,6.5C1677.7,469.1,1678.2,469.9,1679,470.6z
			 M1682.6,461.6c1.7,2.5,3.1,5.3,4.4,8.1c-1.4-0.3-2.8-0.7-4-1.6c-1-0.7-1.6-1.9-2.7-2.4c-1.1-1.5-2.3-2.9-3.5-4.2
			C1678.7,461.5,1680.6,461.6,1682.6,461.6z M1694.8,496.6c-0.3-0.8-0.6-1.6-0.9-2.4c0.2,0.1,0.4,0.2,0.6,0.3
			c0.5,0.1,0.9,0.2,1.4,0.3c1,2.8,1.9,5.5,2.8,8.3c-0.8,1-0.4,2.8,1,3.4c0.5,1.6,0.9,3.3,1.4,4.9
			C1699,506.5,1696.8,501.6,1694.8,496.6z M1690.1,484.5c0.8,0.4,1.6,0.7,2.5,0.9c0.6,1.8,1.2,3.5,1.8,5.2c-0.8,0.2-1.2,0.7-1.3,1.4
			C1692.1,489.5,1691.1,487,1690.1,484.5z M1685.6,474.8c-0.2-0.3-0.4-0.7-0.5-1c1.2,0.3,2.5,0.5,3.8,0.6c0.8,2.1,1.5,4.2,2.2,6.3
			c-0.2,0-0.3,0-0.5,0c-0.8-0.1-1.4,0.4-1.7,1C1687.8,479.3,1686.8,477.1,1685.6,474.8z"/>
		<path fill="#D9EFF8" d="M1742.6,437.5c7.5-3.3,14.5-7.5,22.1-10.7c12.1-5,22.9-10.4,32.2-19.7c6.4-6.4,14.6-16.3,11.9-26.1
			c-0.1-0.5-1-0.4-0.9,0.1c0.5,12-10.6,21.7-19.5,28.4c-4.5,3.3-9,6.4-14.2,8.7c-5.8,2.5-11.9,4.5-17.6,7.2
			c-6.8,3.4-13.6,7.4-20.9,9.7c-6,1.9-12.1,2.3-18.2,3.3c3.1-1,6.1-2,9.1-3.2c11.6-4.6,23.8-8.8,35-14.3
			c10.2-5.1,20.1-12.2,29.1-19.1c6-4.7,18.5-12.8,12.7-21.8c-0.6-0.9-1.2-1.8-1.8-2.7c0.2,0,0.3,0,0.5-0.1c3.6-1.8,6-5.4,9.6-1.5
			c2.7,2.9,4.9,6.4,6.9,9.8c4.3,7.3,8.5,14.7,12.6,22c6.5,11.4,12.5,23,18.2,34.8c5.5,11.2,11.7,22.5,15.4,34.4c1,3.2,6,1.8,5-1.4
			c-4.4-14.2-12-27.7-18.7-40.9c-6.8-13.5-14-26.6-21.7-39.6c-4.2-7.1-7.6-14.9-13.2-21.1c-2.1-2.3-4.3-4.4-7.5-4.8
			c-3.7-0.4-5.7,4.4-8.1,6.3c-0.1,0.1-0.2,0.2-0.2,0.2c-5.3-7.9-10.9-15.7-14.5-24.6c-0.2-0.6-1.2-0.6-1.2,0.2
			c0.5,8.5,5.3,16.1,9.3,23.4c1.3,2.3,2.7,4.5,4,6.8c1.8,3.1,1.3,5.2-1.4,7.9c-3.4,3.4-7,6.5-10.9,9.3c-7.7,5.6-15.7,11.6-24.1,15.9
			c-8.9,4.6-18.6,7.8-27.9,11.6c-9.6,3.9-19.5,6.8-29.3,10.4c-9,3.3-17.5,7-27.3,6.2c0,0,0,0,0,0c-0.1-0.1-0.1-0.2-0.2-0.4
			c-0.5-0.8-1-1.6-1.5-2.3c-0.9-1.8-1.7-3.7-2.5-5.6c-1.3-3.2-3.1-6.1-4.5-9.3c-1.1-2.5-2.6-5.8-1.9-8.6c0.8-3.2,3.6-4.8,6.4-6.1
			c-0.1,1.1,0.3,2.2,1.4,2.9c3.5,2,7.1,1,10.7-0.5c4.5-1.8,8.9-3.5,13.4-5.3c10.4-4.1,19.9-9.4,29.8-14.5
			c10.7-5.5,22.3-9.8,32.4-16.5c7.5-5.1,13.5-12,20.2-18.2c0.6,0,1.3-0.2,1.8-0.6c3-2.4-0.9-7.9-1.8-10.5c-2.4-7.4-3-14.6-3-22.4
			c0-0.7-0.8-1.1-1.4-0.9c1.6-5.2,3-10.6,4.7-16c0.2-0.8-1-1.3-1.4-0.6c-0.8,1.6-1.5,3.2-2.2,4.8c0.8-3.2,2-6.4,3.1-9.3
			c1.8-4.7,3.3-9.5,4.8-14.3c3.1-9.9,6.3-19.9,8.5-30.1c2-9.4,2.6-18.1-1.1-27.2c-3.2-7.7-8.1-15.2-13.2-21.7
			c-6.2-8-13.5-14.8-20.5-22.1c-6.5-6.8-12.4-11.9-21.1-15.9c-8.8-4.1-18.2-7.6-26.2-13.2c-6.3-4.4-11.9-10-19.1-13.2
			c0-0.4-0.1-0.7-0.3-1.1c-3.7-8.1-8.7-15.6-11.4-24.1c-1.8-5.5-3.2-11-7.5-14.9c-1.8-4.9-4.3-9.6-6.9-14.1
			c-4.6-7.9-9.3-15.5-13.3-23.7c-2.8-5.8-6.4-14.7-13.4-16.6c-6.4-1.8-12.8,0.4-18.6,3.1c-8.9,4.1-17.5,8.3-26.8,11.7
			c-9.2,3.3-18.5,6.3-27.5,10.1c-9.1,3.8-17.5,8.6-26.2,13.1c-4.5,2.3-9.5,4.2-13.8,6.9c-3.6,2.3-7,5.4-11.2,6.5
			c-2,0.5-2.3,2.5-1.6,4c-1.8,1.7-2.5,4.5-2.4,7.4c0.5,14.7,8.2,28.8,14.5,41.7c-7,0-8.2,13.1-8.4,17.9c-0.2,4.6,0,9.1,1.9,13.4
			c2.5,5.9,6.8,13.3,13.1,15.6c0.2,0.1,0.3,0.1,0.5,0.1c-3.4,6.7-2,16.5-0.6,23c3.4,16.2,10.8,32.6,20.1,46.4
			c4.7,7,10.2,13.3,15.7,19.8c5.2,6.2,10.8,12.6,18.1,16.4c0.2,0.1,0.3,0.1,0.5,0.2c-0.6,7.6,3.2,15.8,5.4,22.9
			c2.3,7.3,4.4,14.7,7.9,21.5c6.1,12,15,23.2,27.6,28.8c8.4,3.7,17.9,5.6,27.5,5.7c4.5,2.7,7.1,6.9,9.6,11.6
			c1.1,2.1,2.3,5.8,4.2,8.2c-5.5,2.4-9.8,6.6-8.8,13.4c0.6,3.9,2.3,7.6,4.1,11.2c2,4.1,3.3,8.7,5.7,12.6c-4.4-0.5-9.7,0.6-9.5,5.6
			c0.2,3.7,2.5,6.8,3.6,10.2c1.9,5.9,4.1,11.7,6.5,17.5c4.8,11.3,9.6,22.6,14.6,33.8c5.1,11.5,11.5,22.5,16.2,34.2
			c1.4,3.5,6.7,2.2,5.7-1.6c-2.5-9.6-8.5-18.1-12.8-27c-4.4-9.2-8.3-18.5-12.5-27.8c-4.5-10.1-8.9-20.2-13-30.4
			c-1.1-2.8-2.9-5.5-3.7-8.4c-1-3.7,3-4,6.1-4c0.4,0.6,0.8,1,1.3,1.4c-1.4,1-1.4,3.7,0.7,4.2c7,1.6,14.1-0.3,20.9-2.1
			c8-2.1,15.9-5.1,24.1-6.3C1727.3,442,1735,440.9,1742.6,437.5z M1527.4,156.3c4.2,8.8,8.1,17.6,12.7,26.2
			c3.1,5.7,6.2,11.4,9.4,17.1c-3.8-3.5-8.5-5.1-12.9-1.1c-0.2,0.2-0.4,0.4-0.6,0.7c-0.1-0.3-0.2-0.5-0.4-0.8
			c-4.4-4.8-9.3-8.8-11.5-15.2c-0.9-2.7-1.2-5.4-1.4-8.2C1522.5,170.5,1521.3,157.6,1527.4,156.3z M1677,407.7
			c-0.4-0.1-0.7-0.2-1-0.1c-0.1-0.5-0.3-1-0.7-1.3c-0.5-2.4-2.7-3.9-4-6c-1.5-2.4-3-4.8-4.7-7.1c-1.7-2.2-3.6-4.5-5.9-6.2
			c13.6-0.6,27.1-4.8,37.8-12.3c0.6-0.4,0.2-1.6-0.5-1.3c-21,8.3-46.5,13.3-67.5,2.4c-11.4-5.9-19.5-16.2-24.9-27.7
			c-3-6.6-4.9-13.5-7.2-20.4c-2.3-7-3.6-14.2-5.8-21.2c-0.3-1-1-1.6-1.8-1.7c-0.2-0.4-0.5-0.9-1-1.2c-6.1-4-11.1-9-15.8-14.6
			c-4.4-5.2-9-10.2-13-15.7c-8.6-12.1-15.4-25.6-19.9-39.7c-2.6-8-5.3-17.4-3.7-25.9c0.8-4.1,3.9-9.7,8.8-6
			c3.9,2.9,7.3,7.3,9.4,11.7c0.3,0.6,1,0.4,1.2-0.1c1.7,3.2,3.3,6.4,4.9,9.6c0.7,1.5,1.4,3,2.1,4.6c0.3,2.1,0.1,4.2-0.5,6.5
			c-1,3.5-2.4,6.9-3.4,10.4c-0.2,0.6,0.6,0.9,0.9,0.4c2.4-3.9,4.4-8,5.3-12.1c4.9,11.2,9.2,22.6,14.4,33.6
			c6.4,13.5,13.2,26.9,18.5,41c3.3,8.6,12.8,37.4,26.5,29.9c3.3-1.8,0.4-6.5-2.9-4.9c-5.9,2.9-12.6-13.7-14.2-17.3
			c-4.3-9.6-7.8-19.5-12.2-29c-6.9-14.9-14.5-29.4-20.4-44.8c-5.2-13.4-11.5-26.2-18.4-38.8c-10.3-18.9-20-37.9-29.3-57.3
			c-1.9-4-16.7-32.9-10.8-37.3c0.1,0,0.3,0,0.4-0.1c3.8-1.1,6.7-3.3,9.8-5.6c3.4-2.4,7.2-4.1,10.9-6c8.6-4.5,17-9.6,25.8-13.5
			c16.5-7.3,34.1-11.8,50.4-19.6c6.2-2.9,13-7.7,20.1-7.8c8.7-0.1,12.1,9.7,15.4,16.3c7.4,15.3,19.5,27.7,24.3,44.3
			c0.1,0.5,0.6,0.7,1.1,0.7c0.7,3,1.3,6,2.5,8.8c2.9,7.2,6.1,15.1,10.8,21.3c0,0.1,0.1,0.1,0.1,0.2c-0.3,0.6-0.4,1.2-0.3,1.8
			c-1.8,1.4-3.1,3.2-4.1,5.3c-3.2-6.7-8-12.9-11.4-19.5c-4.4-8.8-8.8-17.6-13.1-26.5c-3.6-7.5-7.6-14.9-10.9-22.6
			c-2.3-5.2-4.6-11.4-9.2-15.2c0.2-0.4-0.2-1.1-0.8-1c-9.1,1.3-17.2,5.9-24.9,10.6c-8.7,5.4-18,8.3-27.5,11.7
			c-19,6.7-38.6,14-56.5,23.2c-1.4,0.7-1.3,2.1-0.6,3.1c-0.2,0.2-0.3,0.6-0.2,0.9c0,0,0,0,0,0c6,16.1,15.2,31.4,24,46
			c8.5,14.1,14.5,29.4,22.3,43.9c8.4,15.6,15.6,31.8,23.2,47.8c3.7,7.8,7.3,15.6,10.5,23.7c2.8,7,5.5,14.2,9.4,20.7
			c0.2,0.3,0.3,0.5,0.6,0.6c-0.8,1.5-0.1,3.9,2.1,3.9c7.4-0.2,13.4-6.8,20-9.4c9.9-3.9,20.1-6.4,30.1-9.7c9.7-3.2,19-7.3,28.3-11.6
			c5.1-2.4,10.2-4.7,15.4-7c4.4-2,9.2-3.6,13.3-6.1c0.1,0.1,0.1,0.2,0.2,0.3c1.4,2.3,4.5,0.3,3.5-2c-3.6-8.5-7.4-17.1-11.8-25.3
			c-4.4-8.1-9.2-16.1-12.6-24.7c4.6,2.6,9.4,5.1,13.4,8.6c0.5,0.5,1.1,0.6,1.7,0.6c2.1,6.9,5.1,13.1,8.7,19.5
			c4.3,7.4,7.5,15.2,11.2,22.9c1.8,3.8,3.9,7.2,5.9,10.8c2.6,4.6,1.5,6.7-1.7,10.5c-4.9,5.7-11.5,9.6-18.1,13.1
			c-15.7,8.4-33,12.3-49.5,18.8c-9.9,3.9-19.7,8.3-29.7,11.9c-0.9-0.1-1.9-0.2-2.8-0.2c-1.2,0-1.8,0.9-1.7,1.8
			c-4.3,1.4-8.6,2.7-13,3.7c-3.7,0.9-2.1,6.5,1.6,5.7c6.6-1.5,12.9-3.6,19.2-6c6.4,1.5,13.5,3.1,16.2,8.9c0.4,0.9,2,0.5,1.9-0.5
			c-0.4-4.5-5-7.3-8.8-9c-1.1-0.5-2.3-1.1-3.5-1.6c9.7-3.9,19.4-8.2,29.3-11.7c7.7-2.7,15.4-5.2,23-8c-1.4,2.2-2.5,4.6-3.3,6.6
			c-1.9,5-2.9,9.8-1.9,15c0.2,1,1.8,0.8,1.8-0.2c0-5.1,1.6-10.3,4.2-14.8c2.1-3.6,5.1-6.4,7.3-9.7c6.9-2.8,13.6-6,20-10
			c6.4-4,11.7-8.7,15.8-15.1c3.7-5.8-1.2-11.2-4-16.2c-4-7.2-6.9-15-10.8-22.2c4.9,2.8,11.3,3.9,15.8,4.6c1.1,0.2,1.6-1.4,0.5-1.7
			c-3.9-1.2-8-2.5-11.6-4.4c-3.5-1.9-5.8-4.4-8.5-7.2c-0.5-0.5-1.2-0.5-1.8-0.2c-3.3-4.8-6.7-9.7-9-14.9c3.8,0.5,8.1-0.1,11.3-0.7
			c1.1-0.2,0.8-1.9-0.3-1.9c-3,0.1-6.2,0.2-9.1-0.5c-0.9-0.2-1.8-0.6-2.7-0.9c-3.7-5.8-11.2-7.5-16.6-11.3
			c-6.8-4.8-14.8-10.5-17.5-18.7c-2-5.8-3-12.1-3-18.2c-0.1-4.7-0.1-11.5,2.5-15.9c7.5,3.5,13.1,9.7,20.1,14.1
			c4.4,2.7,8.9,5,13.5,7.1c0,0.2,0,0.4,0.1,0.6c4.9,9.8-7.2,4.5-11.3,2.2c-5.5-3-10.6-6.6-15-11.1c-0.7-0.7-2.1,0-1.7,1
			c3.2,8.7,15.6,16,24.5,17.6c2.3,0.4,6.5,0.3,7.7-2.3c1-2.4,0.4-4.5-0.9-6.5c2.7,1.2,5.4,2.5,8.1,3.8c4.6,2.2,9.2,4.2,12.9,7.8
			c3.3,3.1,6.3,6.5,9.5,9.7c6.5,6.5,13.3,12.9,18.6,20.4c5.2,7.3,11.4,15.7,13.2,24.6c1.9,9.3-1.3,19.2-3.5,28.2
			c-2.4,9.8-4.9,19.6-7.5,29.3c-1.9,7-3.3,13.4-2.7,20.5c-4.2,10.1-8.3,20.4-16,28.1c-9.6,9.7-21.6,16.4-34.1,21.7
			c-2.5,1.1-0.7,4.8,1.8,4.2c13.5-3.1,27-11.8,36.2-22c6.2-6.9,9.7-14.9,12.4-23.2c-0.7,6.1-0.5,12.4,0.3,18.5
			c0.6,3.9,1.3,9.1,3.1,12.7c-7.2,4.8-13.6,10.7-21.2,14.9c-9,4.9-18.5,8.6-27.7,13.1c-10.1,4.9-19.6,10.6-30,14.8
			c-4.5,1.8-9,3.4-13.5,5.1C1683.9,406.4,1680.5,408.8,1677,407.7z M1699.5,203.8c1.9,1.5,4,2.9,6.2,4.1c0,0,0,0.1,0,0.1
			c2.3,9.3,6.1,17.7,10.4,26.2c4,7.8,6.9,16.5,11.1,24.2c-0.3,0-0.5,0.2-0.5,0.5c0,0,0,0,0,0c-8.8,1.2-17.7,6.1-25.7,9.6
			c-9.5,4.2-19,8.7-28.9,12c-10,3.3-20.4,5.7-30.2,9.5c-3.5,1.4-6.9,2.7-10.1,4.8c-2.7,1.7-5.9,4.4-9.2,4.9c0.1-0.5,0.1-1-0.2-1.5
			c-7.7-14.9-13.4-31-20.6-46.2c-7.3-15.4-14.3-30.9-22.4-45.9c-7.8-14.5-13.8-29.8-22.3-43.8c-8.8-14.3-16-29.8-25.2-43.9
			c0.2,0,0.3-0.1,0.5-0.2c18.5-10,38.6-18.1,58.4-24.9c8.2-2.8,16.3-5.6,23.7-10.2c7.7-4.8,15.5-10.5,24.4-12.8c0,0,0,0.1,0.1,0.1
			c4.8,4.8,5.9,12.2,8.2,18.3c2.7,7.1,6.4,13.9,9.6,20.8c3.9,8.3,7.9,16.6,12,24.8c4.1,8.2,10,15.6,13.5,24c0.1,0.3,0.3,0.5,0.4,0.7
			c-1.7,8.3,0.2,18.5,2.1,25.1C1687.3,192.4,1692.9,198.5,1699.5,203.8z"/>
		<path fill="#D9EFF8" d="M1669.6,305.2c4.7,0.1,9.4-2.1,13.5-4c4.3-2.1,9.4-3.7,13.3-6.6c3.3-2.4,6-7.1,0.3-7.1
			c-0.2-0.1-0.3-0.1-0.5-0.1c-8.8,1.1-17.5,4-24.6,9.4C1669.9,298.1,1662.9,305,1669.6,305.2z M1672.7,301.2
			c-0.5,0.1-1.1,0.2-1.7,0.3c2-2.4,5.2-4.4,7.8-5.8c5.5-3,11.6-5,17.8-5.8c0.5-0.1,0.8-0.4,0.9-0.9c1.7,0.5-1.2,1.9-2.6,2.8
			c-1.9,1.2-4,1.9-6.1,2.8c-3.8,1.7-7.6,3.8-11.5,5.2C1675.8,300.3,1674.3,300.9,1672.7,301.2z"/>
		<path fill="#D9EFF8" d="M1679.9,208.8c0.4-2.5-1.3-5.8-2.5-7.7c-1.6-2.5-3.4-4.6-6.2-5.9c-0.1,0-0.2-0.1-0.3-0.1
			c-5.1-10.9-19.7-19.9-32.4-19.4c0-0.2-0.1-0.5-0.2-0.8c-0.6-1-1.3-2.1-2.1-3c6.7-8,0-20.4-4.4-30c0.2-0.3,0.2-0.7,0.3-1
			c0,0,0.1,0.1,0.1,0.1c0.4,0.5,1.1-0.1,0.8-0.6c-0.3-0.4-0.7-0.7-1.2-0.9c0.2-13.5-19.7-22.7-31.1-18.1c-13.5,5.5-14.2,30.7-2,37.9
			c0.1,0.1,0.3,0.1,0.4,0.2c1.4,2.1,2.9,4.1,4.2,6.1c2.2,3.1,4.5,6.3,7.7,8.4c2.9,2,6.6,3.1,10.4,3.4c0,1.2,0.2,2.4,0.5,3.5
			c0.3,0.8,0.5,1.8,1,2.5c-3.7,4.4-5.8,10.1-6.7,16.1c-0.9,6-1.6,12.2-2,18.3c-0.3,4.4-0.3,8.8,2.8,12.2c0.4,0.5,0.9,0.8,1.4,0.8
			c-0.9,1.6-0.2,3.7,1.9,3.7c3.4,0.1,7.8-1.8,11.1-2.7c5.2-1.6,10.3-4,15.3-6.2c11.2-5,22.2-10.3,33.3-15.4
			C1680.6,209.9,1680.4,209,1679.9,208.8z M1632.5,169.2c-6.2,5.5-16.5,3.8-21.7-2.2c-2.3-2.7-4.1-6.2-6.1-9.4l0,0
			c2.8-2.8,4.2-8.1,5.6-11.7c1.6-4.3,3.2-9,2.7-13.7c-0.1-0.7-1.2-1-1.3-0.2c-0.8,4.8-3.1,9.4-5.4,13.7c-1.3,2.4-3.4,5-4.5,7.7
			c-0.8-0.9-1.6-1.8-2.6-2.6c-0.5-0.4-1.1-0.6-1.7-0.6c-1.6-3.2-2.6-6.5-2.4-10.4c0.2-5.4,2.5-13.1,8.5-14.7
			c8.2-2.2,21.5,2.7,25.2,11.1c-0.3,0-0.6,0.2-0.6,0.6c0,0.2,0,0.5,0,0.7c-4.3-1.8-9.8-1.8-14-3.4c-0.6-0.2-1,0.6-0.6,1
			c2,1.8,4.3,2.9,6.8,3.8c3,1.1,5.5,2.5,8.2,3.9c0.1,0,0.2,0.1,0.3,0.1c0.9,3.5,2.3,6.8,3.4,10.1
			C1633.8,157.5,1636.8,165.4,1632.5,169.2z M1635.6,176c-1.3,0.2-2.6,0.6-3.8,1c-2.6,1-4.7,2.3-6.6,4c-0.4-0.5-0.8-1.1-1-1.8
			c-0.2-0.6-0.4-1.2-0.5-1.9c3.7-0.1,7.4-1.2,10.2-3.4c0.2-0.2,0.5-0.4,0.7-0.6C1635,174.3,1635.4,175.1,1635.6,176z M1675,203.6
			c0.5,1.9,0.5,4.2,1.2,6c-11.3,3.5-22.1,8.4-33.1,12.7c-5.2,2-10.3,4.1-15.8,5.2c-1.8,0.4-4.2,0.5-6.2,1.3c0.2-0.6,0.2-1.3-0.1-2
			c-1.8-4.3-1.2-8.8-0.7-13.3c0.5-4.8,0.5-9.7,1.4-14.4c1.5-7.7,4.8-16.2,13.3-18.2c13.4-3.1,27.8,5.6,35.3,16.2
			c0.3,0.4,0.9,0.3,1.1,0C1673.3,198.7,1674.4,201.4,1675,203.6z"/>
		<path fill="#D9EFF8" d="M1690,226.6c-5.8,0.7-11,4-16.3,6.3c-5.3,2.3-10.6,4.4-15.8,6.8c-9.6,4.3-18.7,10.3-28.8,13.5
			c-3.4,1.1-4.7-4.1-1.5-5.3c10.9-4,21.3-9.2,32.2-13.5c5.4-2.1,10.8-4.1,16.2-6c4.7-1.7,8.9-3.7,14.1-3.8
			C1691.4,224.6,1691.3,226.5,1690,226.6z"/>
		<path fill="#D9EFF8" d="M1694.4,238.7c-9.6,4.6-19.6,8.7-28.6,14.4c-3.2,2-6.2-3.5-2.9-4.9c10-4.3,20-8.7,30.7-11.4
			C1694.7,236.5,1695.5,238.1,1694.4,238.7z"/>
	</g>
</g>
</svg>
