<?xml version="1.0" encoding="utf-8"?>
<!-- Generator: Adobe Illustrator 19.2.1, SVG Export Plug-In . SVG Version: 6.00 Build 0)  -->
<svg version="1.2" baseProfile="tiny" xmlns="http://www.w3.org/2000/svg" xmlns:xlink="http://www.w3.org/1999/xlink" x="0px"
	 y="0px" width="450px" height="18px" viewBox="0 0 450 18" xml:space="preserve">
<g id="Layer_3">
</g>
<g id="Layer_2">
</g>
<g id="Layer_1">
	<path fill="#333333" d="M442.4,7c1.1,0,2,0.9,2,2s-0.9,2-2,2H7.7c-1.1,0-2-0.9-2-2s0.9-2,2-2H442.4 M442.4,6H7.7c-1.7,0-3,1.3-3,3
		s1.3,3,3,3h434.7c1.7,0,3-1.3,3-3S444,6,442.4,6L442.4,6z"/>
	<path fill="#FFFFFF" d="M0,0v18h450V0H0z M442.6,12H7.4c-1.5,0-2.7-1.3-2.7-3s1.2-3,2.7-3h435.3c1.5,0,2.7,1.3,2.7,3
		S444.1,12,442.6,12z"/>
</g>
</svg>
