<?xml version="1.0" encoding="utf-8"?>
<!-- Generator: Adobe Illustrator 19.2.1, SVG Export Plug-In . SVG Version: 6.00 Build 0)  -->
<svg version="1.2" baseProfile="tiny" xmlns="http://www.w3.org/2000/svg" xmlns:xlink="http://www.w3.org/1999/xlink" x="0px"
	 y="0px" width="500px" height="18px" viewBox="0 0 500 18" xml:space="preserve">
<g id="Layer_3">
</g>
<g id="Layer_2">
</g>
<g id="Layer_1">
	<path fill="#333333" d="M491.8,7c1.1,0,2,0.9,2,2s-0.9,2-2,2H8.2c-1.1,0-2-0.9-2-2s0.9-2,2-2H491.8 M491.8,6H8.2c-1.7,0-3,1.3-3,3
		s1.3,3,3,3h483.7c1.7,0,3-1.3,3-3S493.5,6,491.8,6L491.8,6z"/>
	<path fill="#FFFFFF" d="M0,0v18h500V0H0z M491.8,12H8.2c-1.7,0-3-1.3-3-3s1.3-3,3-3h483.7c1.7,0,3,1.3,3,3S493.5,12,491.8,12z"/>
</g>
</svg>
