<?xml version="1.0" encoding="utf-8"?>
<!-- Generator: Adobe Illustrator 19.2.1, SVG Export Plug-In . SVG Version: 6.00 Build 0)  -->
<svg version="1.2" baseProfile="tiny" id="Layer_1" xmlns="http://www.w3.org/2000/svg" xmlns:xlink="http://www.w3.org/1999/xlink"
	 x="0px" y="0px" width="243.6px" height="60px" viewBox="0 0 243.6 60" xml:space="preserve">
<g>
	<path fill="#FDFDFD" d="M121.7,60c-40.3,0-80.7,0-121,0C0.2,60,0,59.9,0,59.4C0,39.8,0,20.2,0,0.5C0,0.1,0,0,0.6,0
		C81.4,0,162.2,0,243,0c0.5,0,0.6,0.1,0.6,0.5c0,19.7,0,39.4,0,59c0,0.5-0.2,0.5-0.6,0.5C202.5,60,162.1,60,121.7,60z"/>
	<path fill="#0177BF" d="M156.3,4.8c-27.7,0-55.5,0-83.2,0c-0.8,0-1-0.1-1-1C72.1,2,72.1,2,73.9,2c55.1,0,110.3,0,165.4,0
		c1.1,0,1-0.2,1,1.1c0,1.8,0,1.8-1.8,1.8C211.2,4.8,183.7,4.8,156.3,4.8z"/>
	<path fill="#0176BF" d="M130.2,55.2c19.1,0,38.1,0,57.2,0c0.8,0,1,0.2,0.9,0.9c-0.1,1.9,0,1.9-1.9,1.9c-37.7,0-75.5,0-113.2,0
		c-1.2,0-1.1,0.2-1.1-1.1c0-1.7,0-1.7,1.8-1.7C92.6,55.2,111.4,55.2,130.2,55.2z"/>
	<path fill="#231F20" d="M106.1,36.6c-2.5,2.9-6.3,3.8-9.8,2.3c-1.7-0.7-2.8-2.1-3.1-3.9c-0.6-3.4-0.7-6.9,0-10.3
		c0.5-2.4,1.9-3.8,4.2-4.3c1.7-0.3,3.3-0.4,5,0c1.5,0.3,2.7,1,3.4,2.4c0.3-0.2,0.1-0.5,0.1-0.7c0-3.1,0-6.1,0-9.2
		c0-0.6,0.1-0.8,0.7-0.7c1,0.1,2.1,0,3.1,0c0.6,0,0.7,0.2,0.7,0.7c0,5,0,10.1,0,15.1c0,3.5,0,7.1,0,10.6c0,0.6-0.1,0.7-0.7,0.7
		c-1.1,0-2.2,0-3.3,0c-0.5,0-0.6-0.1-0.6-0.6C106.1,38.1,106.1,37.4,106.1,36.6z"/>
	<path fill="#231F20" d="M168.2,37.2c-0.8,1.3-2,2-3.4,2.2c-1.9,0.3-3.8,0.3-5.7-0.1c-2.1-0.4-3.4-1.7-3.8-3.9
		c-0.2-1.5-0.3-3,0.2-4.4c0.4-1.4,1.3-2.3,2.7-2.7c2.4-0.7,4.9-0.7,7.3-0.2c1,0.2,1.9,0.8,2.5,1.8c0-1.7,0.2-3.3-0.3-5
		c-0.2-0.7-0.7-1-1.3-1.2c-1.4-0.4-2.9-0.4-4.4-0.1c-1,0.2-1.5,0.9-1.5,1.9c0,0.5-0.2,0.6-0.7,0.6c-1.1,0-2.3,0-3.4,0
		c-0.5,0-0.6-0.2-0.6-0.7c0.2-2.8,1.5-4.3,4.2-4.8c2.6-0.4,5.1-0.4,7.7,0c3.2,0.5,4.5,2,4.8,5.2c0.2,1.6,0.1,3.3,0.1,4.9
		c0,2.7,0,5.5,0,8.2c0,0.6-0.2,0.7-0.7,0.7c-1.1,0-2.2,0-3.2,0c-0.6,0-0.7-0.2-0.6-0.7C168.2,38.2,168.1,37.7,168.2,37.2z"/>
	<path fill="#231F20" d="M82.7,30.7c-2,0-3.9,0-5.9,0c-0.5,0-0.7,0.1-0.6,0.6c0,0.8,0.1,1.7,0.2,2.5c0.2,1.1,0.8,1.8,1.8,2
		c1.6,0.4,3.3,0.3,4.9,0c0.9-0.2,1.4-0.9,1.4-1.8c0.1-0.6,0.3-0.8,0.9-0.8c1,0.1,2.1,0,3.1,0c0.5,0,0.7,0.1,0.6,0.6
		c-0.1,0.9-0.2,1.8-0.5,2.7c-0.5,1.2-1.4,2.1-2.6,2.4c-3.4,0.8-6.7,0.9-10.1,0c-2-0.5-3.3-1.8-3.8-3.9c-0.8-3.5-0.7-6.9,0-10.4
		c0.5-2.4,2.1-3.7,4.4-4.2c2.7-0.6,5.5-0.5,8.2,0.1c2.3,0.5,3.6,1.9,4,4.2c0.3,1.8,0.4,3.5,0.5,5.3c0,0.5-0.1,0.6-0.6,0.6
		C86.7,30.7,84.7,30.7,82.7,30.7z"/>
	<path fill="#231F20" d="M220.2,29.9c0,1.8-0.1,3.7-0.5,5.5c-0.4,1.8-1.5,3-3.2,3.5c-3.5,1-7,1-10.5,0c-1.6-0.5-2.7-1.5-3-3.2
		c-0.9-3.9-0.9-7.8,0-11.7c0.4-1.5,1.3-2.5,2.8-3c3.7-1.1,7.3-1.1,11,0c1.6,0.5,2.5,1.7,2.9,3.3C220.1,26.1,220.2,28,220.2,29.9z"/>
	<path fill="#231F20" d="M228.5,23c0.3,0,0.3-0.2,0.3-0.3c0.6-1.2,1.6-2,3-2.3c1.8-0.4,3.6-0.4,5.4,0c2.6,0.6,3.8,2.3,3.9,5.5
		c0,1.9,0,3.9,0,5.8c0,2.3,0,4.6,0,6.9c0,0.5-0.1,0.7-0.7,0.7c-1.1-0.1-2.2,0-3.2,0c-0.6,0-0.7-0.2-0.7-0.7c0-3.7,0-7.5,0-11.2
		c0-3.1-0.8-3.8-3.8-3.8c-0.3,0-0.6,0-0.9,0.1c-2.1,0.3-3.1,1.3-3.2,3.6c-0.2,3.4-0.1,6.8-0.1,10.2c0,1.8,0,1.8-1.8,1.8
		c-0.7,0-1.4,0-2,0c-0.6,0.1-0.7-0.2-0.7-0.7c0-5.8,0-11.7,0-17.5c0-0.1,0-0.2,0-0.2c-0.1-0.4,0.1-0.5,0.5-0.5c1.2,0,2.3,0,3.5,0
		c0.4,0,0.6,0.1,0.6,0.6C228.5,21.6,228.5,22.3,228.5,23z"/>
	<path fill="#231F20" d="M127.2,36.5c-2.4,2.9-6,3.8-9.5,2.4c-1.9-0.8-2.9-2.2-3-4.2c-0.1-4.6,0-9.2,0-13.9c0-0.4,0.1-0.5,0.5-0.5
		c1.1,0,2.2,0,3.3,0c0.6,0,0.7,0.1,0.7,0.7c0,3.7,0,7.5,0,11.2c0,0.6,0.1,1.3,0.1,1.9c0.1,1,0.6,1.5,1.6,1.7
		c1.2,0.3,2.5,0.2,3.7-0.2c1.5-0.5,2.1-1.7,2.3-3.2c0.2-1.5,0.1-3.1,0.1-4.6c0-2.3,0-4.6,0-6.9c0-0.6,0.2-0.7,0.7-0.7
		c1.1,0,2.2,0,3.2,0c0.4,0,0.7,0.1,0.6,0.6c0,5.9,0,11.9,0,17.8c0,0.4-0.1,0.6-0.6,0.6c-1.1,0-2.3,0-3.4,0c-0.4,0-0.5-0.2-0.5-0.6
		C127.2,38.1,127.2,37.3,127.2,36.5z"/>
	<path fill="#231F20" d="M135.3,29.9c0.1-1.7,0.1-3.3,0.4-4.9c0.5-2.4,1.8-3.9,4.2-4.4c3-0.7,5.9-0.6,8.9,0.1
		c2.2,0.5,3.1,2.1,3.5,4.2c0.4,2.1,0.4,2.1-1.7,2.1c-0.7,0-1.4,0-2.1,0c-0.5,0-0.6-0.1-0.6-0.6c-0.2-1.9-0.8-2.6-2.7-2.7
		c-1-0.1-2-0.1-3.1,0.1c-1.1,0.3-1.8,0.8-2,2c-0.3,2.7-0.4,5.4,0,8.1c0.1,1,0.8,1.6,1.7,1.8c1.5,0.4,3,0.3,4.5,0
		c0.6-0.2,1.1-0.6,1.2-1.2c0.1-0.4,0.2-0.9,0.3-1.3c0.1-1.2,0.1-1.2,1.3-1.2c0.9,0,1.8,0,2.8,0c0.4,0,0.6,0.1,0.5,0.5
		c0,0.2,0,0.4,0,0.6c-0.2,4.1-1.6,5.7-5.6,6.2c-2.3,0.3-4.6,0.3-6.8-0.2c-2.4-0.5-3.8-1.9-4.3-4.3C135.4,33.2,135.4,31.5,135.3,29.9
		z"/>
	<path fill="#231F20" d="M177.7,29.4c0-1.6,0-3.3,0-4.9c0-0.5-0.1-0.7-0.7-0.7c-1.7,0-1.7,0-1.7-1.7c0-1.7,0-1.8,1.7-1.8
		c0.6,0,0.6-0.2,0.6-0.7c0-1,0-2,0-3c0-0.4,0.1-0.6,0.6-0.6c1.2,0,2.4,0,3.5,0c0.4,0,0.6,0.1,0.5,0.5c0,1,0,2.1,0,3.2
		c0,0.5,0.1,0.6,0.6,0.6c2,0,4,0,6.1,0c0.5,0,0.7,0.1,0.7,0.6c0,0.8,0,1.5,0,2.3c0,0.5-0.1,0.6-0.6,0.6c-2,0-4,0-6.1,0
		c-0.5,0-0.7,0.1-0.7,0.7c0,3.2,0,6.4,0,9.5c0,1.5,0.4,1.9,1.6,2c1.5,0.1,2.3-0.5,2.5-1.8c0-0.2,0.1-0.5,0.1-0.7
		c0.1-1.5,0.1-1.5,1.5-1.5c0.7,0,1.4,0,2,0c0.3,0,0.5,0,0.5,0.5c0,1.3-0.1,2.5-0.4,3.7c-0.5,2-2,2.9-3.9,3.2
		c-1.8,0.3-3.6,0.2-5.3-0.2c-2-0.5-2.9-1.6-3.2-3.8c-0.1-1-0.2-2-0.2-3C177.7,31.4,177.7,30.4,177.7,29.4z"/>
	<path fill="#030303" d="M30.4,2.1c9,0,18,0,27,0c0.7,0,0.8,0.2,0.8,0.9c0,18,0,35.9,0,53.9c0,0.7-0.1,0.9-0.8,0.9
		c-18,0-36,0-54.1,0c-0.7,0-0.8-0.2-0.8-0.8c0-18,0-36,0-54c0-0.7,0.2-0.8,0.9-0.8C12.4,2.1,21.4,2.1,30.4,2.1z"/>
	<path fill="#0077BF" d="M221.8,58c-5.9,0-11.8,0-17.6,0c-0.7,0-0.9-0.2-0.8-0.8c0.1-0.6-0.3-1.5,0.2-1.9c0.4-0.3,1.2-0.1,1.8-0.1
		c11.4,0,22.8,0,34.3,0c0.6,0,0.8,0.2,0.8,0.8c-0.1,0.6,0.3,1.5-0.1,1.9c-0.4,0.4-1.2,0.1-1.9,0.1C232.9,58,227.4,58,221.8,58z"/>
	<path fill="#231F20" d="M198.7,29.8c0,2.9,0,5.9,0,8.8c0,0.6-0.1,0.7-0.7,0.7c-1.1,0-2.2,0-3.3,0c-0.4,0-0.6-0.1-0.6-0.5
		c0-6,0-11.9,0-17.9c0-0.4,0.1-0.6,0.6-0.6c1.1,0,2.3,0,3.4,0c0.5,0,0.6,0.2,0.6,0.7C198.7,23.9,198.7,26.9,198.7,29.8z"/>
	<path fill="#231F20" d="M196.3,16.1c-0.6-0.1-1.6,0.3-2-0.2c-0.4-0.4-0.1-1.4-0.1-2.1c0-1.7,0-1.7,1.7-1.7c0.8,0,1.6,0,2.4,0
		c0.4,0,0.5,0.1,0.5,0.5c0,1,0,1.9,0,2.9c0,0.4-0.1,0.5-0.5,0.5C197.6,16.1,197,16.1,196.3,16.1z"/>
	<path fill="#FEFEFE" d="M97.4,29.8c0-1.1,0-2.2,0.1-3.2c0.3-1.8,1-2.6,2.8-2.8c1.1-0.2,2.3-0.1,3.4,0.2c1.1,0.3,1.8,1,2,2.1
		c0.5,2.6,0.4,5.1,0,7.7c-0.2,0.9-0.8,1.5-1.6,1.8c-1.5,0.5-3,0.6-4.6,0.1c-1-0.3-1.7-1.1-1.9-2.1C97.4,32.3,97.4,31.1,97.4,29.8z"
		/>
	<path fill="#FEFEFE" d="M163.9,36.4c-0.9,0-1.7,0-2.4-0.2c-0.3-0.1-0.6-0.1-0.9-0.3c-1.1-0.8-1-2-0.8-3.1c0.1-1,0.8-1.7,1.7-1.8
		c1.6-0.3,3.1-0.3,4.7,0c1.2,0.2,1.9,1.1,1.9,2.4c0.1,1.5-0.6,2.5-1.8,2.8C165.4,36.4,164.6,36.4,163.9,36.4z"/>
	<path fill="#FDFDFD" d="M80.4,27.8c-1.2,0-2.5,0-3.7,0c-0.4,0-0.6-0.1-0.5-0.5c0,0,0-0.1,0-0.1c0-2.7,0.7-3.4,3.4-3.5
		c1,0,2,0,3.1,0.1c1.2,0.2,1.6,0.6,1.8,1.7c0.5,2.2,0.4,2.2-1.7,2.2C82,27.8,81.2,27.8,80.4,27.8z"/>
	<path fill="#FEFEFE" d="M215.6,29.9c0,1.3-0.1,2.5-0.2,3.7c-0.2,1.2-0.9,2-2.1,2.2c-1.5,0.3-2.9,0.3-4.4-0.1
		c-0.9-0.2-1.5-0.8-1.7-1.8c-0.5-2.8-0.5-5.5,0-8.3c0.2-0.9,0.8-1.5,1.7-1.7c1.6-0.4,3.2-0.4,4.8,0c0.9,0.3,1.4,0.8,1.6,1.8
		C215.6,27.1,215.6,28.5,215.6,29.9z"/>
	<path fill="#EC1C24" d="M30.4,2.9c8.7,0,17.4,0,26.1,0c0.7,0,0.9,0.2,0.9,0.9c0,17.4,0,34.8,0,52.2c0,0.8-0.2,0.9-1,0.9
		c-17.4,0-34.8,0-52.2,0c-0.8,0-1-0.2-1-0.9c0-17.4,0-34.8,0-52.2c0-0.7,0.2-0.9,0.9-0.9C12.9,2.9,21.7,2.9,30.4,2.9z"/>
	<path fill="#F1E800" d="M55.8,26c-0.4,3.8-1.8,8.4-4.9,12.3c-2.7,3.4-8.1,4.3-11.6,2c-0.4-0.2-0.8-0.5-1-0.8c-0.4-0.5-0.6-0.3-1,0
		c-3.1,2.2-6.3,2.8-9.9,1.2c-0.2-0.1-0.5-0.2-0.7-0.4c-0.3-0.2-0.5-0.2-0.9,0c-3,1.6-6.1,1.9-9.2,0.1c-0.4-0.2-0.6-0.1-0.9,0
		c-1.8,1-3.7,1.2-5.7,1c-3.5-0.5-5.6-3.3-5.1-6.9c0.5-3.7,1.9-7,3.5-10.3c0.8-1.7,1.5-3.5,3-4.8c2-1.9,4.5-2.1,7-1.4
		c0.4,0.1,0.8,0.3,1,0.7c0.3,0.6,0.6,0.4,1.1,0.1c3.3-1.7,6.7-2.1,10.1-0.2c0.4,0.2,0.6,0.2,0.9,0c2.6-1.3,5.3-1.4,8.1-0.7
		c0.9,0.2,1.8,0.6,2.5,1.3c0.3,0.3,0.5,0.3,0.9,0c2.5-1.7,5.2-2,8-1.3C54.2,18.7,56,21.4,55.8,26z"/>
	<path fill="#121902" d="M42.2,21.6c2-2.2,4.5-2.9,7.4-2.6c3.6,0.4,5.1,2.9,4.9,6.1c-0.2,3.7-1.4,7.2-3.2,10.4
		c-2.1,3.8-5.9,5.5-9.8,4.3c-1.4-0.4-2.5-1.2-3.1-2.5C38.1,37,38,37,37.6,37.4c-2.2,2.3-5,3.3-8.2,2.7c-1.1-0.2-2-0.7-2.8-1.4
		c-0.3-0.3-0.5-0.4-0.9,0c-2.1,1.8-6.9,2.4-9.3,0.1c-0.3-0.3-0.4-0.2-0.6,0c-2.1,1.5-4.5,1.8-7,1.1c-1.7-0.5-2.5-1.8-2.7-3.5
		c-0.2-1.4,0.2-2.8,0.5-4.1c1-3.6,2.5-7,4.3-10.3c1.1-1.9,2.7-3,4.9-2.9c2,0.1,2.9,0.7,3.3,2.8c1-1.4,2.3-2.3,4-2.6
		c2.1-0.4,4.2-0.7,6.2,0.5c0.1,0.1,0.2,0,0.3,0.1c0.6,1.1,1.3,0.6,2.1,0.2c2.4-1.3,4.9-1.4,7.5-0.7C40.6,19.7,41.5,20.5,42.2,21.6z"
		/>
	<path fill="#221E1F" d="M18.9,23.2c0.4-0.6,0.7-1.1,1.1-1.6c1.2-1.5,3-2,4.8-2.1c1-0.1,2-0.1,3.1,0.1c0.9,0.2,1.8,0.6,2.4,1.4
		c0.3,0.4,0.5,0.3,0.8,0.1c2-1.5,4.2-1.9,6.6-1.6c1.3,0.2,2.5,0.5,3.4,1.5c0.3,0.3,0.4,0.6,0.6,1c0.2,0.4,0.4,0.5,0.7,0.1
		c1.9-2.6,6.2-3.4,9.1-2c1.4,0.7,2.1,1.9,2.4,3.3c0.4,1.8,0,3.5-0.5,5.2c-0.7,2.7-1.7,5.3-3.2,7.7C48,40,42.7,40.7,40,38.7
		c-0.7-0.5-1.2-1.2-1.5-2c-0.2-0.6-0.5-0.6-0.8-0.1c-1.1,1.5-2.6,2.4-4.3,2.9c-2.5,0.6-4.9,0.6-6.7-1.5c-0.3-0.3-0.5-0.3-0.8,0
		c-1.9,2.1-7,2.6-9.1,0.4c-0.4-0.4-0.8-0.5-1.3,0c-1.8,1.7-6.3,2.1-8.1,0c-0.8-0.9-1-2-0.9-3.1c0.5-4.1,2.3-7.8,4-11.4
		c0.5-1,1-2.1,1.8-2.9c1.4-1.4,3.2-1.5,5-1c0.8,0.2,1.2,0.9,1.3,1.8C18.7,22.1,18.5,22.6,18.9,23.2z"/>
	<path fill="#FEFEFE" d="M36,20.7c1.3,0,2.3,0.1,3.2,0.5c1.5,0.7,2,2.1,1.4,3.9c-0.5,1.5-1.9,2.4-3.4,2c-0.9-0.2-1.2-0.7-1-1.7
		c0.1-0.4,0.4-0.8,0-1.1c-0.4-0.3-0.9-0.2-1.4,0c-0.6,0.3-1,0.8-1.2,1.4c-1.1,2.2-2,4.4-2.5,6.8c-0.1,0.7-0.4,1.4,0.4,1.9
		c0.6,0.3,1.4,0,2-0.7c0.3-0.3,0.5-0.6,0.6-1c0.3-0.5,0.5-1-0.4-1.2c-0.6-0.1-0.8-0.7-0.6-1.3c0.1-0.4,0.3-0.8,0.5-1.1
		c0.8-1.2,3.7-1.5,4.7-0.5c0.4,0.4,0.6,0.9,0.6,1.5c-0.1,3-2.1,7.5-6.4,8.4c-0.8,0.2-1.7,0.2-2.5,0c-2.1-0.4-3.3-1.8-3.3-4
		c0-2.4,0.8-4.7,1.7-6.9c0.6-1.4,1.2-2.8,2.1-4C31.9,21.5,33.9,20.6,36,20.7z"/>
	<path fill="#FEFEFE" d="M43.8,38.5c-0.5,0-1,0-1.5-0.1c-1.9-0.4-2.8-1.6-2.9-3.5c0-2,0.5-3.8,1.1-5.7c0.5-1.6,1.1-3.3,2-4.8
		c1.5-2.9,4.1-4.1,7.2-3.6c2,0.4,3.1,1.6,3.2,3.6c0.1,2-0.5,4-1.1,5.8c-0.6,1.9-1.4,3.8-2.6,5.5C47.9,37.6,46.1,38.6,43.8,38.5z"/>
	<path fill="#FEFEFE" d="M23,27.3c0.9,0,1.6-0.2,2.4,0c1.1,0.2,1.4,0.8,1.1,1.9c-0.4,1.3-1.3,2-2.6,2.1c-0.6,0-1.3,0.1-1.9-0.1
		c-0.3-0.1-0.4,0-0.5,0.3c-0.2,0.7-0.5,1.5-0.7,2.3c1-0.2,1.8-0.4,2.7-0.3c0.9,0,1.8,0.1,2.1,1c0.4,0.9,0.1,1.8-0.6,2.5
		c-0.8,0.9-1.8,1.2-2.9,1.4c-1.2,0.2-2.4,0.2-3.5-0.3c-1.4-0.6-2.1-1.7-2.1-3.2c0-2.3,0.7-4.4,1.4-6.5c0.6-1.6,1.2-3.1,2.1-4.6
		c1.6-2.9,4.3-3.6,7.6-3c1.1,0.2,1.6,0.8,1.7,1.6c0.1,1-0.4,1.8-1.4,2.3c-1,0.5-2.1,0.5-3.2,0.4c-0.6,0-0.9,0.2-1.1,0.7
		C23.5,26.3,23.2,26.7,23,27.3z"/>
	<path fill="#FEFEFE" d="M12.6,33.6c0.6,0,1.2,0,1.7,0c1.3,0.1,1.8,0.8,1.5,2.1c-0.2,1-0.8,1.8-1.8,2.2c-1.4,0.6-2.8,0.8-4.3,0.4
		c-1.4-0.3-2.1-1.4-2-2.9C8,33.6,8.6,32,9.1,30.3c0.9-2.6,2-5.1,3.4-7.5c0.7-1.3,1.7-2.1,3.3-2c1.2,0.1,1.7,0.6,1.5,1.8
		c-0.2,1.4-0.8,2.7-1.4,4c-0.9,2-1.9,4.1-2.9,6.1C12.9,33,12.8,33.2,12.6,33.6z"/>
	<path fill="#231F20" d="M48.8,25.5c-0.1,0.3-0.2,0.7-0.3,1.2c-0.6,2.2-1.4,4.4-2.4,6.6c-0.2,0.4-0.4,0.8-0.8,1.1
		c-0.3,0.2-0.7,0.3-1.1,0.1c-0.4-0.2-0.5-0.6-0.4-0.9c0-0.2,0-0.4,0.1-0.5c0.7-2.6,1.6-5.2,2.8-7.7c0.2-0.5,0.5-0.9,1.1-1
		C48.5,24.2,48.8,24.5,48.8,25.5z"/>
</g>
</svg>
