<?xml version="1.0" encoding="utf-8"?>
<!-- Generator: Adobe Illustrator 19.2.1, SVG Export Plug-In . SVG Version: 6.00 Build 0)  -->
<svg version="1.2" baseProfile="tiny" id="_x31_" xmlns="http://www.w3.org/2000/svg" xmlns:xlink="http://www.w3.org/1999/xlink"
	 x="0px" y="0px" width="332.4px" height="60px" viewBox="0 0 332.4 60" xml:space="preserve">
<g>
	<path fill-rule="evenodd" fill="#FFFFFF" d="M25.5,40.5h-5.2l-14-9.7H3.1v9.7H0V19.4h3.1V28h3.2l12.8-8.5h5.4L9.7,29.4L25.5,40.5
		L25.5,40.5z M56,19.4l-10,17.4c-1.4,2.5-3.8,3.8-7.1,3.8h-6.9v-2.8h7c1.8,0,3-0.6,3.6-1.7L27.3,19.4h4.3l12.8,14l8-14H56L56,19.4z
		 M81.7,34.4c0,4.1-2.2,6.1-6.6,6.1H58V19.4h21.5v2.9H61.1v6h14C79.5,28.2,81.7,30.3,81.7,34.4L81.7,34.4z M78.5,34.4
		c0-1-0.3-1.8-0.9-2.4c-0.6-0.6-1.5-0.9-2.5-0.9h-14v6.6H75c1.1,0,1.9-0.3,2.5-0.9C78.2,36.3,78.5,35.4,78.5,34.4L78.5,34.4z
		 M111,40.5h-3.2V22.2l-18,18.3h-4.8V19.4h3.1v18.5l18.1-18.5h4.6V40.5L111,40.5z M140.7,40.5h-5.2l-14-9.7h-3.2v9.7h-3.1V19.4h3.1
		V28h3.2l12.8-8.5h5.4L125,29.4L140.7,40.5L140.7,40.5z M250,33.2c0,2.6-0.5,4.5-1.5,5.7c-0.9,1-2.3,1.6-4.2,1.8
		c-0.8,0.1-2.8,0.1-6.2,0.1c-3.5,0-6-0.2-7.4-0.6c-1.7-0.5-2.9-1.5-3.6-3c-0.6-1.5-1-3.9-1-7.2c0-3.4,0.3-5.8,1-7.3
		c0.6-1.5,1.8-2.5,3.6-3c1.4-0.4,3.9-0.6,7.4-0.6c3.4,0,5.5,0,6.2,0.1c1.9,0.2,3.3,0.8,4.2,1.8c1,1.2,1.5,3.1,1.5,5.7h-3.2
		c0-2.3-0.5-3.7-1.5-4.2c-0.8-0.4-3.2-0.6-7.2-0.6c-3,0-4.9,0.1-5.8,0.3c-1.3,0.3-2.1,1-2.5,2.1c-0.3,1-0.5,2.9-0.5,5.7
		c0,2.8,0.2,4.6,0.5,5.6c0.4,1.1,1.2,1.8,2.5,2.1c0.9,0.2,2.8,0.3,5.8,0.3c4,0,6.4-0.2,7.2-0.6c1-0.5,1.5-1.9,1.5-4.2H250L250,33.2z
		 M279.1,40.5h-3.2V22.2l-18,18.3h-4.8V19.4h3.1v18.5l18.1-18.5h4.6V40.5L279.1,40.5z M304,22.3h-9.4v18.3h-3.2V22.3H282v-2.9H304
		V22.3L304,22.3z M332.4,40.5h-3.2V22.2l-18,18.3h-4.8V19.4h3.1v18.5l18.1-18.5h4.6V40.5z"/>
	<path fill-rule="evenodd" fill="#FFFFFF" d="M195.1,53.1c5.7-4.4,10.8-8,16.5-12.2c3.1-2.3,2.3-4.3,2.3-8.1c0-4-0.4-6.9-0.1-10.9
		c0.4-5.5-2.3-2.9-4.9-1c-3.9,2.8-7.2,5.1-11.2,7.7c-1,0.6-2,1.3-3,1.9c-2.7,1.6-8.4,4.6-10.1,6.9c-2,3.2-1.5,7.9-1.5,11.6
		c-0.1,1.8-1,12.1,2.4,11C187.7,59.2,193.2,54.7,195.1,53.1z"/>
	<path fill-rule="evenodd" fill="#FFFFFF" d="M147.7,36.8c0.4,5.9,1.3,5.9,6.4,8.7c3.2,1.8,5.7,3.5,8.8,5.4c1.3,0.8,2.6,1.4,3.8,2.3
		l3.9,2.2c2.1,1.2,6.4,4.1,8.1,4.5c2.2,0.5,2.3-2,2.2-3.4c-0.1-3.8,0.1-7,0.1-10.8c0.3-7.8,1.1-8.3-6.1-11.8
		c-4.9-2.4-10.5-6-15.3-8.8c-3.3-1.9-5.3-3.3-8.6-5.2c-4-2.3-4.3-0.8-4,3.2c0.1,1.8,0.2,3.9,0.3,5.7C147.7,31.6,147.6,34,147.7,36.8
		z"/>
	<path fill-rule="evenodd" fill="#FFFFFF" d="M205.1,21.4l1.5-1c1.8-1.2,2.6-1.7,4.4-2.9c1.5-1,1.8-2.3,0.4-3
		c-0.6-0.3-4.8-2.2-5.1-2.2c-0.7,0.1-0.3,2.4-0.5,3.3c-0.1,0.4-0.3,0.7-0.5,1.1c-2.1,3.8-8,3.6-11.9,2.5c-1.5-0.5-2.9-1.1-3.6-2.6
		c-0.6-1.3-0.9-3.8-0.9-5.3c-0.1-1.7-0.1-3,1.4-3.9c0.7-0.5,1.4-0.7,2.1-1.1c0.2-0.1,0.6-0.3,0.3-0.6c-0.4-0.3-1.4-0.7-1.9-1
		c-0.4-0.2-0.9-0.4-1.3-0.6c-0.3-0.1-1.3-0.7-1.6-0.4c-0.1,0.2-0.1,0.5-0.1,0.8c0,1.7,0.2,3.3-0.6,4.9c-0.7,1.3-2.1,2.3-3.6,2.6
		c-2.2,0.5-4.6,0.5-6.8-0.2c-2.5-0.8-3.1-2-3.7-4.4c-0.2-0.9-0.4-2.1-0.7-2.8c-0.2-0.5-0.4-0.7-0.8-0.4c-0.9,0.6-1.6,0.9-2.6,1.4
		c-0.6,0.3-1.3,0.6-1.9,0.9c-0.9,0.4-1.5,0.7-0.3,1.1c0.7,0.3,1.4,0.5,2,0.9c0.9,0.5,2.1,1.3,2.5,2.3c0.7,1.7,0.6,5.6-0.5,7.1
		c-0.8,0.9-2.2,2-3.3,2.4c-1.7,0.6-2.1,0.8-4,0.8c-2.4,0-6.6-1.4-7.7-3.8c-0.3-0.8-0.8-4.3-0.9-4.4c-0.2-0.3-2.6,1.1-3,1.3
		c-0.6,0.2-3.3,1.8-2.9,2.7c0.3,0.7,3.7,2.1,4.6,2.6c0.8,0.5,1.5,0.9,2.3,1.4l4.5,2.6c4.3,2.7,9.3,5.4,13.7,7.9
		c1.8,1,6.1,3.7,8.1,3.8c2.1,0.2,5.8-2.7,7.5-3.8C194.8,28.2,200,24.8,205.1,21.4L205.1,21.4z M171.9,23.1c-0.1-0.9-0.5-1.7-0.5-2.6
		c0-2.9,4.4-4.6,7.1-4.9c2.6-0.3,7.2,0.4,9.8,2.6c2.3,2,2,3.4,1.6,6.3c-1.2,8.7-15.9,6.6-17.5,2.6C172.1,26,172,24.3,171.9,23.1z"/>
	<path fill-rule="evenodd" fill="#FFFFFF" d="M159.1,14.5c2.4,1.1,5.9,1,8.3-0.1c0.9-0.4,3-1.9,2.5-3.2c-0.9-1.9-6.4-3.1-8.4-3.1
		l-0.1,0c-1.7,0.1-3.9,0.6-4.9,2.2c-1.3,2.2,0.8,3.2,2.5,4L159.1,14.5z"/>
	<path fill-rule="evenodd" fill="#FFFFFF" d="M157.1,16.9c3.6,5.3,13.5,3.5,13.3-2c-0.1-1.5-1.8,0.7-3.1,1.4c-3.4,1.8-6.6,0.7-9.7-1
		C156,14.5,156.8,16.2,157.1,16.9z"/>
	<path fill-rule="evenodd" fill="#FFFFFF" d="M176.4,17.5c-1.4,0.4-3.8,1.7-3.5,3.5c0.2,1.3,2.5,2.4,3.5,2.9c1.9,0.9,4,1,6.1,0.8
		c1.5-0.2,5.1-1,5.9-2.5c1-1.9-0.7-2.9-2.2-3.6C183.2,17.1,179.6,16.4,176.4,17.5z"/>
	<path fill-rule="evenodd" fill="#FFFFFF" d="M186.6,24.5c-3.3,1.3-5,2.6-8.9,1.3c-3.2-1.1-5.4-4.2-3.5,0.7c1.4,3.6,12.6,3.6,13.9-1
		C188.5,24.1,187.5,24.3,186.6,24.5z"/>
	<path fill-rule="evenodd" fill="#FFFFFF" d="M193.4,13.2c2.7,1.1,8,1.4,10.1-0.9c3.2-3.5-8.7-7.9-12.7-3.3l-0.2,0.3
		c-0.3,0.4-0.5,0.8-0.5,1.3C190.3,12,192.3,12.7,193.4,13.2z"/>
	<path fill-rule="evenodd" fill="#FFFFFF" d="M190.5,13.4c-0.5,1.4,0.8,3.3,2.2,4c3.9,2,11.8,2.2,11.9-3.9c0-0.9-1.3,0.6-2.3,1.1
		C196.4,17.3,191.1,13.1,190.5,13.4z"/>
	<path fill-rule="evenodd" fill="#FFFFFF" d="M183.3,5.8c1.1-0.4,3.3-1.7,2.9-3.2c-0.7-2-4.9-2.6-6.8-2.7c-1.6-0.1-4.7,0.6-5.6,2.1
		c-0.1,0.3-0.2,0.5-0.3,0.8c-0.5,1.8,1.5,2.5,2.8,3.1c1,0.5,2.5,0.6,3.6,0.5C181.1,6.5,182.2,6.2,183.3,5.8z"/>
	<path fill-rule="evenodd" fill="#FFFFFF" d="M177.4,7.8c-2.2-0.6-3.6-2.2-2.8,0.4c1.2,3.8,11.1,4.7,11.7-0.8
		c0.5-5.3-0.5,1.9-8.1,0.6L177.4,7.8z"/>
</g>
</svg>
