<?xml version="1.0" encoding="utf-8"?>
<!-- Generator: Adobe Illustrator 19.2.1, SVG Export Plug-In . SVG Version: 6.00 Build 0)  -->
<svg version="1.2" baseProfile="tiny" xmlns="http://www.w3.org/2000/svg" xmlns:xlink="http://www.w3.org/1999/xlink" x="0px"
	 y="0px" width="20px" height="20px" viewBox="0 0 20 20" xml:space="preserve">
<g id="Layer_13">
</g>
<g id="User">
</g>
<g id="Phone">
</g>
<g id="Mail">
	<g>
		<path fill="#FFFFFF" d="M18.1,7.1c-1.7,1.2-3.5,2.3-5.2,3.5c-0.7,0.5-2,1.5-2.9,1.5h0h0c-0.9,0-2.1-1-2.9-1.5
			C5.4,9.4,3.6,8.3,1.9,7.1C1.1,6.6,0,5.4,0,4.4c0-1,0.6-1.9,1.8-1.9h16.4c1,0,1.8,0.8,1.8,1.7C20,5.4,19.1,6.5,18.1,7.1z M20,15.8
			c0,0.9-0.8,1.7-1.8,1.7H1.8c-1,0-1.8-0.8-1.8-1.7V7.3C0.3,7.7,0.7,8,1.1,8.3c1.9,1.2,3.7,2.4,5.5,3.7c0.9,0.7,2.1,1.5,3.3,1.5h0h0
			c1.2,0,2.4-0.8,3.3-1.5c1.8-1.3,3.7-2.5,5.6-3.7C19.3,8,19.7,7.7,20,7.3V15.8z"/>
	</g>
</g>
<g id="Text">
</g>
<g id="Docs">
</g>
<g id="World">
</g>
<g id="Pin">
</g>
<g id="Date">
</g>
<g id="Key">
</g>
<g id="Layer_10">
</g>
<g id="Bilding">
</g>
<g id="Port">
</g>
<g id="Close">
</g>
<g id="Layer_15">
</g>
</svg>
