<?xml version="1.0" encoding="utf-8"?>
<!-- Generator: Adobe Illustrator 19.2.1, SVG Export Plug-In . SVG Version: 6.00 Build 0)  -->
<svg version="1.2" baseProfile="tiny" xmlns="http://www.w3.org/2000/svg" xmlns:xlink="http://www.w3.org/1999/xlink" x="0px"
	 y="0px" width="20px" height="20px" viewBox="0 0 20 20" xml:space="preserve">
<g id="Layer_13">
</g>
<g id="User">
</g>
<g id="Phone">
</g>
<g id="Mail">
</g>
<g id="Text">
</g>
<g id="Docs">
</g>
<g id="World">
</g>
<g id="Pin">
	<g>
		<path fill="#FFFFFF" d="M16.6,6.7c0,0.9-0.1,1.7-0.4,2.3l-4.7,10c-0.1,0.3-0.3,0.5-0.6,0.7C10.6,19.9,10.3,20,10,20
			c-0.3,0-0.6-0.1-0.9-0.2c-0.3-0.2-0.5-0.4-0.6-0.7L3.8,9C3.5,8.4,3.4,7.6,3.4,6.7C3.4,4.8,4,3.3,5.3,2C6.6,0.7,8.2,0,10,0
			c1.8,0,3.4,0.6,4.7,1.9C16,3.3,16.6,4.8,16.6,6.7z M12.3,9c0.6-0.6,1-1.4,1-2.3S13,5,12.3,4.3c-0.6-0.6-1.4-1-2.3-1
			c-0.9,0-1.7,0.3-2.3,1C7,5,6.7,5.8,6.7,6.7S7,8.4,7.7,9c0.6,0.6,1.4,1,2.3,1C10.9,10,11.7,9.7,12.3,9z"/>
	</g>
</g>
<g id="Date">
</g>
<g id="Key">
</g>
<g id="Layer_10">
</g>
<g id="Bilding">
</g>
<g id="Port">
</g>
<g id="Close">
</g>
<g id="Layer_15">
</g>
</svg>
