<?xml version="1.0" encoding="utf-8"?>
<!-- Generator: Adobe Illustrator 19.2.1, SVG Export Plug-In . SVG Version: 6.00 Build 0)  -->
<svg version="1.2" baseProfile="tiny" id="Layer_1" xmlns="http://www.w3.org/2000/svg" xmlns:xlink="http://www.w3.org/1999/xlink"
	 x="0px" y="0px" width="20px" height="20px" viewBox="0 0 20 20" xml:space="preserve">
<g>
	<path fill="#919191" d="M19.6,17.8c-0.3,0.7-1.1,1.2-1.7,1.5C17,19.7,16.1,20,15.2,20c-1.3,0-2.5-0.5-3.7-1
		c-0.9-0.3-1.7-0.7-2.5-1.2c-2.4-1.5-5.3-4.4-6.8-6.8C1.7,10.2,1.3,9.4,1,8.5C0.5,7.3,0,6.1,0,4.8c0-1,0.3-1.8,0.7-2.6
		c0.4-0.6,0.8-1.4,1.5-1.7C2.7,0.2,3.7,0,4.2,0c0.1,0,0.2,0,0.3,0c0.3,0.1,0.6,0.8,0.8,1.1c0.5,0.8,0.9,1.6,1.4,2.4
		c0.2,0.4,0.7,0.8,0.7,1.3c0,0.9-2.6,2.1-2.6,2.9c0,0.4,0.4,0.9,0.6,1.2c1.4,2.6,3.2,4.4,5.8,5.8c0.3,0.2,0.8,0.6,1.2,0.6
		c0.8,0,2-2.6,2.9-2.6c0.4,0,0.9,0.4,1.3,0.7c0.8,0.5,1.6,0.9,2.4,1.4c0.3,0.1,1,0.5,1.1,0.8c0,0.1,0,0.2,0,0.3
		C20,16.3,19.8,17.3,19.6,17.8z"/>
</g>
</svg>
