<?xml version="1.0" encoding="utf-8"?>
<!-- Generator: Adobe Illustrator 19.2.1, SVG Export Plug-In . SVG Version: 6.00 Build 0)  -->
<svg version="1.2" baseProfile="tiny" xmlns="http://www.w3.org/2000/svg" xmlns:xlink="http://www.w3.org/1999/xlink" x="0px"
	 y="0px" width="50px" height="50px" viewBox="0 0 50 50" xml:space="preserve">
<g id="Layer_13">
</g>
<g id="User">
</g>
<g id="Phone">
</g>
<g id="Mail">
</g>
<g id="Text">
</g>
<g id="Docs">
</g>
<g id="World">
</g>
<g id="Pin">
</g>
<g id="Date">
</g>
<g id="Key">
</g>
<g id="Layer_10">
</g>
<g id="Bilding">
</g>
<g id="Port">
</g>
<g id="Close">
</g>
<g id="Layer_15">
	<circle fill="#FFFFFF" cx="25.4" cy="24.7" r="19.8"/>
	<g>
		<path fill="#2196F3" d="M46.6,12.5c2.2,3.8,3.4,8,3.4,12.5s-1.1,8.7-3.4,12.5c-2.2,3.8-5.3,6.9-9.1,9.1c-3.8,2.2-8,3.4-12.5,3.4
			s-8.7-1.1-12.5-3.4c-3.8-2.2-6.9-5.3-9.1-9.1C1.1,33.7,0,29.5,0,25s1.1-8.7,3.4-12.5c2.2-3.8,5.3-6.9,9.1-9.1
			C16.3,1.1,20.5,0,25,0s8.7,1.1,12.5,3.4S44.4,8.6,46.6,12.5z M38.2,25c0-0.5-0.2-0.8-0.5-1.1l-9.2-9.2l-2.3-2.3
			c-0.3-0.3-0.7-0.5-1.1-0.5s-0.8,0.2-1.1,0.5l-2.3,2.3l-9.2,9.2c-0.3,0.3-0.5,0.7-0.5,1.1c0,0.5,0.2,0.8,0.5,1.1l2.3,2.3
			c0.3,0.3,0.7,0.5,1.1,0.5c0.5,0,0.8-0.2,1.1-0.5l4.8-4.8v12.8c0,0.4,0.2,0.8,0.5,1.1c0.3,0.3,0.7,0.5,1.1,0.5h3.3
			c0.4,0,0.8-0.2,1.1-0.5c0.3-0.3,0.5-0.7,0.5-1.1V23.6l4.8,4.8c0.3,0.3,0.7,0.5,1.1,0.5c0.4,0,0.8-0.2,1.1-0.5l2.3-2.3
			C38,25.8,38.2,25.4,38.2,25z"/>
	</g>
</g>
</svg>
