<?xml version="1.0" encoding="utf-8"?>
<!-- Generator: Adobe Illustrator 19.2.1, SVG Export Plug-In . SVG Version: 6.00 Build 0)  -->
<svg version="1.2" baseProfile="tiny" xmlns="http://www.w3.org/2000/svg" xmlns:xlink="http://www.w3.org/1999/xlink" x="0px"
	 y="0px" width="20px" height="20px" viewBox="0 0 20 20" xml:space="preserve">
<g id="Layer_13">
</g>
<g id="User">
	<g>
		<path fill="#2196F3" d="M15.6,20H4.4c-2,0-3.4-1.3-3.4-3.4c0-2.9,0.7-7.5,4.4-7.5C5.8,9.2,7.5,11,10,11s4.2-1.8,4.6-1.8
			c3.7,0,4.4,4.5,4.4,7.5C19,18.7,17.6,20,15.6,20z M10,10c-2.7,0-4.9-2.2-4.9-5c0-2.8,2.2-5,4.9-5c2.7,0,4.9,2.2,4.9,5
			C14.9,7.8,12.7,10,10,10z"/>
	</g>
</g>
<g id="Phone">
</g>
<g id="Mail">
</g>
<g id="Text">
</g>
<g id="Docs">
</g>
<g id="World">
</g>
<g id="Pin">
</g>
<g id="Date">
</g>
<g id="Key">
</g>
<g id="Layer_10">
</g>
<g id="Bilding">
</g>
<g id="Port">
</g>
<g id="Close">
</g>
<g id="Layer_15">
</g>
</svg>
