<?xml version="1.0" encoding="utf-8"?>
<!-- Generator: Adobe Illustrator 19.2.1, SVG Export Plug-In . SVG Version: 6.00 Build 0)  -->
<svg version="1.2" baseProfile="tiny" xmlns="http://www.w3.org/2000/svg" xmlns:xlink="http://www.w3.org/1999/xlink" x="0px"
	 y="0px" width="35px" height="40.1px" viewBox="0 0 35 40.1" xml:space="preserve">
<g id="Layer_1">
</g>
<g id="Layer_2">
</g>
<g id="Layer_3">
	<g id="Layer_1_1_">
		<g>
			<g>
				<path fill="#333333" d="M25.7,0H9.2C4.1,0,0,4,0,9v14.3c0,3.4,2,6.4,4.8,7.9v6c0,2.8,1.9,2.9,2.3,2.9c1.2,0,2-0.9,2.3-1.2
					l5.9-6.6h10.5c5.1,0,9.2-4,9.2-9V9C34.9,4,30.8,0,25.7,0z M32.4,22.9c0,3.8-3.2,6.9-7.1,6.9H15.2L8.7,37c-0.6,0.5-1,0.8-1.4,0.8
					c-0.3,0-1.1-0.1-1.1-1.7v-7c-2.4-1.2-3.9-3.5-3.9-6.2V9c0-3.8,3.2-6.9,7.1-6.9h15.9c3.9,0,7.1,3.1,7.1,6.9
					C32.4,9,32.4,22.9,32.4,22.9z"/>
				<g>
					<path fill="#333333" d="M22.2,14.6c0.4,0.4,0.3,0.7,0.1,1c-1.7,2.5-3.8,4.5-6.6,5.6c-0.6,0.3-0.9,0.2-1.1-0.1l-1.7-2
						c-0.3-0.3-0.6-0.3-1-0.2l-4.2,1.9c-0.2,0.1-0.3,0.2-0.3,0.4c0.1,0.7,0.2,1.3,0.3,1.9c0.1,0.5,0.6,1,1.1,1.5
						c1.6,1.5,3.7,1.3,5.9,0.7c6.3-2,11.1-6.3,12.9-11.7c0.3-2.5-0.3-4.5-2.1-5.8c-0.3-0.1-0.5-0.2-0.8-0.2h-1
						c-0.5,0-0.8,0.2-0.9,0.5L21.1,12c-0.3,0.5-0.2,0.8,0,1.1L22.2,14.6z"/>
					<g>
						<g>
							<path fill="#333333" d="M7.3,16.3L7.3,16.3c0.3,0,0.5-0.1,0.5-0.4c0.7-6.1,4.5-9.2,11-9c0.3,0,0.5-0.2,0.5-0.4
								c0-0.3-0.2-0.5-0.5-0.5c-7-0.3-11.3,3.2-12.1,9.8C6.9,16.1,7.1,16.3,7.3,16.3z"/>
						</g>
						<g>
							<path fill="#333333" d="M10.3,15.6c0.3,0,0.5-0.1,0.5-0.4c0.5-3.8,2.7-5.7,6.8-5.5c0.3,0,0.5-0.2,0.5-0.4
								c0-0.3-0.2-0.5-0.5-0.5c-4.5-0.2-7.3,2.1-7.8,6.4C9.8,15.3,10,15.6,10.3,15.6z"/>
						</g>
						<g>
							<path fill="#333333" d="M12.8,15.6c0.3,0,0.5-0.1,0.5-0.4c0.3-2.1,1.5-3.1,3.8-3.1c0.3,0,0.5-0.2,0.5-0.4
								c0-0.3-0.2-0.5-0.5-0.5c-2.8-0.1-4.5,1.3-4.8,3.9C12.4,15.4,12.6,15.6,12.8,15.6z"/>
						</g>
						<g>
							<path fill="#333333" d="M14.8,16.3c0.3,0,0.5-0.1,0.5-0.4c0.1-1.1,0.7-1.5,1.8-1.5c0.3,0,0.5-0.2,0.5-0.4
								c0-0.3-0.2-0.5-0.5-0.5c-1.7-0.1-2.7,0.8-2.9,2.3C14.3,16.1,14.5,16.3,14.8,16.3z"/>
						</g>
					</g>
				</g>
			</g>
		</g>
	</g>
</g>
</svg>
