<?xml version="1.0" encoding="utf-8"?>
<!-- Generator: Adobe Illustrator 19.2.1, SVG Export Plug-In . SVG Version: 6.00 Build 0)  -->
<svg version="1.2" baseProfile="tiny" xmlns="http://www.w3.org/2000/svg" xmlns:xlink="http://www.w3.org/1999/xlink" x="0px"
	 y="0px" width="12px" height="15px" viewBox="0 0 12 15" xml:space="preserve">
<g id="Layer_13">
</g>
<g id="User">
</g>
<g id="Phone">
</g>
<g id="Mail">
</g>
<g id="Text">
</g>
<g id="Docs">
</g>
<g id="World">
</g>
<g id="Pin">
</g>
<g id="Date">
</g>
<g id="Key">
</g>
<g id="Layer_10">
</g>
<g id="Bilding">
</g>
<g id="Port">
</g>
<g id="Close">
</g>
<g id="Layer_15">
	<g>
		<path fill="#FDFDFD" d="M11.8,9.3c-0.3-1.1-1-1.7-2-2.2C9.6,7,9.3,6.9,9,6.8c0,0-0.1,0-0.1-0.1s0-0.1,0.1-0.1c0,0,0,0,0.1,0
			c0.7-0.3,1.2-0.9,1.6-1.6C11,4.4,11.1,3.7,11,2.9C10.8,2,10.4,1.3,9.7,0.8C9,0.4,8.3,0.2,7.6,0.1C6.8,0,6.1,0,5.3,0
			C3.6,0,1.9,0,0.1,0C0,0,0,0,0,0.1C0,2.6,0,5,0,7.5s0,4.9,0,7.4C0,15,0,15,0.1,15c2,0,3.9,0,5.9,0c0.7,0,1.4,0,2.1-0.2
			c1-0.2,1.9-0.6,2.6-1.3C12,12.3,12.2,10.9,11.8,9.3z M3.7,2.9C3.7,2.8,3.7,2.8,3.7,2.9c0.7-0.1,1.4-0.1,2-0.1c0.4,0,0.7,0.1,1,0.4
			s0.4,0.7,0.4,1.2c0,0.2,0,0.4-0.1,0.5c0,0.3-0.2,0.6-0.6,0.8C6.1,5.8,5.8,5.9,5.5,5.9c-0.5,0-1.1,0-1.6,0c-0.1,0-0.1,0-0.1-0.1
			c0-0.5,0-1,0-1.5S3.7,3.4,3.7,2.9z M8,11.1c-0.1,0.4-0.4,0.7-0.8,0.9s-0.9,0.3-1.3,0.3c-0.7,0-1.3,0-2,0c-0.1,0-0.1,0-0.1-0.1
			c0-0.6,0-1.2,0-1.8s0-1.2,0-1.8c0-0.1,0-0.1,0.1-0.1c0.8,0,1.6,0,2.4,0c0.4,0,0.7,0.1,1.1,0.3C7.7,9,8,9.4,8.1,9.8
			C8.1,10.2,8.1,10.6,8,11.1z"/>
	</g>
</g>
</svg>
